<svg width="21" height="39" viewBox="0 0 21 39" fill="none" xmlns="http://www.w3.org/2000/svg">
<path fill-rule="evenodd" clip-rule="evenodd" d="M12 8H13H14H15V11H14V10H13V9H12V8ZM19 12H18V13H16V14H18V13H19V12ZM20 11H19V12H20V11ZM20 11H21V9H20V11ZM20 16H21V17H20V16ZM19 24H20V17H19V19H18V20H17V21H18V20H19V24ZM18 27H19V24H18V27ZM17 30V27H18V30H17ZM16 32H17V30H16V32ZM14 35H15V34H16V32H15V33H14V35ZM13 36V35H14V36H13ZM12 37H13V36H12V37ZM11 38H12V37H11V38ZM11 38H10V39H11V38ZM9 17H8V18H9V17ZM16 18V19H14V18H16Z" fill="#101010"/>
<path fill-rule="evenodd" clip-rule="evenodd" d="M7 2H10V3H11V4V5H10V6H9V7H7V8H4V7H3V6V5H4V4H5V3H7V2ZM2 16H1V17H2V16ZM2 20H3V21H2V20ZM7 32H6V33H7V32ZM6 21H7V26H6V25H5V22H6V21Z" fill="#FFF6CD"/>
<path fill-rule="evenodd" clip-rule="evenodd" d="M2 8H1V9H2V8ZM12 9H11V11H12V9Z" fill="#6A6A6A"/>
<path fill-rule="evenodd" clip-rule="evenodd" d="M2 10H1V11H2V10ZM11 10H10V11H11V10Z" fill="white"/>
<path fill-rule="evenodd" clip-rule="evenodd" d="M12 7H14V8H12V7ZM12 9V8H11V9H10V10H11V9H12ZM12 9H13V10H14V11H13V12H12H9V11H12V9ZM1 9H2V10H1V9ZM2 12H3V10H2V11H1V12H2Z" fill="#393939"/>
<path fill-rule="evenodd" clip-rule="evenodd" d="M19 5H20V6H19V5ZM0 8H1V11H0V8ZM19 13H18V14H19V15H20V14H19V13ZM21 15H20V16H21V15ZM18 17H19V18H18V17ZM17 18H16V19H17V18ZM13 18H14V19H13V18ZM17 21H16V22H17V21ZM10 17V18H9V17V16H11V17H10ZM11 16V15H13V16H11ZM9 19V18H7V19H6V18H5V19H6V20H7V19H9ZM9 19H10V20H9V19ZM0 17H1V18H0V17ZM1 18H3V19H1V18ZM10 26H9V27H10V28H11V29H12V30H13V32H14V33H15V32H14V30H13V29H12V28H11V27H10V26ZM13 34H14V35H13V34ZM12 36H11V37H12V36ZM9 38H10V39H9V38ZM8 37H9V38H8V37ZM7 36H8V37H7V36ZM6 35H7V36H6V35ZM5 33H6V35H5V33ZM4 31H5V33H4V31ZM3 28H4V27H5V29H4V31H3V28ZM3 28H2V26H3V28ZM8 28H9V29H8V28ZM3 22H2V20H1V24H2V23H3V22ZM10 25V22V21H12V22H11V25H10ZM13 22H15V23H13V22ZM14 14H16V15H14V14ZM21 7H20V9H21V7Z" fill="#4A3900"/>
<path fill-rule="evenodd" clip-rule="evenodd" d="M18 3H17V4H18V5H19V4H18V3ZM20 6H19V7H20V6ZM1 11H0V12H1V13H2V14H3V15H4V17H5V18H6V17H5V15H4V14H3V13H2V12H1V11ZM4 18H3V19H4V20H5V19H4V18ZM2 19H1V20H2V19ZM0 16H1V17H0V16ZM2 15H1V16H2V15ZM1 24H2V25H1V24ZM2 25H3V26H2V25ZM4 26H5V27H4V26ZM6 28H5V27H6V28ZM7 29H6V28H7V29ZM7 29H8V30H7V29ZM5 32H6V33H5V32ZM11 31H10V32H11V33H12V34H13V33H12V32H11V31ZM8 27H9V28H8V27ZM10 25H9V26H10V25ZM9 20H10V21H9V20ZM13 22H12V23H13V22ZM16 21H15V22H16V21ZM17 18H18V19H17V18ZM11 17H10V18H11V19H13V18H11V17ZM13 15H14V16H13V15ZM9 34H10V35H9V34ZM10 35H11V36H10V35ZM4 29H5V31H4V29Z" fill="#7B5A00"/>
<path fill-rule="evenodd" clip-rule="evenodd" d="M13 0H9V1H13V2H15V3H17V2H15V1H13V0ZM1 6H2V7H1V6ZM1 7V8H0V7H1ZM17 11H19V12H17V11ZM14 13V12H17V13H14ZM8 16V17H9V15H11V14H14V13H9V14H4V13H3V14H2V15H3V16H4V15H7V16H8ZM4 15H3V14H4V15ZM19 11H20V10H19V11ZM18 17H15V18H18V17ZM9 30H6V31H5V32H7V31H9V32H10V31H9V30ZM9 33V34H7V33H9ZM7 34V35H6V34H7ZM4 25H5V26H4V25ZM4 21V25H3V21H4ZM4 21H5V20H4V21ZM1 17H2V18H1V17ZM20 16H19V17H20V16ZM14 23H15V25H14V23ZM13 27V25H14V27H13ZM13 27V29H12V27H13Z" fill="#9C7B00"/>
<path fill-rule="evenodd" clip-rule="evenodd" d="M8 0H9V1H8V0ZM6 2V1H8V2H6ZM4 3V2H6V3H4ZM3 4V3H4V4H3ZM2 5V4H3V5H2ZM2 5V6H1V5H2ZM15 3H17V4H18V5H19V6V7H20V10H19V11H17V12H15V11H16V10H17V7V6H16V5V4H15V3ZM15 3H14V2H15V3ZM17 12V13H18V12H17ZM16 13H14V11H13V13H14V14H11V15H9V16H11V17V18H9V19H8H7V18H8V16H7V15H5V16H7V18H6V19H7V20H6V21H7L7 29H8V30H9V31H10H11V32H10H9V34H10V35H9V36H8V37H9V38H11V36H12H13V34H14V32H15H16V30H17V27H18V24H19V20H18V19H19V18H18V19H17V20H16V21H17V22H16H15V21H14V22H15L15 25H14V27H13V30H12V29H11V28H10V27H11V25H10V21H11V19V18H15V17H12V16H11V15H14V14H16V13ZM9 27H8L8 29H9V30H10V29H9V27ZM9 27H10V25H9V27ZM10 21H9V19H10V21ZM17 21H18V20H17V21ZM13 30V32H14V30H13ZM12 33H13V34H12V33ZM12 33V32H11V33H12ZM11 36V35H10V36H11ZM2 7H1V8H2V7ZM2 9H3V10H2V9ZM4 11H3V12H2V13H3V12H4V11ZM3 16H4V17H5V18V19H4V18H2V17H3V16ZM4 20H3V21H4V20ZM5 30H6V31H5V30ZM13 21H12V22H11V24H12V22H13V21ZM19 17V16H20V15H19V14H17V15H18V16H17V17H19ZM14 7H15V8H14V7ZM12 7H11V8H10V9H11V8H12V7ZM10 10H9V11H10V10Z" fill="#CD9C10"/>
<path fill-rule="evenodd" clip-rule="evenodd" d="M13 1H8V2H10V3H11V4V5H10V6H9V7H7V8H4V7H3V5H4V4H5V3H4V4H3V5H2V9H3V11H4V12H3V13H4V14H9V13H13V12H9V10H10V8H11V7H15V11H14V12H15V11H16V10H17V7V6H16V5V4H15V3H14V2H13V1ZM7 2H6V3H7V2ZM2 21H3V22H2V21ZM10 29H9V30H10V29ZM6 33H7V34H6V33ZM7 34H9V36H7V34ZM7 33H9V31H7V33ZM3 23H2V25H3V28H4V25H5V27H6V28H5V30H6H7V29H6V28H7V26H6V25H5V22H6V19H5V21H4V25H3V23ZM14 21V22H13V21H11V19H16H17V20H16V21H14ZM17 15H18V16H17V17H14H12V16H14V15H16V14H17V15ZM6 16H5V17H6V18H7V16H6ZM2 19H4V20H2V19ZM3 15H2V17H3V15ZM13 23H14V25H13V27H12V28H11V24H12V23H13Z" fill="#F6CD31"/>
</svg>
