<svg width="1024" height="1051" viewBox="0 0 1024 1051" fill="none" xmlns="http://www.w3.org/2000/svg">
<g filter="url(#filter0_d_7_15)">
<circle cx="500.668" cy="500.181" r="457.219" fill="#4580BF" stroke="#252525" stroke-width="20"/>
<g filter="url(#filter1_i_7_15)">
<path d="M996.996 555.891C969.136 805.982 757.03 1000.44 499.506 1000.44C241.875 1000.44 29.6994 805.801 1.98002 555.56C0.704943 544.049 9.90459 534.225 21.4859 534.229L977.505 534.549C989.086 534.553 998.278 544.382 996.996 555.891Z" fill="#F8F8F8"/>
</g>
<path d="M499.506 990.44C751.879 990.44 959.755 799.868 987.058 554.784C987.649 549.476 983.406 544.551 977.501 544.549L21.4826 544.229C15.5775 544.227 11.3312 549.15 11.9192 554.459C39.0837 799.691 247.029 990.44 499.506 990.44Z" stroke="#252525" stroke-width="20"/>
<g filter="url(#filter2_i_7_15)">
<path d="M998.158 445.473C970.298 195.383 758.192 0.924133 500.668 0.924133C243.037 0.924133 30.861 195.564 3.14164 445.804C1.86656 457.315 11.0662 467.139 22.6475 467.135L978.666 466.816C990.247 466.812 999.44 456.983 998.158 445.473Z" fill="#F1F148"/>
</g>
<path d="M500.668 10.9241C753.041 10.9241 960.917 201.497 988.219 446.58C988.811 451.888 984.568 456.814 978.663 456.816L22.6442 457.135C16.7392 457.137 12.4928 452.214 13.0808 446.905C40.2454 201.674 248.191 10.9241 500.668 10.9241Z" stroke="#252525" stroke-width="20"/>
<circle cx="500.668" cy="500.183" r="173.55" fill="#4580BF" stroke="#252525" stroke-width="20"/>
<rect x="293.909" y="467.052" width="413" height="67.2496" fill="#4580BF"/>
<circle cx="500.668" cy="500.183" r="116.805" fill="#F1F148"/>
<g filter="url(#filter3_d_7_15)">
<circle cx="500.668" cy="500.183" r="83.432" fill="#F1F148"/>
<circle cx="500.668" cy="500.183" r="73.432" stroke="#252525" stroke-width="20"/>
</g>
</g>
<defs>
<filter id="filter0_d_7_15" x="1.86169" y="0.924133" width="1021.42" height="1049.52" filterUnits="userSpaceOnUse" color-interpolation-filters="sRGB">
<feFlood flood-opacity="0" result="BackgroundImageFix"/>
<feColorMatrix in="SourceAlpha" type="matrix" values="0 0 0 0 0 0 0 0 0 0 0 0 0 0 0 0 0 0 127 0" result="hardAlpha"/>
<feOffset dx="25" dy="50"/>
<feColorMatrix type="matrix" values="0 0 0 0 0 0 0 0 0 0 0 0 0 0 0 0 0 0 0.25 0"/>
<feBlend mode="normal" in2="BackgroundImageFix" result="effect1_dropShadow_7_15"/>
<feBlend mode="normal" in="SourceGraphic" in2="effect1_dropShadow_7_15" result="shape"/>
</filter>
<filter id="filter1_i_7_15" x="1.86169" y="534.229" width="995.254" height="466.211" filterUnits="userSpaceOnUse" color-interpolation-filters="sRGB">
<feFlood flood-opacity="0" result="BackgroundImageFix"/>
<feBlend mode="normal" in="SourceGraphic" in2="BackgroundImageFix" result="shape"/>
<feColorMatrix in="SourceAlpha" type="matrix" values="0 0 0 0 0 0 0 0 0 0 0 0 0 0 0 0 0 0 127 0" result="hardAlpha"/>
<feOffset dx="-150" dy="-50"/>
<feComposite in2="hardAlpha" operator="arithmetic" k2="-1" k3="1"/>
<feColorMatrix type="matrix" values="0 0 0 0 0 0 0 0 0 0 0 0 0 0 0 0 0 0 0.25 0"/>
<feBlend mode="normal" in2="shape" result="effect1_innerShadow_7_15"/>
</filter>
<filter id="filter2_i_7_15" x="3.02332" y="0.924133" width="995.254" height="466.211" filterUnits="userSpaceOnUse" color-interpolation-filters="sRGB">
<feFlood flood-opacity="0" result="BackgroundImageFix"/>
<feBlend mode="normal" in="SourceGraphic" in2="BackgroundImageFix" result="shape"/>
<feColorMatrix in="SourceAlpha" type="matrix" values="0 0 0 0 0 0 0 0 0 0 0 0 0 0 0 0 0 0 127 0" result="hardAlpha"/>
<feOffset dx="-150" dy="-25"/>
<feComposite in2="hardAlpha" operator="arithmetic" k2="-1" k3="1"/>
<feColorMatrix type="matrix" values="0 0 0 0 0 0 0 0 0 0 0 0 0 0 0 0 0 0 0.25 0"/>
<feBlend mode="normal" in2="shape" result="effect1_innerShadow_7_15"/>
</filter>
<filter id="filter3_d_7_15" x="417.236" y="416.751" width="176.864" height="176.864" filterUnits="userSpaceOnUse" color-interpolation-filters="sRGB">
<feFlood flood-opacity="0" result="BackgroundImageFix"/>
<feColorMatrix in="SourceAlpha" type="matrix" values="0 0 0 0 0 0 0 0 0 0 0 0 0 0 0 0 0 0 127 0" result="hardAlpha"/>
<feOffset dx="10" dy="10"/>
<feColorMatrix type="matrix" values="0 0 0 0 0 0 0 0 0 0 0 0 0 0 0 0 0 0 0.25 0"/>
<feBlend mode="normal" in2="BackgroundImageFix" result="effect1_dropShadow_7_15"/>
<feBlend mode="normal" in="SourceGraphic" in2="effect1_dropShadow_7_15" result="shape"/>
</filter>
</defs>
</svg>
