<svg width="60" height="56" viewBox="0 0 60 56" fill="none" xmlns="http://www.w3.org/2000/svg">
<path d="M19 8H18V9H19V8Z" fill="#B4B4B4"/>
<path d="M29 37H28V38H29V37Z" fill="#B4B4B4"/>
<path d="M30 38H29V39H30V38Z" fill="#B4B4B4"/>
<path d="M29 51H28V52H29V51Z" fill="#B4B4B4"/>
<path d="M28 51H27V52H28V51Z" fill="#B4B4B4"/>
<path d="M26 52H25V53H26V52Z" fill="#B4B4B4"/>
<path d="M25 51H24V52H25V51Z" fill="#B4B4B4"/>
<path d="M23 52H22V53H23V52Z" fill="#B4B4B4"/>
<path d="M22 51H21V52H22V51Z" fill="#B4B4B4"/>
<path d="M4 36H3V37H4V36Z" fill="#B4B4B4"/>
<path d="M4 37H3V38H4V37Z" fill="#B4B4B4"/>
<path d="M4 38H3V39H4V38Z" fill="#B4B4B4"/>
<path d="M2 35H1V36H2V35Z" fill="#B4B4B4"/>
<path d="M2 33H1V34H2V33Z" fill="#B4B4B4"/>
<path d="M3 32H2V33H3V32Z" fill="#B4B4B4"/>
<path d="M7 35H6V36H7V35Z" fill="#B4B4B4"/>
<path d="M8 34H7V35H8V34Z" fill="#B4B4B4"/>
<path d="M3 37H2V38H3V37Z" fill="#B4B4B4"/>
<path d="M35 35H34V36H35V35Z" fill="#B4B4B4"/>
<path d="M34 34H33V35H34V34Z" fill="#B4B4B4"/>
<path d="M35 37H34V38H35V37Z" fill="#B4B4B4"/>
<path d="M26 0H25V1H26V0Z" fill="#941F11"/>
<path d="M27 1H26V2H27V1Z" fill="#941F11"/>
<path d="M25 4H24V5H25V4Z" fill="#941F11"/>
<path d="M23 6H22V7H23V6Z" fill="#941F11"/>
<path d="M24 8H23V9H24V8Z" fill="#941F11"/>
<path d="M25 10H24V11H25V10Z" fill="#941F11"/>
<path d="M20 8H19V9H20V8Z" fill="#941F11"/>
<path d="M19 7H18V8H19V7Z" fill="#941F11"/>
<path d="M18 8H17V9H18V8Z" fill="#941F11"/>
<path d="M16 9H15V10H16V9Z" fill="#941F11"/>
<path d="M15 10H14V11H15V10Z" fill="#941F11"/>
<path d="M16 11H15V12H16V11Z" fill="#941F11"/>
<path d="M14 8H13V9H14V8Z" fill="#941F11"/>
<path d="M17 3H16V4H17V3Z" fill="#941F11"/>
<path d="M16 3H15V4H16V3Z" fill="#941F11"/>
<path d="M15 3H14V4H15V3Z" fill="#941F11"/>
<path d="M14 4H13V5H14V4Z" fill="#941F11"/>
<path d="M13 4H12V5H13V4Z" fill="#941F11"/>
<path d="M12 5H11V6H12V5Z" fill="#941F11"/>
<path d="M11 6H10V7H11V6Z" fill="#941F11"/>
<path d="M10 7H9V8H10V7Z" fill="#941F11"/>
<path d="M10 8H9V9H10V8Z" fill="#941F11"/>
<path d="M10 9H9V10H10V9Z" fill="#941F11"/>
<path d="M11 10H10V11H11V10Z" fill="#941F11"/>
<path d="M9 12H8V13H9V12Z" fill="#941F11"/>
<path d="M8 13H7V14H8V13Z" fill="#941F11"/>
<path d="M8 14H7V15H8V14Z" fill="#941F11"/>
<path d="M8 15H7V16H8V15Z" fill="#941F11"/>
<path d="M13 16H12V17H13V16Z" fill="#941F11"/>
<path d="M14 15H13V16H14V15Z" fill="#941F11"/>
<path d="M22 22H21V23H22V22Z" fill="#941F11"/>
<path d="M23 21H22V22H23V21Z" fill="#941F11"/>
<path d="M24 21H23V22H24V21Z" fill="#941F11"/>
<path d="M25 21H24V22H25V21Z" fill="#941F11"/>
<path d="M26 22H25V23H26V22Z" fill="#941F11"/>
<path d="M27 23H26V24H27V23Z" fill="#941F11"/>
<path d="M28 24H27V25H28V24Z" fill="#941F11"/>
<path d="M29 25H28V26H29V25Z" fill="#941F11"/>
<path d="M30 25H29V26H30V25Z" fill="#941F11"/>
<path d="M31 26H30V27H31V26Z" fill="#941F11"/>
<path d="M32 27H31V28H32V27Z" fill="#941F11"/>
<path d="M34 33H33V34H34V33Z" fill="#941F11"/>
<path d="M23 39H22V40H23V39Z" fill="#941F11"/>
<path d="M22 40H21V41H22V40Z" fill="#941F11"/>
<path d="M22 41H21V42H22V41Z" fill="#941F11"/>
<path d="M21 42H20V43H21V42Z" fill="#941F11"/>
<path d="M14 42H13V43H14V42Z" fill="#941F11"/>
<path d="M13 41H12V42H13V41Z" fill="#941F11"/>
<path d="M13 40H12V41H13V40Z" fill="#941F11"/>
<path d="M12 39H11V40H12V39Z" fill="#941F11"/>
<path d="M12 38H11V39H12V38Z" fill="#941F11"/>
<path d="M11 37H10V38H11V37Z" fill="#941F11"/>
<path d="M10 38H9V39H10V38Z" fill="#941F11"/>
<path d="M9 39H8V40H9V39Z" fill="#941F11"/>
<path d="M8 40H7V41H8V40Z" fill="#941F11"/>
<path d="M3 31H2V32H3V31Z" fill="#941F11"/>
<path d="M4 29H3V30H4V29Z" fill="#941F11"/>
<path d="M5 28H4V29H5V28Z" fill="#941F11"/>
<path d="M6 27H5V28H6V27Z" fill="#941F11"/>
<path d="M7 26H6V27H7V26Z" fill="#941F11"/>
<path d="M8 26H7V27H8V26Z" fill="#941F11"/>
<path d="M9 46H8V47H9V46Z" fill="#941F11"/>
<path d="M21 43H20V44H21V43Z" fill="#941F11"/>
<path d="M26 46H25V47H26V46Z" fill="#941F11"/>
<path d="M24 52H23V53H24V52Z" fill="#941F11"/>
<path d="M16 48H15V49H16V48Z" fill="#941F11"/>
<path d="M27 52H26V53H27V52Z" fill="#941F11"/>
<path d="M30 51H29V52H30V51Z" fill="#941F11"/>
<path d="M27 45H26V46H27V45Z" fill="#941F11"/>
<path d="M27 44H26V45H27V44Z" fill="#941F11"/>
<path d="M35 40H34V41H35V40Z" fill="#941F11"/>
<path d="M36 40H35V41H36V40Z" fill="#941F11"/>
<path d="M37 40H36V41H37V40Z" fill="#941F11"/>
<path d="M38 39H37V40H38V39Z" fill="#941F11"/>
<path d="M39 39H38V40H39V39Z" fill="#941F11"/>
<path d="M40 38H39V39H40V38Z" fill="#941F11"/>
<path d="M41 38H40V39H41V38Z" fill="#941F11"/>
<path d="M42 37H41V38H42V37Z" fill="#941F11"/>
<path d="M43 36H42V37H43V36Z" fill="#941F11"/>
<path d="M44 35H43V36H44V35Z" fill="#941F11"/>
<path d="M45 35H44V36H45V35Z" fill="#941F11"/>
<path d="M45 34H44V35H45V34Z" fill="#941F11"/>
<path d="M45 37H44V38H45V37Z" fill="#941F11"/>
<path d="M45 36H44V37H45V36Z" fill="#941F11"/>
<path d="M44 39H43V40H44V39Z" fill="#941F11"/>
<path d="M43 40H42V41H43V40Z" fill="#941F11"/>
<path d="M42 41H41V42H42V41Z" fill="#941F11"/>
<path d="M41 42H40V43H41V42Z" fill="#941F11"/>
<path d="M44 38H43V39H44V38Z" fill="#941F11"/>
<path d="M45 33H44V34H45V33Z" fill="#941F11"/>
<path d="M46 35H45V36H46V35Z" fill="#941F11"/>
<path d="M46 34H45V35H46V34Z" fill="#941F11"/>
<path d="M46 33H45V34H46V33Z" fill="#941F11"/>
<path d="M46 32H45V33H46V32Z" fill="#941F11"/>
<path d="M24 25H23V26H24V25Z" fill="#941F11"/>
<path d="M23 25H22V26H23V25Z" fill="#941F11"/>
<path d="M11 13H10V14H11V13Z" fill="#941F11"/>
<path d="M27 2H26V3H27V2Z" fill="#101010"/>
<path d="M26 3H25V4H26V3Z" fill="#101010"/>
<path d="M25 5H24V6H25V5Z" fill="#101010"/>
<path d="M24 6H23V7H24V6Z" fill="#101010"/>
<path d="M24 7H23V8H24V7Z" fill="#101010"/>
<path d="M25 8H24V9H25V8Z" fill="#101010"/>
<path d="M25 9H24V10H25V9Z" fill="#101010"/>
<path d="M26 10H25V11H26V10Z" fill="#101010"/>
<path d="M26 11H25V12H26V11Z" fill="#101010"/>
<path d="M26 12H25V13H26V12Z" fill="#101010"/>
<path d="M25 13H24V14H25V13Z" fill="#101010"/>
<path d="M25 14H24V15H25V14Z" fill="#101010"/>
<path d="M24 15H23V16H24V15Z" fill="#101010"/>
<path d="M24 16H23V17H24V16Z" fill="#101010"/>
<path d="M23 17H22V18H23V17Z" fill="#101010"/>
<path d="M23 18H22V19H23V18Z" fill="#101010"/>
<path d="M23 19H22V20H23V19Z" fill="#101010"/>
<path d="M24 20H23V21H24V20Z" fill="#101010"/>
<path d="M18 19H17V20H18V19Z" fill="#101010"/>
<path d="M17 18H16V19H17V18Z" fill="#101010"/>
<path d="M16 18H15V19H16V18Z" fill="#101010"/>
<path d="M15 18H14V19H15V18Z" fill="#101010"/>
<path d="M14 18H13V19H14V18Z" fill="#101010"/>
<path d="M16 15H15V16H16V15Z" fill="#101010"/>
<path d="M15 15H14V16H15V15Z" fill="#101010"/>
<path d="M18 15H17V16H18V15Z" fill="#101010"/>
<path d="M17 15H16V16H17V15Z" fill="#101010"/>
<path d="M12 17H11V18H12V17Z" fill="#101010"/>
<path d="M11 17H10V18H11V17Z" fill="#101010"/>
<path d="M10 17H9V18H10V17Z" fill="#101010"/>
<path d="M9 16H8V17H9V16Z" fill="#101010"/>
<path d="M11 14H10V15H11V14Z" fill="#101010"/>
<path d="M14 9H13V10H14V9Z" fill="#101010"/>
<path d="M16 10H15V11H16V10Z" fill="#101010"/>
<path d="M17 10H16V11H17V10Z" fill="#101010"/>
<path d="M17 9H16V10H17V9Z" fill="#101010"/>
<path d="M18 11H17V12H18V11Z" fill="#101010"/>
<path d="M19 15H18V16H19V15Z" fill="#101010"/>
<path d="M20 14H19V15H20V14Z" fill="#101010"/>
<path d="M13 18H12V19H13V18Z" fill="#101010"/>
<path d="M15 22H14V23H15V22Z" fill="#101010"/>
<path d="M14 22H13V23H14V22Z" fill="#101010"/>
<path d="M12 24H11V25H12V24Z" fill="#101010"/>
<path d="M11 28H10V29H11V28Z" fill="#101010"/>
<path d="M13 23H12V24H13V23Z" fill="#101010"/>
<path d="M11 24H10V25H11V24Z" fill="#101010"/>
<path d="M10 25H9V26H10V25Z" fill="#101010"/>
<path d="M9 25H8V26H9V25Z" fill="#101010"/>
<path d="M13 27H12V28H13V27Z" fill="#101010"/>
<path d="M12 27H11V28H12V27Z" fill="#101010"/>
<path d="M7 36H6V37H7V36Z" fill="#101010"/>
<path d="M6 36H5V37H6V36Z" fill="#101010"/>
<path d="M4 35H3V36H4V35Z" fill="#101010"/>
<path d="M3 35H2V36H3V35Z" fill="#101010"/>
<path d="M17 21H16V22H17V21Z" fill="#101010"/>
<path d="M25 28H24V29H25V28Z" fill="#101010"/>
<path d="M18 20H17V21H18V20Z" fill="#101010"/>
<path d="M25 26H24V27H25V26Z" fill="#101010"/>
<path d="M25 27H24V28H25V27Z" fill="#101010"/>
<path d="M15 24H14V25H15V24Z" fill="#101010"/>
<path d="M15 25H14V26H15V25Z" fill="#101010"/>
<path d="M16 22H15V23H16V22Z" fill="#101010"/>
<path d="M16 23H15V24H16V23Z" fill="#101010"/>
<path d="M14 26H13V27H14V26Z" fill="#101010"/>
<path d="M14 27H13V28H14V27Z" fill="#101010"/>
<path d="M14 28H13V29H14V28Z" fill="#101010"/>
<path d="M10 29H9V30H10V29Z" fill="#101010"/>
<path d="M10 30H9V31H10V30Z" fill="#101010"/>
<path d="M9 31H8V32H9V31Z" fill="#101010"/>
<path d="M9 32H8V33H9V32Z" fill="#101010"/>
<path d="M9 33H8V34H9V33Z" fill="#101010"/>
<path d="M9 34H8V35H9V34Z" fill="#101010"/>
<path d="M6 34H5V35H6V34Z" fill="#101010"/>
<path d="M6 35H5V36H6V35Z" fill="#101010"/>
<path d="M5 37H4V38H5V37Z" fill="#101010"/>
<path d="M5 38H4V39H5V38Z" fill="#101010"/>
<path d="M4 39H3V40H4V39Z" fill="#101010"/>
<path d="M3 30H2V31H3V30Z" fill="#101010"/>
<path d="M2 36H1V37H2V36Z" fill="#101010"/>
<path d="M2 37H1V38H2V37Z" fill="#101010"/>
<path d="M2 31H1V32H2V31Z" fill="#101010"/>
<path d="M2 32H1V33H2V32Z" fill="#101010"/>
<path d="M1 33H0V34H1V33Z" fill="#101010"/>
<path d="M1 34H0V35H1V34Z" fill="#101010"/>
<path d="M1 35H0V36H1V35Z" fill="#101010"/>
<path d="M7 41H6V42H7V41Z" fill="#101010"/>
<path d="M7 42H6V43H7V42Z" fill="#101010"/>
<path d="M7 43H6V44H7V43Z" fill="#101010"/>
<path d="M8 44H7V45H8V44Z" fill="#101010"/>
<path d="M9 45H8V46H9V45Z" fill="#101010"/>
<path d="M10 46H9V47H10V46Z" fill="#101010"/>
<path d="M8 47H7V48H8V47Z" fill="#101010"/>
<path d="M8 47H7V48H8V47Z" fill="#101010"/>
<path d="M8 49H7V50H8V49Z" fill="#101010"/>
<path d="M7 49H6V50H7V49Z" fill="#101010"/>
<path d="M7 48H6V49H7V48Z" fill="#101010"/>
<path d="M6 48H5V49H6V48Z" fill="#101010"/>
<path d="M7 50H6V51H7V50Z" fill="#101010"/>
<path d="M6 50H5V51H6V50Z" fill="#101010"/>
<path d="M8 51H7V52H8V51Z" fill="#101010"/>
<path d="M7 51H6V52H7V51Z" fill="#101010"/>
<path d="M10 51H9V52H10V51Z" fill="#101010"/>
<path d="M9 51H8V52H9V51Z" fill="#101010"/>
<path d="M13 50H12V51H13V50Z" fill="#101010"/>
<path d="M12 50H11V51H12V50Z" fill="#101010"/>
<path d="M15 49H14V50H15V49Z" fill="#101010"/>
<path d="M14 49H13V50H14V49Z" fill="#101010"/>
<path d="M17 44H16V45H17V44Z" fill="#101010"/>
<path d="M16 44H15V45H16V44Z" fill="#101010"/>
<path d="M15 43H14V44H15V43Z" fill="#101010"/>
<path d="M15 45H14V46H15V45Z" fill="#101010"/>
<path d="M16 46H15V47H16V46Z" fill="#101010"/>
<path d="M17 47H16V48H17V47Z" fill="#101010"/>
<path d="M17 48H16V49H17V48Z" fill="#101010"/>
<path d="M16 49H15V50H16V49Z" fill="#101010"/>
<path d="M11 51H10V52H11V51Z" fill="#101010"/>
<path d="M5 50H4V51H5V50Z" fill="#101010"/>
<path d="M5 49H4V50H5V49Z" fill="#101010"/>
<path d="M19 45H18V46H19V45Z" fill="#101010"/>
<path d="M18 45H17V46H18V45Z" fill="#101010"/>
<path d="M21 45H20V46H21V45Z" fill="#101010"/>
<path d="M21 46H20V47H21V46Z" fill="#101010"/>
<path d="M22 47H21V48H22V47Z" fill="#101010"/>
<path d="M21 44H20V45H21V44Z" fill="#101010"/>
<path d="M23 49H22V50H23V49Z" fill="#101010"/>
<path d="M22 50H21V51H22V50Z" fill="#101010"/>
<path d="M23 48H22V49H23V48Z" fill="#101010"/>
<path d="M21 52H20V53H21V52Z" fill="#101010"/>
<path d="M21 53H20V54H21V53Z" fill="#101010"/>
<path d="M22 54H21V55H22V54Z" fill="#101010"/>
<path d="M24 54H23V55H24V54Z" fill="#101010"/>
<path d="M25 55H24V56H25V55Z" fill="#101010"/>
<path d="M21 51H20V52H21V51Z" fill="#101010"/>
<path d="M20 45H19V46H20V45Z" fill="#101010"/>
<path d="M27 54H26V55H27V54Z" fill="#101010"/>
<path d="M26 54H25V55H26V54Z" fill="#101010"/>
<path d="M24 53H23V54H24V53Z" fill="#101010"/>
<path d="M23 53H22V54H23V53Z" fill="#101010"/>
<path d="M28 53H27V54H28V53Z" fill="#101010"/>
<path d="M29 54H28V55H29V54Z" fill="#101010"/>
<path d="M30 53H29V54H30V53Z" fill="#101010"/>
<path d="M30 52H29V53H30V52Z" fill="#101010"/>
<path d="M31 51H30V52H31V51Z" fill="#101010"/>
<path d="M31 50H30V51H31V50Z" fill="#101010"/>
<path d="M31 49H30V50H31V49Z" fill="#101010"/>
<path d="M31 48H30V49H31V48Z" fill="#101010"/>
<path d="M30 46H29V47H30V46Z" fill="#101010"/>
<path d="M30 45H29V46H30V45Z" fill="#101010"/>
<path d="M30 44H29V45H30V44Z" fill="#101010"/>
<path d="M31 43H30V44H31V43Z" fill="#101010"/>
<path d="M31 42H30V43H31V42Z" fill="#101010"/>
<path d="M31 41H30V42H31V41Z" fill="#101010"/>
<path d="M28 37H27V38H28V37Z" fill="#101010"/>
<path d="M28 36H27V37H28V36Z" fill="#101010"/>
<path d="M28 35H27V36H28V35Z" fill="#101010"/>
<path d="M29 31H28V32H29V31Z" fill="#101010"/>
<path d="M29 30H28V31H29V30Z" fill="#101010"/>
<path d="M29 29H28V30H29V29Z" fill="#101010"/>
<path d="M35 33H34V34H35V33Z" fill="#101010"/>
<path d="M35 34H34V35H35V34Z" fill="#101010"/>
<path d="M35 32H34V33H35V32Z" fill="#101010"/>
<path d="M35 31H34V32H35V31Z" fill="#101010"/>
<path d="M36 37H35V38H36V37Z" fill="#101010"/>
<path d="M36 38H35V39H36V38Z" fill="#101010"/>
<path d="M35 38H34V39H35V38Z" fill="#101010"/>
<path d="M35 39H34V40H35V39Z" fill="#101010"/>
<path d="M32 39H31V40H32V39Z" fill="#101010"/>
<path d="M32 40H31V41H32V40Z" fill="#101010"/>
<path d="M31 37H30V38H31V37Z" fill="#101010"/>
<path d="M31 38H30V39H31V38Z" fill="#101010"/>
<path d="M28 32H27V33H28V32Z" fill="#101010"/>
<path d="M28 33H27V34H28V33Z" fill="#101010"/>
<path d="M27 31H26V32H27V31Z" fill="#101010"/>
<path d="M27 32H26V33H27V32Z" fill="#101010"/>
<path d="M26 29H25V30H26V29Z" fill="#101010"/>
<path d="M26 27H25V28H26V27Z" fill="#101010"/>
<path d="M27 27H26V28H27V27Z" fill="#101010"/>
<path d="M28 28H27V29H28V28Z" fill="#101010"/>
<path d="M33 28H32V29H33V28Z" fill="#101010"/>
<path d="M34 29H33V30H34V29Z" fill="#101010"/>
<path d="M34 30H33V31H34V30Z" fill="#101010"/>
<path d="M29 34H28V35H29V34Z" fill="#101010"/>
<path d="M29 38H28V39H29V38Z" fill="#101010"/>
<path d="M30 39H29V40H30V39Z" fill="#101010"/>
<path d="M33 36H32V37H33V36Z" fill="#101010"/>
<path d="M33 37H32V38H33V37Z" fill="#101010"/>
<path d="M34 37H33V38H34V37Z" fill="#101010"/>
<path d="M34 40H33V41H34V40Z" fill="#101010"/>
<path d="M33 41H32V42H33V41Z" fill="#101010"/>
<path d="M26 30H25V31H26V30Z" fill="#101010"/>
<path d="M36 36H35V37H36V36Z" fill="#101010"/>
<path d="M36 35H35V36H36V35Z" fill="#101010"/>
<path d="M27 53H26V54H27V53Z" fill="#101010"/>
<path d="M31 47H30V48H31V47Z" fill="#101010"/>
<path d="M30 47H29V48H30V47Z" fill="#101010"/>
<path d="M33 47H32V48H33V47Z" fill="#101010"/>
<path d="M34 47H33V48H34V47Z" fill="#101010"/>
<path d="M35 46H34V47H35V46Z" fill="#101010"/>
<path d="M36 46H35V47H36V46Z" fill="#101010"/>
<path d="M37 45H36V46H37V45Z" fill="#101010"/>
<path d="M38 45H37V46H38V45Z" fill="#101010"/>
<path d="M39 44H38V45H39V44Z" fill="#101010"/>
<path d="M40 43H39V44H40V43Z" fill="#101010"/>
<path d="M32 47H31V48H32V47Z" fill="#101010"/>
<path d="M4 34H3V35H4V34Z" fill="#101010"/>
<path d="M3 38H2V39H3V38Z" fill="#101010"/>
<path d="M8 35H7V36H8V35Z" fill="#101010"/>
<path d="M13 29H12V30H13V29Z" fill="#101010"/>
<path d="M13 30H12V31H13V30Z" fill="#101010"/>
<path d="M13 31H12V32H13V31Z" fill="#101010"/>
<path d="M12 32H11V33H12V32Z" fill="#101010"/>
<path d="M12 33H11V34H12V33Z" fill="#101010"/>
<path d="M12 34H11V35H12V34Z" fill="#101010"/>
<path d="M12 35H11V36H12V35Z" fill="#101010"/>
<path d="M12 36H11V37H12V36Z" fill="#101010"/>
<path d="M12 37H11V38H12V37Z" fill="#101010"/>
<path d="M30 35H29V36H30V35Z" fill="#6A6A6A"/>
<path d="M31 36H30V37H31V36Z" fill="#6A6A6A"/>
<path d="M32 38H31V39H32V38Z" fill="#6A6A6A"/>
<path d="M34 38H33V39H34V38Z" fill="#6A6A6A"/>
<path d="M26 53H25V54H26V53Z" fill="#6A6A6A"/>
<path d="M10 50H9V51H10V50Z" fill="#6A6A6A"/>
<path d="M3 36H2V37H3V36Z" fill="#6A6A6A"/>
<path d="M5 36H4V37H5V36Z" fill="#6A6A6A"/>
<path d="M6 33H5V34H6V33Z" fill="#6A6A6A"/>
<path d="M7 32H6V33H7V32Z" fill="#6A6A6A"/>
<path d="M29 35H28V36H29V35Z" fill="white"/>
<path d="M29 36H28V37H29V36Z" fill="white"/>
<path d="M30 36H29V37H30V36Z" fill="white"/>
<path d="M30 37H29V38H30V37Z" fill="white"/>
<path d="M33 35H32V36H33V35Z" fill="white"/>
<path d="M34 35H33V36H34V35Z" fill="white"/>
<path d="M34 36H33V37H34V36Z" fill="white"/>
<path d="M35 36H34V37H35V36Z" fill="white"/>
<path d="M33 38H32V39H33V38Z" fill="white"/>
<path d="M33 39H32V40H33V39Z" fill="white"/>
<path d="M34 39H33V40H34V39Z" fill="white"/>
<path d="M33 40H32V41H33V40Z" fill="white"/>
<path d="M29 53H28V54H29V53Z" fill="white"/>
<path d="M29 52H28V53H29V52Z" fill="white"/>
<path d="M28 52H27V53H28V52Z" fill="white"/>
<path d="M25 52H24V53H25V52Z" fill="white"/>
<path d="M25 53H24V54H25V53Z" fill="white"/>
<path d="M22 53H21V54H22V53Z" fill="white"/>
<path d="M22 52H21V53H22V52Z" fill="white"/>
<path d="M9 50H8V51H9V50Z" fill="white"/>
<path d="M8 50H7V51H8V50Z" fill="white"/>
<path d="M6 49H5V50H6V49Z" fill="white"/>
<path d="M2 34H1V35H2V34Z" fill="white"/>
<path d="M3 34H2V35H3V34Z" fill="white"/>
<path d="M3 33H2V34H3V33Z" fill="white"/>
<path d="M4 33H3V34H4V33Z" fill="white"/>
<path d="M7 33V34H8V33H7Z" fill="white"/>
<path d="M7 32V33H8V32H7Z" fill="white"/>
<path d="M19 10V11H20V10H19Z" fill="white"/>
<path d="M19 9V10H20V9H19Z" fill="white"/>
<path d="M18 10V11H19V10H18Z" fill="white"/>
<path d="M18 9V10H19V9H18Z" fill="white"/>
<path d="M17 9V10H18V9H17Z" fill="white"/>
<path d="M6 34V35H7V34H6Z" fill="white"/>
<path d="M6 33V34H7V33H6Z" fill="white"/>
<path d="M9 49H8V50H9V49Z" fill="white"/>
<path d="M25 54H24V55H25V54Z" fill="white"/>
<path d="M25 1H24V2H25V1Z" fill="#FB836A"/>
<path d="M24 2H23V3H24V2Z" fill="#FB836A"/>
<path d="M23 2H22V3H23V2Z" fill="#FB836A"/>
<path d="M15 4H14V5H15V4Z" fill="#FB836A"/>
<path d="M13 5H12V6H13V5Z" fill="#FB836A"/>
<path d="M12 6H11V7H12V6Z" fill="#FB836A"/>
<path d="M16 6H15V7H16V6Z" fill="#FB836A"/>
<path d="M15 7H14V8H15V7Z" fill="#FB836A"/>
<path d="M15 8H14V9H15V8Z" fill="#FB836A"/>
<path d="M15 9H14V10H15V9Z" fill="#FB836A"/>
<path d="M10 12H9V13H10V12Z" fill="#FB836A"/>
<path d="M9 13H8V14H9V13Z" fill="#FB836A"/>
<path d="M5 29H4V30H5V29Z" fill="#FB836A"/>
<path d="M7 30H6V31H7V30Z" fill="#FB836A"/>
<path d="M8 30H7V31H8V30Z" fill="#FB836A"/>
<path d="M9 30H8V31H9V30Z" fill="#FB836A"/>
<path d="M30 30H29V31H30V30Z" fill="#FB836A"/>
<path d="M30 31H29V32H30V31Z" fill="#FB836A"/>
<path d="M30 32H29V33H30V32Z" fill="#FB836A"/>
<path d="M29 32H28V33H29V32Z" fill="#FB836A"/>
<path d="M30 33H29V34H30V33Z" fill="#FB836A"/>
<path d="M46 36H45V37H46V36Z" fill="#FB836A"/>
<path d="M29 33H28V34H29V33Z" fill="#FB836A"/>
<path d="M23 43H22V44H23V43Z" fill="#FB836A"/>
<path d="M22 43H21V44H22V43Z" fill="#FB836A"/>
<path d="M23 42H22V43H23V42Z" fill="#FB836A"/>
<path d="M23 41H22V42H23V41Z" fill="#FB836A"/>
<path d="M10 39H9V40H10V39Z" fill="#FB836A"/>
<path d="M9 40H8V41H9V40Z" fill="#FB836A"/>
<path d="M24 42H23V43H24V42Z" fill="#FB836A"/>
<path d="M22 42H21V43H22V42Z" fill="#FB836A"/>
<path d="M31 31H30V32H31V31Z" fill="#FB836A"/>
<path d="M31 32H30V33H31V32Z" fill="#FB836A"/>
<path d="M8 31H7V32H8V31Z" fill="#FB836A"/>
<path d="M31 45H30V46H31V45Z" fill="#B48B5A"/>
<path d="M31 46H30V47H31V46Z" fill="#B48B5A"/>
<path d="M32 45H31V46H32V45Z" fill="#B48B5A"/>
<path d="M32 46H31V47H32V46Z" fill="#B48B5A"/>
<path d="M33 45H32V46H33V45Z" fill="#B48B5A"/>
<path d="M33 46H32V47H33V46Z" fill="#B48B5A"/>
<path d="M18 43H17V44H18V43Z" fill="#B48B5A"/>
<path d="M18 44H17V45H18V44Z" fill="#B48B5A"/>
<path d="M19 43H18V44H19V43Z" fill="#B48B5A"/>
<path d="M19 44H18V45H19V44Z" fill="#B48B5A"/>
<path d="M20 43H19V44H20V43Z" fill="#B48B5A"/>
<path d="M20 44H19V45H20V44Z" fill="#B48B5A"/>
<path d="M18 41H17V42H18V41Z" fill="#B48B5A"/>
<path d="M18 42H17V43H18V42Z" fill="#B48B5A"/>
<path d="M19 41H18V42H19V41Z" fill="#B48B5A"/>
<path d="M19 42H18V43H19V42Z" fill="#B48B5A"/>
<path d="M20 41H19V42H20V41Z" fill="#B48B5A"/>
<path d="M20 42H19V43H20V42Z" fill="#B48B5A"/>
<path d="M18 39H17V40H18V39Z" fill="#B48B5A"/>
<path d="M18 40H17V41H18V40Z" fill="#B48B5A"/>
<path d="M19 39H18V40H19V39Z" fill="#B48B5A"/>
<path d="M19 40H18V41H19V40Z" fill="#B48B5A"/>
<path d="M20 39H19V40H20V39Z" fill="#B48B5A"/>
<path d="M18 38H17V39H18V38Z" fill="#B48B5A"/>
<path d="M17 43H16V44H17V43Z" fill="#B48B5A"/>
<path d="M17 41H16V42H17V41Z" fill="#B48B5A"/>
<path d="M17 42H16V43H17V42Z" fill="#B48B5A"/>
<path d="M17 39H16V40H17V39Z" fill="#B48B5A"/>
<path d="M17 40H16V41H17V40Z" fill="#B48B5A"/>
<path d="M16 43H15V44H16V43Z" fill="#B48B5A"/>
<path d="M16 41H15V42H16V41Z" fill="#B48B5A"/>
<path d="M16 42H15V43H16V42Z" fill="#B48B5A"/>
<path d="M16 39H15V40H16V39Z" fill="#B48B5A"/>
<path d="M16 40H15V41H16V40Z" fill="#B48B5A"/>
<path d="M15 41H14V42H15V41Z" fill="#B48B5A"/>
<path d="M15 42H14V43H15V42Z" fill="#B48B5A"/>
<path d="M15 39H14V40H15V39Z" fill="#B48B5A"/>
<path d="M15 40H14V41H15V40Z" fill="#B48B5A"/>
<path d="M14 41H13V42H14V41Z" fill="#B48B5A"/>
<path d="M14 39H13V40H14V39Z" fill="#B48B5A"/>
<path d="M14 40H13V41H14V40Z" fill="#B48B5A"/>
<path d="M13 38H12V39H13V38Z" fill="#B48B5A"/>
<path d="M13 39H12V40H13V39Z" fill="#B48B5A"/>
<path d="M17 38H16V39H17V38Z" fill="#B48B5A"/>
<path d="M19 38H18V39H19V38Z" fill="#B48B5A"/>
<path d="M20 38H19V39H20V38Z" fill="#B48B5A"/>
<path d="M19 37H18V38H19V37Z" fill="#B48B5A"/>
<path d="M20 37H19V38H20V37Z" fill="#B48B5A"/>
<path d="M20 36H19V37H20V36Z" fill="#B48B5A"/>
<path d="M20 40H19V41H20V40Z" fill="#B48B5A"/>
<path d="M21 41H20V42H21V41Z" fill="#B48B5A"/>
<path d="M21 39H20V40H21V39Z" fill="#B48B5A"/>
<path d="M21 38H20V39H21V38Z" fill="#B48B5A"/>
<path d="M21 37H20V38H21V37Z" fill="#B48B5A"/>
<path d="M21 36H20V37H21V36Z" fill="#B48B5A"/>
<path d="M22 39H21V40H22V39Z" fill="#B48B5A"/>
<path d="M22 38H21V39H22V38Z" fill="#B48B5A"/>
<path d="M22 37H21V38H22V37Z" fill="#B48B5A"/>
<path d="M22 36H21V37H22V36Z" fill="#B48B5A"/>
<path d="M23 38H22V39H23V38Z" fill="#B48B5A"/>
<path d="M23 37H22V38H23V37Z" fill="#B48B5A"/>
<path d="M23 36H22V37H23V36Z" fill="#B48B5A"/>
<path d="M21 35H20V36H21V35Z" fill="#B48B5A"/>
<path d="M22 35H21V36H22V35Z" fill="#B48B5A"/>
<path d="M23 35H22V36H23V35Z" fill="#B48B5A"/>
<path d="M21 34H20V35H21V34Z" fill="#B48B5A"/>
<path d="M22 34H21V35H22V34Z" fill="#B48B5A"/>
<path d="M22 33H21V34H22V33Z" fill="#B48B5A"/>
<path d="M22 32H21V33H22V32Z" fill="#B48B5A"/>
<path d="M23 34H22V35H23V34Z" fill="#B48B5A"/>
<path d="M21 40H20V41H21V40Z" fill="#B48B5A"/>
<path d="M34 45H33V46H34V45Z" fill="#B48B5A"/>
<path d="M35 45H34V46H35V45Z" fill="#B48B5A"/>
<path d="M36 45H35V46H36V45Z" fill="#B48B5A"/>
<path d="M36 44H35V45H36V44Z" fill="#B48B5A"/>
<path d="M37 44H36V45H37V44Z" fill="#B48B5A"/>
<path d="M38 44H37V45H38V44Z" fill="#B48B5A"/>
<path d="M39 43H38V44H39V43Z" fill="#B48B5A"/>
<path d="M40 42H39V43H40V42Z" fill="#B48B5A"/>
<path d="M41 41H40V42H41V41Z" fill="#B48B5A"/>
<path d="M34 46H33V47H34V46Z" fill="#B48B5A"/>
<path d="M15 26H14V27H15V26Z" fill="#CDAC7B"/>
<path d="M16 24H15V25H16V24Z" fill="#CDAC7B"/>
<path d="M21 28H20V29H21V28Z" fill="#CDAC7B"/>
<path d="M22 31H21V32H22V31Z" fill="#CDAC7B"/>
<path d="M21 32H20V33H21V32Z" fill="#CDAC7B"/>
<path d="M21 33H20V34H21V33Z" fill="#CDAC7B"/>
<path d="M20 34H19V35H20V34Z" fill="#CDAC7B"/>
<path d="M20 35H19V36H20V35Z" fill="#CDAC7B"/>
<path d="M19 36H18V37H19V36Z" fill="#CDAC7B"/>
<path d="M18 37H17V38H18V37Z" fill="#CDAC7B"/>
<path d="M16 38H15V39H16V38Z" fill="#CDAC7B"/>
<path d="M15 38H14V39H15V38Z" fill="#CDAC7B"/>
<path d="M14 38H13V39H14V38Z" fill="#CDAC7B"/>
<path d="M13 37H12V38H13V37Z" fill="#CDAC7B"/>
<path d="M42 19H41V20H42V19Z" fill="#FAA400"/>
<path d="M41 23H40V24H41V23Z" fill="#FAA400"/>
<path d="M41 24H40V25H41V24Z" fill="#FAA400"/>
<path d="M42 24H41V25H42V24Z" fill="#FAA400"/>
<path d="M42 25H41V26H42V25Z" fill="#FAA400"/>
<path d="M43 26H42V27H43V26Z" fill="#FAA400"/>
<path d="M41 27H40V28H41V27Z" fill="#FAA400"/>
<path d="M40 32H39V33H40V32Z" fill="#FAA400"/>
<path d="M42 32H41V33H42V32Z" fill="#FAA400"/>
<path d="M41 34H40V35H41V34Z" fill="#FAA400"/>
<path d="M42 35H41V36H42V35Z" fill="#FAA400"/>
<path d="M44 33H43V34H44V33Z" fill="#FAA400"/>
<path d="M45 31H44V32H45V31Z" fill="#FAA400"/>
<path d="M44 30H43V31H44V30Z" fill="#FAA400"/>
<path d="M45 29H44V30H45V29Z" fill="#FAA400"/>
<path d="M46 29H45V30H46V29Z" fill="#FAA400"/>
<path d="M45 27H44V28H45V27Z" fill="#FAA400"/>
<path d="M46 27H45V28H46V27Z" fill="#FAA400"/>
<path d="M46 26H45V27H46V26Z" fill="#FAA400"/>
<path d="M48 28H47V29H48V28Z" fill="#FAA400"/>
<path d="M48 23H47V24H48V23Z" fill="#FAA400"/>
<path d="M52 21H51V22H52V21Z" fill="#FAA400"/>
<path d="M53 20H52V21H53V20Z" fill="#FAA400"/>
<path d="M53 19H52V20H53V19Z" fill="#FAA400"/>
<path d="M54 19H53V20H54V19Z" fill="#FAA400"/>
<path d="M55 18H54V19H55V18Z" fill="#FAA400"/>
<path d="M55 14H54V15H55V14Z" fill="#FAA400"/>
<path d="M54 13H53V14H54V13Z" fill="#FAA400"/>
<path d="M58 21H57V22H58V21Z" fill="#FAA400"/>
<path d="M59 21H58V22H59V21Z" fill="#FAA400"/>
<path d="M59 20H58V21H59V20Z" fill="#FAA400"/>
<path d="M60 20H59V21H60V20Z" fill="#FAA400"/>
<path d="M49 27H48V28H49V27Z" fill="#FAA400"/>
<path d="M51 26H50V27H51V26Z" fill="#FAA400"/>
<path d="M50 29H49V30H50V29Z" fill="#FAA400"/>
<path d="M49 30H48V31H49V30Z" fill="#FAA400"/>
<path d="M49 31H48V32H49V31Z" fill="#FAA400"/>
<path d="M48 34H47V35H48V34Z" fill="#FAA400"/>
<path d="M55 13H54V14H55V13Z" fill="#FBDE2A"/>
<path d="M52 26H51V27H52V26Z" fill="#FBDE2A"/>
<path d="M51 27H50V28H51V27Z" fill="#FBDE2A"/>
<path d="M50 27H49V28H50V27Z" fill="#FBDE2A"/>
<path d="M50 28H49V29H50V28Z" fill="#FBDE2A"/>
<path d="M49 28H48V29H49V28Z" fill="#FBDE2A"/>
<path d="M49 29H48V30H49V29Z" fill="#FBDE2A"/>
<path d="M48 29H47V30H48V29Z" fill="#FBDE2A"/>
<path d="M48 30H47V31H48V30Z" fill="#FBDE2A"/>
<path d="M48 31H47V32H48V31Z" fill="#FBDE2A"/>
<path d="M48 32H47V33H48V32Z" fill="#FBDE2A"/>
<path d="M48 33H47V34H48V33Z" fill="#FBDE2A"/>
<path d="M43 32H42V33H43V32Z" fill="#FBDE2A"/>
<path d="M43 33H42V34H43V33Z" fill="#FBDE2A"/>
<path d="M41 32H40V33H41V32Z" fill="#FBDE2A"/>
<path d="M41 33H40V34H41V33Z" fill="#FBDE2A"/>
<path d="M40 30H39V31H40V30Z" fill="#FBDE2A"/>
<path d="M40 31H39V32H40V31Z" fill="#FBDE2A"/>
<path d="M41 28H40V29H41V28Z" fill="#FBDE2A"/>
<path d="M41 29H40V30H41V29Z" fill="#FBDE2A"/>
<path d="M42 27H41V28H42V27Z" fill="#FBDE2A"/>
<path d="M42 28H41V29H42V28Z" fill="#FBDE2A"/>
<path d="M43 27H42V28H43V27Z" fill="#FBDE2A"/>
<path d="M43 28H42V29H43V28Z" fill="#FBDE2A"/>
<path d="M44 27H43V28H44V27Z" fill="#FBDE2A"/>
<path d="M44 28H43V29H44V28Z" fill="#FBDE2A"/>
<path d="M45 25H44V26H45V25Z" fill="#FBDE2A"/>
<path d="M45 26H44V27H45V26Z" fill="#FBDE2A"/>
<path d="M46 24H45V25H46V24Z" fill="#FBDE2A"/>
<path d="M46 25H45V26H46V25Z" fill="#FBDE2A"/>
<path d="M41 30H40V31H41V30Z" fill="#FBDE2A"/>
<path d="M41 31H40V32H41V31Z" fill="#FBDE2A"/>
<path d="M42 29H41V30H42V29Z" fill="#FBDE2A"/>
<path d="M42 30H41V31H42V30Z" fill="#FBDE2A"/>
<path d="M42 31H41V32H42V31Z" fill="#FBDE2A"/>
<path d="M43 29H42V30H43V29Z" fill="#FBDE2A"/>
<path d="M44 29H43V30H44V29Z" fill="#FBDE2A"/>
<path d="M45 30H44V31H45V30Z" fill="#FBDE2A"/>
<path d="M44 26H43V27H44V26Z" fill="#FBDE2A"/>
<path d="M47 24H46V25H47V24Z" fill="#FBDE2A"/>
<path d="M43 30H42V31H43V30Z" fill="#FBDE2A"/>
<path d="M43 31H42V32H43V31Z" fill="#FBDE2A"/>
<path d="M44 32H43V33H44V32Z" fill="#FBDE2A"/>
<path d="M44 31H43V32H44V31Z" fill="#FBDE2A"/>
<path d="M47 29H46V30H47V29Z" fill="#FBDE2A"/>
<path d="M47 28H46V29H47V28Z" fill="#FBDE2A"/>
<path d="M46 28H45V29H46V28Z" fill="#FBDE2A"/>
<path d="M54 12H53V13H54V12Z" fill="#FBDE2A"/>
<path d="M46 16H45V17H46V16Z" fill="#FA4002"/>
<path d="M43 21H42V22H43V21Z" fill="#FA4002"/>
<path d="M44 21H43V22H44V21Z" fill="#FA4002"/>
<path d="M47 19H46V20H47V19Z" fill="#FA4002"/>
<path d="M48 19H47V20H48V19Z" fill="#FA4002"/>
<path d="M49 19H48V20H49V19Z" fill="#FA4002"/>
<path d="M50 19H49V20H50V19Z" fill="#FA4002"/>
<path d="M47 20H46V21H47V20Z" fill="#FA4002"/>
<path d="M46 20H45V21H46V20Z" fill="#FA4002"/>
<path d="M48 20H47V21H48V20Z" fill="#FA4002"/>
<path d="M49 20H48V21H49V20Z" fill="#FA4002"/>
<path d="M50 20H49V21H50V20Z" fill="#FA4002"/>
<path d="M51 20H50V21H51V20Z" fill="#FA4002"/>
<path d="M47 21H46V22H47V21Z" fill="#FA4002"/>
<path d="M46 21H45V22H46V21Z" fill="#FA4002"/>
<path d="M48 21H47V22H48V21Z" fill="#FA4002"/>
<path d="M49 21H48V22H49V21Z" fill="#FA4002"/>
<path d="M47 22H46V23H47V22Z" fill="#FA4002"/>
<path d="M46 22H45V23H46V22Z" fill="#FA4002"/>
<path d="M47 23H46V24H47V23Z" fill="#FA4002"/>
<path d="M46 23H45V24H46V23Z" fill="#FA4002"/>
<path d="M45 22H44V23H45V22Z" fill="#FA4002"/>
<path d="M45 23H44V24H45V23Z" fill="#FA4002"/>
<path d="M44 22H43V23H44V22Z" fill="#FA4002"/>
<path d="M44 23H43V24H44V23Z" fill="#FA4002"/>
<path d="M43 22H42V23H43V22Z" fill="#FA4002"/>
<path d="M43 23H42V24H43V23Z" fill="#FA4002"/>
<path d="M45 24H44V25H45V24Z" fill="#FA4002"/>
<path d="M44 24H43V25H44V24Z" fill="#FA4002"/>
<path d="M43 24H42V25H43V24Z" fill="#FA4002"/>
<path d="M44 25H43V26H44V25Z" fill="#FA4002"/>
<path d="M43 25H42V26H43V25Z" fill="#FA4002"/>
<path d="M42 26H41V27H42V26Z" fill="#FA4002"/>
<path d="M45 28H44V29H45V28Z" fill="#FA4002"/>
<path d="M42 33H41V34H42V33Z" fill="#FA4002"/>
<path d="M42 34H41V35H42V34Z" fill="#FA4002"/>
<path d="M43 34H42V35H43V34Z" fill="#FA4002"/>
<path d="M44 34H43V35H44V34Z" fill="#FA4002"/>
<path d="M45 32H44V33H45V32Z" fill="#FA4002"/>
<path d="M46 30H45V31H46V30Z" fill="#FA4002"/>
<path d="M46 31H45V32H46V31Z" fill="#FA4002"/>
<path d="M47 30H46V31H47V30Z" fill="#FA4002"/>
<path d="M47 31H46V32H47V31Z" fill="#FA4002"/>
<path d="M47 32H46V33H47V32Z" fill="#FA4002"/>
<path d="M47 33H46V34H47V33Z" fill="#FA4002"/>
<path d="M47 34H46V35H47V34Z" fill="#FA4002"/>
<path d="M47 35H46V36H47V35Z" fill="#FA4002"/>
<path d="M47 36H46V37H47V36Z" fill="#FA4002"/>
<path d="M48 35H47V36H48V35Z" fill="#FA4002"/>
<path d="M48 36H47V37H48V36Z" fill="#FA4002"/>
<path d="M49 34H48V35H49V34Z" fill="#FA4002"/>
<path d="M49 35H48V36H49V35Z" fill="#FA4002"/>
<path d="M49 32H48V33H49V32Z" fill="#FA4002"/>
<path d="M49 33H48V34H49V33Z" fill="#FA4002"/>
<path d="M50 33H49V34H50V33Z" fill="#FA4002"/>
<path d="M50 34H49V35H50V34Z" fill="#FA4002"/>
<path d="M50 31H49V32H50V31Z" fill="#FA4002"/>
<path d="M50 32H49V33H50V32Z" fill="#FA4002"/>
<path d="M51 31H50V32H51V31Z" fill="#FA4002"/>
<path d="M50 30H49V31H50V30Z" fill="#FA4002"/>
<path d="M51 30H50V31H51V30Z" fill="#FA4002"/>
<path d="M51 29H50V30H51V29Z" fill="#FA4002"/>
<path d="M51 28H50V29H51V28Z" fill="#FA4002"/>
<path d="M51 32H50V33H51V32Z" fill="#FA4002"/>
<path d="M52 28H51V29H52V28Z" fill="#FA4002"/>
<path d="M53 28H52V29H53V28Z" fill="#FA4002"/>
<path d="M52 27H51V28H52V27Z" fill="#FA4002"/>
<path d="M53 27H52V28H53V27Z" fill="#FA4002"/>
<path d="M54 27H53V28H54V27Z" fill="#FA4002"/>
<path d="M53 26H52V27H53V26Z" fill="#FA4002"/>
<path d="M54 26H53V27H54V26Z" fill="#FA4002"/>
<path d="M55 26H54V27H55V26Z" fill="#FA4002"/>
<path d="M53 25H52V26H53V25Z" fill="#FA4002"/>
<path d="M54 25H53V26H54V25Z" fill="#FA4002"/>
<path d="M55 25H54V26H55V25Z" fill="#FA4002"/>
<path d="M53 24H52V25H53V24Z" fill="#FA4002"/>
<path d="M52 25H51V26H52V25Z" fill="#FA4002"/>
<path d="M52 24H51V25H52V24Z" fill="#FA4002"/>
<path d="M51 25H50V26H51V25Z" fill="#FA4002"/>
<path d="M51 24H50V25H51V24Z" fill="#FA4002"/>
<path d="M50 25H49V26H50V25Z" fill="#FA4002"/>
<path d="M50 24H49V25H50V24Z" fill="#FA4002"/>
<path d="M49 25H48V26H49V25Z" fill="#FA4002"/>
<path d="M49 24H48V25H49V24Z" fill="#FA4002"/>
<path d="M50 23H49V24H50V23Z" fill="#FA4002"/>
<path d="M49 23H48V24H49V23Z" fill="#FA4002"/>
<path d="M48 25H47V26H48V25Z" fill="#FA4002"/>
<path d="M50 26H49V27H50V26Z" fill="#FA4002"/>
<path d="M49 26H48V27H49V26Z" fill="#FA4002"/>
<path d="M48 26H47V27H48V26Z" fill="#FA4002"/>
<path d="M48 27H47V28H48V27Z" fill="#FA4002"/>
<path d="M47 25H46V26H47V25Z" fill="#FA4002"/>
<path d="M47 26H46V27H47V26Z" fill="#FA4002"/>
<path d="M47 27H46V28H47V27Z" fill="#FA4002"/>
<path d="M48 24H47V25H48V24Z" fill="#FA4002"/>
<path d="M54 24H53V25H54V24Z" fill="#FA4002"/>
<path d="M55 24H54V25H55V24Z" fill="#FA4002"/>
<path d="M56 24H55V25H56V24Z" fill="#FA4002"/>
<path d="M57 24H56V25H57V24Z" fill="#FA4002"/>
<path d="M57 23H56V24H57V23Z" fill="#FA4002"/>
<path d="M58 23H57V24H58V23Z" fill="#FA4002"/>
<path d="M53 23H52V24H53V23Z" fill="#FA4002"/>
<path d="M54 23H53V24H54V23Z" fill="#FA4002"/>
<path d="M55 23H54V24H55V23Z" fill="#FA4002"/>
<path d="M47 37H46V38H47V37Z" fill="#FA4002"/>
<path d="M46 37H45V38H46V37Z" fill="#FA4002"/>
<path d="M43 35H42V36H43V35Z" fill="#FA4002"/>
<path d="M42 22H41V23H42V22Z" fill="#FA4002"/>
<path d="M42 23H41V24H42V23Z" fill="#FA4002"/>
<path d="M48 22H47V23H48V22Z" fill="#FA4002"/>
<path d="M49 22H48V23H49V22Z" fill="#FA4002"/>
<path d="M50 21H49V22H50V21Z" fill="#FA4002"/>
<path d="M51 21H50V22H51V21Z" fill="#FA4002"/>
<path d="M52 20H51V21H52V20Z" fill="#FA4002"/>
<path d="M54 20H53V21H54V20Z" fill="#FA4002"/>
<path d="M18 10H17V11H18V10Z" fill="#365AFE"/>
<path d="M17 11H16V12H17V11Z" fill="#365AFE"/>
<path d="M25 0H24V1H25V0Z" fill="#CD3939"/>
<path d="M24 1H23V2H24V1Z" fill="#CD3939"/>
<path d="M23 1H22V2H23V1Z" fill="#CD3939"/>
<path d="M22 2H21V3H22V2Z" fill="#CD3939"/>
<path d="M21 2H20V3H21V2Z" fill="#CD3939"/>
<path d="M20 3H19V4H20V3Z" fill="#CD3939"/>
<path d="M19 3H18V4H19V3Z" fill="#CD3939"/>
<path d="M18 3H17V4H18V3Z" fill="#CD3939"/>
<path d="M24 5H23V6H24V5Z" fill="#CD3939"/>
<path d="M24 4H23V5H24V4Z" fill="#CD3939"/>
<path d="M25 3H24V4H25V3Z" fill="#CD3939"/>
<path d="M26 2H25V3H26V2Z" fill="#CD3939"/>
<path d="M23 5H22V6H23V5Z" fill="#CD3939"/>
<path d="M22 5H21V6H22V5Z" fill="#CD3939"/>
<path d="M20 7H19V8H20V7Z" fill="#CD3939"/>
<path d="M17 8H16V9H17V8Z" fill="#CD3939"/>
<path d="M19 11H18V12H19V11Z" fill="#CD3939"/>
<path d="M20 11H19V12H20V11Z" fill="#CD3939"/>
<path d="M14 16H13V17H14V16Z" fill="#CD3939"/>
<path d="M15 16H14V17H15V16Z" fill="#CD3939"/>
<path d="M16 16H15V17H16V16Z" fill="#CD3939"/>
<path d="M17 16H16V17H17V16Z" fill="#CD3939"/>
<path d="M18 16H17V17H18V16Z" fill="#CD3939"/>
<path d="M19 16H18V17H19V16Z" fill="#CD3939"/>
<path d="M20 16H19V17H20V16Z" fill="#CD3939"/>
<path d="M21 16H20V17H21V16Z" fill="#CD3939"/>
<path d="M22 16H21V17H22V16Z" fill="#CD3939"/>
<path d="M23 16H22V17H23V16Z" fill="#CD3939"/>
<path d="M20 15H19V16H20V15Z" fill="#CD3939"/>
<path d="M21 15H20V16H21V15Z" fill="#CD3939"/>
<path d="M22 15H21V16H22V15Z" fill="#CD3939"/>
<path d="M23 15H22V16H23V15Z" fill="#CD3939"/>
<path d="M21 14H20V15H21V14Z" fill="#CD3939"/>
<path d="M22 14H21V15H22V14Z" fill="#CD3939"/>
<path d="M23 14H22V15H23V14Z" fill="#CD3939"/>
<path d="M24 14H23V15H24V14Z" fill="#CD3939"/>
<path d="M22 13H21V14H22V13Z" fill="#CD3939"/>
<path d="M23 13H22V14H23V13Z" fill="#CD3939"/>
<path d="M24 13H23V14H24V13Z" fill="#CD3939"/>
<path d="M24 12H23V13H24V12Z" fill="#CD3939"/>
<path d="M25 12H24V13H25V12Z" fill="#CD3939"/>
<path d="M25 11H24V12H25V11Z" fill="#CD3939"/>
<path d="M13 17H12V18H13V17Z" fill="#CD3939"/>
<path d="M14 17H13V18H14V17Z" fill="#CD3939"/>
<path d="M15 17H14V18H15V17Z" fill="#CD3939"/>
<path d="M16 17H15V18H16V17Z" fill="#CD3939"/>
<path d="M17 17H16V18H17V17Z" fill="#CD3939"/>
<path d="M18 17H17V18H18V17Z" fill="#CD3939"/>
<path d="M19 17H18V18H19V17Z" fill="#CD3939"/>
<path d="M20 17H19V18H20V17Z" fill="#CD3939"/>
<path d="M21 17H20V18H21V17Z" fill="#CD3939"/>
<path d="M22 17H21V18H22V17Z" fill="#CD3939"/>
<path d="M18 18H17V19H18V18Z" fill="#CD3939"/>
<path d="M19 18H18V19H19V18Z" fill="#CD3939"/>
<path d="M20 18H19V19H20V18Z" fill="#CD3939"/>
<path d="M21 18H20V19H21V18Z" fill="#CD3939"/>
<path d="M22 18H21V19H22V18Z" fill="#CD3939"/>
<path d="M19 19H18V20H19V19Z" fill="#CD3939"/>
<path d="M20 19H19V20H20V19Z" fill="#CD3939"/>
<path d="M21 19H20V20H21V19Z" fill="#CD3939"/>
<path d="M22 19H21V20H22V19Z" fill="#CD3939"/>
<path d="M19 20H18V21H19V20Z" fill="#CD3939"/>
<path d="M20 20H19V21H20V20Z" fill="#CD3939"/>
<path d="M21 20H20V21H21V20Z" fill="#CD3939"/>
<path d="M22 20H21V21H22V20Z" fill="#CD3939"/>
<path d="M23 20H22V21H23V20Z" fill="#CD3939"/>
<path d="M19 21H18V22H19V21Z" fill="#CD3939"/>
<path d="M18 21H17V22H18V21Z" fill="#CD3939"/>
<path d="M15 23H14V24H15V23Z" fill="#CD3939"/>
<path d="M24 22H23V23H24V22Z" fill="#CD3939"/>
<path d="M25 22H24V23H25V22Z" fill="#CD3939"/>
<path d="M26 23H25V24H26V23Z" fill="#CD3939"/>
<path d="M27 24H26V25H27V24Z" fill="#CD3939"/>
<path d="M27 25H26V26H27V25Z" fill="#CD3939"/>
<path d="M28 25H27V26H28V25Z" fill="#CD3939"/>
<path d="M26 25H25V26H26V25Z" fill="#CD3939"/>
<path d="M27 26H26V27H27V26Z" fill="#CD3939"/>
<path d="M24 26H23V27H24V26Z" fill="#CD3939"/>
<path d="M24 27H23V28H24V27Z" fill="#CD3939"/>
<path d="M24 28H23V29H24V28Z" fill="#CD3939"/>
<path d="M25 29H24V30H25V29Z" fill="#CD3939"/>
<path d="M25 30H24V31H25V30Z" fill="#CD3939"/>
<path d="M25 31H24V32H25V31Z" fill="#CD3939"/>
<path d="M25 32H24V33H25V32Z" fill="#CD3939"/>
<path d="M25 33H24V34H25V33Z" fill="#CD3939"/>
<path d="M25 34H24V35H25V34Z" fill="#CD3939"/>
<path d="M26 34H25V35H26V34Z" fill="#CD3939"/>
<path d="M26 35H25V36H26V35Z" fill="#CD3939"/>
<path d="M26 36H25V37H26V36Z" fill="#CD3939"/>
<path d="M26 37H25V38H26V37Z" fill="#CD3939"/>
<path d="M25 35H24V36H25V35Z" fill="#CD3939"/>
<path d="M25 36H24V37H25V36Z" fill="#CD3939"/>
<path d="M25 37H24V38H25V37Z" fill="#CD3939"/>
<path d="M24 29H23V30H24V29Z" fill="#CD3939"/>
<path d="M24 30H23V31H24V30Z" fill="#CD3939"/>
<path d="M24 31H23V32H24V31Z" fill="#CD3939"/>
<path d="M24 32H23V33H24V32Z" fill="#CD3939"/>
<path d="M24 33H23V34H24V33Z" fill="#CD3939"/>
<path d="M23 29H22V30H23V29Z" fill="#CD3939"/>
<path d="M23 30H22V31H23V30Z" fill="#CD3939"/>
<path d="M22 30H21V31H22V30Z" fill="#CD3939"/>
<path d="M23 31H22V32H23V31Z" fill="#CD3939"/>
<path d="M23 32H22V33H23V32Z" fill="#CD3939"/>
<path d="M23 33H22V34H23V33Z" fill="#CD3939"/>
<path d="M24 34H23V35H24V34Z" fill="#CD3939"/>
<path d="M24 35H23V36H24V35Z" fill="#CD3939"/>
<path d="M24 36H23V37H24V36Z" fill="#CD3939"/>
<path d="M24 37H23V38H24V37Z" fill="#CD3939"/>
<path d="M24 38H23V39H24V38Z" fill="#CD3939"/>
<path d="M26 31H25V32H26V31Z" fill="#CD3939"/>
<path d="M26 32H25V33H26V32Z" fill="#CD3939"/>
<path d="M26 33H25V34H26V33Z" fill="#CD3939"/>
<path d="M27 33H26V34H27V33Z" fill="#CD3939"/>
<path d="M27 34H26V35H27V34Z" fill="#CD3939"/>
<path d="M28 34H27V35H28V34Z" fill="#CD3939"/>
<path d="M27 35H26V36H27V35Z" fill="#CD3939"/>
<path d="M27 36H26V37H27V36Z" fill="#CD3939"/>
<path d="M27 37H26V38H27V37Z" fill="#CD3939"/>
<path d="M27 38H26V39H27V38Z" fill="#CD3939"/>
<path d="M28 38H27V39H28V38Z" fill="#CD3939"/>
<path d="M28 39H27V40H28V39Z" fill="#CD3939"/>
<path d="M29 39H28V40H29V39Z" fill="#CD3939"/>
<path d="M29 40H28V41H29V40Z" fill="#CD3939"/>
<path d="M30 40H29V41H30V40Z" fill="#CD3939"/>
<path d="M29 41H28V42H29V41Z" fill="#CD3939"/>
<path d="M30 41H29V42H30V41Z" fill="#CD3939"/>
<path d="M29 42H28V43H29V42Z" fill="#CD3939"/>
<path d="M30 42H29V43H30V42Z" fill="#CD3939"/>
<path d="M29 43H28V44H29V43Z" fill="#CD3939"/>
<path d="M29 44H28V45H29V44Z" fill="#CD3939"/>
<path d="M29 45H28V46H29V45Z" fill="#CD3939"/>
<path d="M28 45H27V46H28V45Z" fill="#CD3939"/>
<path d="M29 46H28V47H29V46Z" fill="#CD3939"/>
<path d="M28 46H27V47H28V46Z" fill="#CD3939"/>
<path d="M29 47H28V48H29V47Z" fill="#CD3939"/>
<path d="M28 47H27V48H28V47Z" fill="#CD3939"/>
<path d="M29 48H28V49H29V48Z" fill="#CD3939"/>
<path d="M28 48H27V49H28V48Z" fill="#CD3939"/>
<path d="M29 49H28V50H29V49Z" fill="#CD3939"/>
<path d="M28 49H27V50H28V49Z" fill="#CD3939"/>
<path d="M29 50H28V51H29V50Z" fill="#CD3939"/>
<path d="M30 48H29V49H30V48Z" fill="#CD3939"/>
<path d="M30 49H29V50H30V49Z" fill="#CD3939"/>
<path d="M30 50H29V51H30V50Z" fill="#CD3939"/>
<path d="M28 50H27V51H28V50Z" fill="#CD3939"/>
<path d="M27 46H26V47H27V46Z" fill="#CD3939"/>
<path d="M27 47H26V48H27V47Z" fill="#CD3939"/>
<path d="M27 48H26V49H27V48Z" fill="#CD3939"/>
<path d="M26 47H25V48H26V47Z" fill="#CD3939"/>
<path d="M26 48H25V49H26V48Z" fill="#CD3939"/>
<path d="M25 47H24V48H25V47Z" fill="#CD3939"/>
<path d="M25 48H24V49H25V48Z" fill="#CD3939"/>
<path d="M24 47H23V48H24V47Z" fill="#CD3939"/>
<path d="M23 47H22V48H23V47Z" fill="#CD3939"/>
<path d="M22 46H21V47H22V46Z" fill="#CD3939"/>
<path d="M16 47H15V48H16V47Z" fill="#CD3939"/>
<path d="M14 47H13V48H14V47Z" fill="#CD3939"/>
<path d="M15 47H14V48H15V47Z" fill="#CD3939"/>
<path d="M15 48H14V49H15V48Z" fill="#CD3939"/>
<path d="M14 48H13V49H14V48Z" fill="#CD3939"/>
<path d="M15 46H14V47H15V46Z" fill="#CD3939"/>
<path d="M14 46H13V47H14V46Z" fill="#CD3939"/>
<path d="M13 47H12V48H13V47Z" fill="#CD3939"/>
<path d="M13 48H12V49H13V48Z" fill="#CD3939"/>
<path d="M13 46H12V47H13V46Z" fill="#CD3939"/>
<path d="M12 47H11V48H12V47Z" fill="#CD3939"/>
<path d="M12 48H11V49H12V48Z" fill="#CD3939"/>
<path d="M13 49H12V50H13V49Z" fill="#CD3939"/>
<path d="M12 49H11V50H12V49Z" fill="#CD3939"/>
<path d="M11 49H10V50H11V49Z" fill="#CD3939"/>
<path d="M11 50H10V51H11V50Z" fill="#CD3939"/>
<path d="M10 49H9V50H10V49Z" fill="#CD3939"/>
<path d="M12 46H11V47H12V46Z" fill="#CD3939"/>
<path d="M13 45H12V46H13V45Z" fill="#CD3939"/>
<path d="M13 44H12V45H13V44Z" fill="#CD3939"/>
<path d="M14 45H13V46H14V45Z" fill="#CD3939"/>
<path d="M14 44H13V45H14V44Z" fill="#CD3939"/>
<path d="M15 44H14V45H15V44Z" fill="#CD3939"/>
<path d="M12 45H11V46H12V45Z" fill="#CD3939"/>
<path d="M12 44H11V45H12V44Z" fill="#CD3939"/>
<path d="M11 47H10V48H11V47Z" fill="#CD3939"/>
<path d="M11 46H10V47H11V46Z" fill="#CD3939"/>
<path d="M11 45H10V46H11V45Z" fill="#CD3939"/>
<path d="M11 44H10V45H11V44Z" fill="#CD3939"/>
<path d="M13 43H12V44H13V43Z" fill="#CD3939"/>
<path d="M14 43H13V44H14V43Z" fill="#CD3939"/>
<path d="M12 43H11V44H12V43Z" fill="#CD3939"/>
<path d="M13 42H12V43H13V42Z" fill="#CD3939"/>
<path d="M12 42H11V43H12V42Z" fill="#CD3939"/>
<path d="M11 43H10V44H11V43Z" fill="#CD3939"/>
<path d="M10 45H9V46H10V45Z" fill="#CD3939"/>
<path d="M10 44H9V45H10V44Z" fill="#CD3939"/>
<path d="M10 43H9V44H10V43Z" fill="#CD3939"/>
<path d="M9 44H8V45H9V44Z" fill="#CD3939"/>
<path d="M9 43H8V44H9V43Z" fill="#CD3939"/>
<path d="M8 43H7V44H8V43Z" fill="#CD3939"/>
<path d="M9 42H8V43H9V42Z" fill="#CD3939"/>
<path d="M10 41H9V42H10V41Z" fill="#CD3939"/>
<path d="M24 48H23V49H24V48Z" fill="#CD3939"/>
<path d="M23 50H22V51H23V50Z" fill="#CD3939"/>
<path d="M23 51H22V52H23V51Z" fill="#CD3939"/>
<path d="M24 51H23V52H24V51Z" fill="#CD3939"/>
<path d="M27 49H26V50H27V49Z" fill="#CD3939"/>
<path d="M27 50H26V51H27V50Z" fill="#CD3939"/>
<path d="M26 50H25V51H26V50Z" fill="#CD3939"/>
<path d="M26 51H25V52H26V51Z" fill="#CD3939"/>
<path d="M27 51H26V52H27V51Z" fill="#CD3939"/>
<path d="M30 43H29V44H30V43Z" fill="#CD3939"/>
<path d="M32 43H31V44H32V43Z" fill="#CD3939"/>
<path d="M31 44H30V45H31V44Z" fill="#CD3939"/>
<path d="M32 44H31V45H32V44Z" fill="#CD3939"/>
<path d="M33 43H32V44H33V43Z" fill="#CD3939"/>
<path d="M33 44H32V45H33V44Z" fill="#CD3939"/>
<path d="M34 43H33V44H34V43Z" fill="#CD3939"/>
<path d="M34 44H33V45H34V44Z" fill="#CD3939"/>
<path d="M35 43H34V44H35V43Z" fill="#CD3939"/>
<path d="M35 44H34V45H35V44Z" fill="#CD3939"/>
<path d="M36 42H35V43H36V42Z" fill="#CD3939"/>
<path d="M36 43H35V44H36V43Z" fill="#CD3939"/>
<path d="M37 42H36V43H37V42Z" fill="#CD3939"/>
<path d="M37 43H36V44H37V43Z" fill="#CD3939"/>
<path d="M38 42H37V43H38V42Z" fill="#CD3939"/>
<path d="M38 43H37V44H38V43Z" fill="#CD3939"/>
<path d="M39 41H38V42H39V41Z" fill="#CD3939"/>
<path d="M40 41H39V42H40V41Z" fill="#CD3939"/>
<path d="M41 40H40V41H41V40Z" fill="#CD3939"/>
<path d="M42 40H41V41H42V40Z" fill="#CD3939"/>
<path d="M43 39H42V40H43V39Z" fill="#CD3939"/>
<path d="M39 42H38V43H39V42Z" fill="#CD3939"/>
<path d="M31 40H30V41H31V40Z" fill="#CD3939"/>
<path d="M31 39H30V40H31V39Z" fill="#CD3939"/>
<path d="M28 26H27V27H28V26Z" fill="#CD3939"/>
<path d="M29 26H28V27H29V26Z" fill="#CD3939"/>
<path d="M28 27H27V28H28V27Z" fill="#CD3939"/>
<path d="M29 27H28V28H29V27Z" fill="#CD3939"/>
<path d="M29 28H28V29H29V28Z" fill="#CD3939"/>
<path d="M30 26H29V27H30V26Z" fill="#CD3939"/>
<path d="M31 27H30V28H31V27Z" fill="#CD3939"/>
<path d="M32 28H31V29H32V28Z" fill="#CD3939"/>
<path d="M33 29H32V30H33V29Z" fill="#CD3939"/>
<path d="M34 31H33V32H34V31Z" fill="#CD3939"/>
<path d="M34 32H33V33H34V32Z" fill="#CD3939"/>
<path d="M33 32H32V33H33V32Z" fill="#CD3939"/>
<path d="M33 33H32V34H33V33Z" fill="#CD3939"/>
<path d="M32 33H31V34H32V33Z" fill="#CD3939"/>
<path d="M31 33H30V34H31V33Z" fill="#CD3939"/>
<path d="M33 34H32V35H33V34Z" fill="#CD3939"/>
<path d="M32 34H31V35H32V34Z" fill="#CD3939"/>
<path d="M32 36H31V37H32V36Z" fill="#CD3939"/>
<path d="M32 37H31V38H32V37Z" fill="#CD3939"/>
<path d="M31 34H30V35H31V34Z" fill="#CD3939"/>
<path d="M30 34H29V35H30V34Z" fill="#CD3939"/>
<path d="M32 35H31V36H32V35Z" fill="#CD3939"/>
<path d="M31 35H30V36H31V35Z" fill="#CD3939"/>
<path d="M26 26H25V27H26V26Z" fill="#CD3939"/>
<path d="M25 25H24V26H25V25Z" fill="#CD3939"/>
<path d="M14 23H13V24H14V23Z" fill="#CD3939"/>
<path d="M14 24H13V25H14V24Z" fill="#CD3939"/>
<path d="M13 24H12V25H13V24Z" fill="#CD3939"/>
<path d="M14 25H13V26H14V25Z" fill="#CD3939"/>
<path d="M13 25H12V26H13V25Z" fill="#CD3939"/>
<path d="M12 25H11V26H12V25Z" fill="#CD3939"/>
<path d="M11 25H10V26H11V25Z" fill="#CD3939"/>
<path d="M13 26H12V27H13V26Z" fill="#CD3939"/>
<path d="M12 26H11V27H12V26Z" fill="#CD3939"/>
<path d="M11 26H10V27H11V26Z" fill="#CD3939"/>
<path d="M10 26H9V27H10V26Z" fill="#CD3939"/>
<path d="M11 27H10V28H11V27Z" fill="#CD3939"/>
<path d="M10 27H9V28H10V27Z" fill="#CD3939"/>
<path d="M9 26H8V27H9V26Z" fill="#CD3939"/>
<path d="M9 27H8V28H9V27Z" fill="#CD3939"/>
<path d="M4 30H3V31H4V30Z" fill="#CD3939"/>
<path d="M4 31H3V32H4V31Z" fill="#CD3939"/>
<path d="M5 30H4V31H5V30Z" fill="#CD3939"/>
<path d="M5 31H4V32H5V31Z" fill="#CD3939"/>
<path d="M4 32H3V33H4V32Z" fill="#CD3939"/>
<path d="M5 32H4V33H5V32Z" fill="#CD3939"/>
<path d="M5 33H4V34H5V33Z" fill="#CD3939"/>
<path d="M5 34H4V35H5V34Z" fill="#CD3939"/>
<path d="M5 35H4V36H5V35Z" fill="#CD3939"/>
<path d="M6 31H5V32H6V31Z" fill="#CD3939"/>
<path d="M7 31H6V32H7V31Z" fill="#CD3939"/>
<path d="M6 32H5V33H6V32Z" fill="#CD3939"/>
<path d="M10 28H9V29H10V28Z" fill="#CD3939"/>
<path d="M17 22H16V23H17V22Z" fill="#CD3939"/>
<path d="M20 21H19V22H20V21Z" fill="#CD3939"/>
<path d="M21 21H20V22H21V21Z" fill="#CD3939"/>
<path d="M21 22H20V23H21V22Z" fill="#CD3939"/>
<path d="M22 21H21V22H22V21Z" fill="#CD3939"/>
<path d="M11 8H10V9H11V8Z" fill="#CD3939"/>
<path d="M11 9H10V10H11V9Z" fill="#CD3939"/>
<path d="M10 11H9V12H10V11Z" fill="#CD3939"/>
<path d="M10 16H9V17H10V16Z" fill="#CD3939"/>
<path d="M11 16H10V17H11V16Z" fill="#CD3939"/>
<path d="M12 16H11V17H12V16Z" fill="#CD3939"/>
<path d="M13 15H12V16H13V15Z" fill="#CD3939"/>
<path d="M17 23H16V24H17V23Z" fill="#E6CDAC"/>
<path d="M18 23H17V24H18V23Z" fill="#E6CDAC"/>
<path d="M17 24H16V25H17V24Z" fill="#E6CDAC"/>
<path d="M18 24H17V25H18V24Z" fill="#E6CDAC"/>
<path d="M17 25H16V26H17V25Z" fill="#E6CDAC"/>
<path d="M18 25H17V26H18V25Z" fill="#E6CDAC"/>
<path d="M17 26H16V27H17V26Z" fill="#E6CDAC"/>
<path d="M18 26H17V27H18V26Z" fill="#E6CDAC"/>
<path d="M17 27H16V28H17V27Z" fill="#E6CDAC"/>
<path d="M18 27H17V28H18V27Z" fill="#E6CDAC"/>
<path d="M17 28H16V29H17V28Z" fill="#E6CDAC"/>
<path d="M18 28H17V29H18V28Z" fill="#E6CDAC"/>
<path d="M17 29H16V30H17V29Z" fill="#E6CDAC"/>
<path d="M18 29H17V30H18V29Z" fill="#E6CDAC"/>
<path d="M17 30H16V31H17V30Z" fill="#E6CDAC"/>
<path d="M18 30H17V31H18V30Z" fill="#E6CDAC"/>
<path d="M17 31H16V32H17V31Z" fill="#E6CDAC"/>
<path d="M18 31H17V32H18V31Z" fill="#E6CDAC"/>
<path d="M17 32H16V33H17V32Z" fill="#E6CDAC"/>
<path d="M18 32H17V33H18V32Z" fill="#E6CDAC"/>
<path d="M17 33H16V34H17V33Z" fill="#E6CDAC"/>
<path d="M18 33H17V34H18V33Z" fill="#E6CDAC"/>
<path d="M17 34H16V35H17V34Z" fill="#E6CDAC"/>
<path d="M18 34H17V35H18V34Z" fill="#E6CDAC"/>
<path d="M17 35H16V36H17V35Z" fill="#E6CDAC"/>
<path d="M18 35H17V36H18V35Z" fill="#E6CDAC"/>
<path d="M19 24H18V25H19V24Z" fill="#E6CDAC"/>
<path d="M19 25H18V26H19V25Z" fill="#E6CDAC"/>
<path d="M19 26H18V27H19V26Z" fill="#E6CDAC"/>
<path d="M19 27H18V28H19V27Z" fill="#E6CDAC"/>
<path d="M19 28H18V29H19V28Z" fill="#E6CDAC"/>
<path d="M19 29H18V30H19V29Z" fill="#E6CDAC"/>
<path d="M19 30H18V31H19V30Z" fill="#E6CDAC"/>
<path d="M19 31H18V32H19V31Z" fill="#E6CDAC"/>
<path d="M19 32H18V33H19V32Z" fill="#E6CDAC"/>
<path d="M19 33H18V34H19V33Z" fill="#E6CDAC"/>
<path d="M20 26H19V27H20V26Z" fill="#E6CDAC"/>
<path d="M20 27H19V28H20V27Z" fill="#E6CDAC"/>
<path d="M20 28H19V29H20V28Z" fill="#E6CDAC"/>
<path d="M20 29H19V30H20V29Z" fill="#E6CDAC"/>
<path d="M20 30H19V31H20V30Z" fill="#E6CDAC"/>
<path d="M20 31H19V32H20V31Z" fill="#E6CDAC"/>
<path d="M21 29H20V30H21V29Z" fill="#E6CDAC"/>
<path d="M21 30H20V31H21V30Z" fill="#E6CDAC"/>
<path d="M21 31H20V32H21V31Z" fill="#E6CDAC"/>
<path d="M20 32H19V33H20V32Z" fill="#E6CDAC"/>
<path d="M20 33H19V34H20V33Z" fill="#E6CDAC"/>
<path d="M19 34H18V35H19V34Z" fill="#E6CDAC"/>
<path d="M19 35H18V36H19V35Z" fill="#E6CDAC"/>
<path d="M17 36H16V37H17V36Z" fill="#E6CDAC"/>
<path d="M16 25H15V26H16V25Z" fill="#E6CDAC"/>
<path d="M16 26H15V27H16V26Z" fill="#E6CDAC"/>
<path d="M16 27H15V28H16V27Z" fill="#E6CDAC"/>
<path d="M16 28H15V29H16V28Z" fill="#E6CDAC"/>
<path d="M16 29H15V30H16V29Z" fill="#E6CDAC"/>
<path d="M16 30H15V31H16V30Z" fill="#E6CDAC"/>
<path d="M16 31H15V32H16V31Z" fill="#E6CDAC"/>
<path d="M16 32H15V33H16V32Z" fill="#E6CDAC"/>
<path d="M16 33H15V34H16V33Z" fill="#E6CDAC"/>
<path d="M16 34H15V35H16V34Z" fill="#E6CDAC"/>
<path d="M16 35H15V36H16V35Z" fill="#E6CDAC"/>
<path d="M16 36H15V37H16V36Z" fill="#E6CDAC"/>
<path d="M15 27H14V28H15V27Z" fill="#E6CDAC"/>
<path d="M15 28H14V29H15V28Z" fill="#E6CDAC"/>
<path d="M15 29H14V30H15V29Z" fill="#E6CDAC"/>
<path d="M15 30H14V31H15V30Z" fill="#E6CDAC"/>
<path d="M15 31H14V32H15V31Z" fill="#E6CDAC"/>
<path d="M15 32H14V33H15V32Z" fill="#E6CDAC"/>
<path d="M15 33H14V34H15V33Z" fill="#E6CDAC"/>
<path d="M15 34H14V35H15V34Z" fill="#E6CDAC"/>
<path d="M15 35H14V36H15V35Z" fill="#E6CDAC"/>
<path d="M15 36H14V37H15V36Z" fill="#E6CDAC"/>
<path d="M14 29H13V30H14V29Z" fill="#E6CDAC"/>
<path d="M14 30H13V31H14V30Z" fill="#E6CDAC"/>
<path d="M14 31H13V32H14V31Z" fill="#E6CDAC"/>
<path d="M14 32H13V33H14V32Z" fill="#E6CDAC"/>
<path d="M14 33H13V34H14V33Z" fill="#E6CDAC"/>
<path d="M14 34H13V35H14V34Z" fill="#E6CDAC"/>
<path d="M14 35H13V36H14V35Z" fill="#E6CDAC"/>
<path d="M14 36H13V37H14V36Z" fill="#E6CDAC"/>
<path d="M17 37H16V38H17V37Z" fill="#E6CDAC"/>
<path d="M16 37H15V38H16V37Z" fill="#E6CDAC"/>
<path d="M15 37H14V38H15V37Z" fill="#E6CDAC"/>
<path d="M14 37H13V38H14V37Z" fill="#E6CDAC"/>
<path d="M13 32H12V33H13V32Z" fill="#E6CDAC"/>
<path d="M13 33H12V34H13V33Z" fill="#E6CDAC"/>
<path d="M13 34H12V35H13V34Z" fill="#E6CDAC"/>
<path d="M13 35H12V36H13V35Z" fill="#E6CDAC"/>
<path d="M13 36H12V37H13V36Z" fill="#E6CDAC"/>
<path d="M18 36H17V37H18V36Z" fill="#E6CDAC"/>
<path d="M26 1H25V2H26V1Z" fill="#FA524A"/>
<path d="M25 2H24V3H25V2Z" fill="#FA524A"/>
<path d="M24 3H23V4H24V3Z" fill="#FA524A"/>
<path d="M23 3H22V4H23V3Z" fill="#FA524A"/>
<path d="M22 3H21V4H22V3Z" fill="#FA524A"/>
<path d="M21 3H20V4H21V3Z" fill="#FA524A"/>
<path d="M23 4H22V5H23V4Z" fill="#FA524A"/>
<path d="M22 4H21V5H22V4Z" fill="#FA524A"/>
<path d="M21 4H20V5H21V4Z" fill="#FA524A"/>
<path d="M20 4H19V5H20V4Z" fill="#FA524A"/>
<path d="M19 4H18V5H19V4Z" fill="#FA524A"/>
<path d="M18 4H17V5H18V4Z" fill="#FA524A"/>
<path d="M20 5H19V6H20V5Z" fill="#FA524A"/>
<path d="M19 5H18V6H19V5Z" fill="#FA524A"/>
<path d="M18 5H17V6H18V5Z" fill="#FA524A"/>
<path d="M20 6H19V7H20V6Z" fill="#FA524A"/>
<path d="M21 5H20V6H21V5Z" fill="#FA524A"/>
<path d="M21 6H20V7H21V6Z" fill="#FA524A"/>
<path d="M19 6H18V7H19V6Z" fill="#FA524A"/>
<path d="M18 6H17V7H18V6Z" fill="#FA524A"/>
<path d="M17 4H16V5H17V4Z" fill="#FA524A"/>
<path d="M17 5H16V6H17V5Z" fill="#FA524A"/>
<path d="M16 4H15V5H16V4Z" fill="#FA524A"/>
<path d="M16 5H15V6H16V5Z" fill="#FA524A"/>
<path d="M15 5H14V6H15V5Z" fill="#FA524A"/>
<path d="M15 6H14V7H15V6Z" fill="#FA524A"/>
<path d="M16 7H15V8H16V7Z" fill="#FA524A"/>
<path d="M16 8H15V9H16V8Z" fill="#FA524A"/>
<path d="M14 10H13V11H14V10Z" fill="#FA524A"/>
<path d="M14 11H13V12H14V11Z" fill="#FA524A"/>
<path d="M14 12H13V13H14V12Z" fill="#FA524A"/>
<path d="M14 13H13V14H14V13Z" fill="#FA524A"/>
<path d="M15 11H14V12H15V11Z" fill="#FA524A"/>
<path d="M15 12H14V13H15V12Z" fill="#FA524A"/>
<path d="M15 13H14V14H15V13Z" fill="#FA524A"/>
<path d="M16 12H15V13H16V12Z" fill="#FA524A"/>
<path d="M16 13H15V14H16V13Z" fill="#FA524A"/>
<path d="M17 12H16V13H17V12Z" fill="#FA524A"/>
<path d="M17 13H16V14H17V13Z" fill="#FA524A"/>
<path d="M18 12H17V13H18V12Z" fill="#FA524A"/>
<path d="M18 13H17V14H18V13Z" fill="#FA524A"/>
<path d="M19 12H18V13H19V12Z" fill="#FA524A"/>
<path d="M19 13H18V14H19V13Z" fill="#FA524A"/>
<path d="M14 14H13V15H14V14Z" fill="#FA524A"/>
<path d="M15 14H14V15H15V14Z" fill="#FA524A"/>
<path d="M16 14H15V15H16V14Z" fill="#FA524A"/>
<path d="M17 14H16V15H17V14Z" fill="#FA524A"/>
<path d="M18 14H17V15H18V14Z" fill="#FA524A"/>
<path d="M19 14H18V15H19V14Z" fill="#FA524A"/>
<path d="M20 12H19V13H20V12Z" fill="#FA524A"/>
<path d="M20 13H19V14H20V13Z" fill="#FA524A"/>
<path d="M21 12H20V13H21V12Z" fill="#FA524A"/>
<path d="M21 11H20V12H21V11Z" fill="#FA524A"/>
<path d="M21 10H20V11H21V10Z" fill="#FA524A"/>
<path d="M21 9H20V10H21V9Z" fill="#FA524A"/>
<path d="M21 8H20V9H21V8Z" fill="#FA524A"/>
<path d="M21 7H20V8H21V7Z" fill="#FA524A"/>
<path d="M22 6H21V7H22V6Z" fill="#FA524A"/>
<path d="M22 12H21V13H22V12Z" fill="#FA524A"/>
<path d="M22 11H21V12H22V11Z" fill="#FA524A"/>
<path d="M22 10H21V11H22V10Z" fill="#FA524A"/>
<path d="M22 9H21V10H22V9Z" fill="#FA524A"/>
<path d="M22 8H21V9H22V8Z" fill="#FA524A"/>
<path d="M22 7H21V8H22V7Z" fill="#FA524A"/>
<path d="M23 12H22V13H23V12Z" fill="#FA524A"/>
<path d="M23 11H22V12H23V11Z" fill="#FA524A"/>
<path d="M23 10H22V11H23V10Z" fill="#FA524A"/>
<path d="M23 9H22V10H23V9Z" fill="#FA524A"/>
<path d="M24 11H23V12H24V11Z" fill="#FA524A"/>
<path d="M24 10H23V11H24V10Z" fill="#FA524A"/>
<path d="M24 9H23V10H24V9Z" fill="#FA524A"/>
<path d="M23 8H22V9H23V8Z" fill="#FA524A"/>
<path d="M23 7H22V8H23V7Z" fill="#FA524A"/>
<path d="M21 13H20V14H21V13Z" fill="#FA524A"/>
<path d="M14 5H13V6H14V5Z" fill="#FA524A"/>
<path d="M14 6H13V7H14V6Z" fill="#FA524A"/>
<path d="M14 7H13V8H14V7Z" fill="#FA524A"/>
<path d="M13 6H12V7H13V6Z" fill="#FA524A"/>
<path d="M13 7H12V8H13V7Z" fill="#FA524A"/>
<path d="M12 7H11V8H12V7Z" fill="#FA524A"/>
<path d="M11 7H10V8H11V7Z" fill="#FA524A"/>
<path d="M12 8H11V9H12V8Z" fill="#FA524A"/>
<path d="M12 9H11V10H12V9Z" fill="#FA524A"/>
<path d="M12 10H11V11H12V10Z" fill="#FA524A"/>
<path d="M12 11H11V12H12V11Z" fill="#FA524A"/>
<path d="M12 12H11V13H12V12Z" fill="#FA524A"/>
<path d="M11 11H10V12H11V11Z" fill="#FA524A"/>
<path d="M11 12H10V13H11V12Z" fill="#FA524A"/>
<path d="M10 13H9V14H10V13Z" fill="#FA524A"/>
<path d="M10 14H9V15H10V14Z" fill="#FA524A"/>
<path d="M10 15H9V16H10V15Z" fill="#FA524A"/>
<path d="M9 14H8V15H9V14Z" fill="#FA524A"/>
<path d="M9 15H8V16H9V15Z" fill="#FA524A"/>
<path d="M11 15H10V16H11V15Z" fill="#FA524A"/>
<path d="M12 13H11V14H12V13Z" fill="#FA524A"/>
<path d="M12 14H11V15H12V14Z" fill="#FA524A"/>
<path d="M12 15H11V16H12V15Z" fill="#FA524A"/>
<path d="M13 8H12V9H13V8Z" fill="#FA524A"/>
<path d="M13 9H12V10H13V9Z" fill="#FA524A"/>
<path d="M13 10H12V11H13V10Z" fill="#FA524A"/>
<path d="M13 11H12V12H13V11Z" fill="#FA524A"/>
<path d="M13 12H12V13H13V12Z" fill="#FA524A"/>
<path d="M13 13H12V14H13V13Z" fill="#FA524A"/>
<path d="M13 14H12V15H13V14Z" fill="#FA524A"/>
<path d="M17 6H16V7H17V6Z" fill="#FA524A"/>
<path d="M18 7H17V8H18V7Z" fill="#FA524A"/>
<path d="M17 7H16V8H17V7Z" fill="#FA524A"/>
<path d="M7 27H6V28H7V27Z" fill="#FA524A"/>
<path d="M8 27H7V28H8V27Z" fill="#FA524A"/>
<path d="M8 28H7V29H8V28Z" fill="#FA524A"/>
<path d="M9 28H8V29H9V28Z" fill="#FA524A"/>
<path d="M6 28H5V29H6V28Z" fill="#FA524A"/>
<path d="M7 28H6V29H7V28Z" fill="#FA524A"/>
<path d="M8 29H7V30H8V29Z" fill="#FA524A"/>
<path d="M9 29H8V30H9V29Z" fill="#FA524A"/>
<path d="M6 29H5V30H6V29Z" fill="#FA524A"/>
<path d="M6 30H5V31H6V30Z" fill="#FA524A"/>
<path d="M7 29H6V30H7V29Z" fill="#FA524A"/>
<path d="M23 22H22V23H23V22Z" fill="#FA524A"/>
<path d="M20 22H19V23H20V22Z" fill="#FA524A"/>
<path d="M19 22H18V23H19V22Z" fill="#FA524A"/>
<path d="M18 22H17V23H18V22Z" fill="#FA524A"/>
<path d="M21 23H20V24H21V23Z" fill="#FA524A"/>
<path d="M20 23H19V24H20V23Z" fill="#FA524A"/>
<path d="M19 23H18V24H19V23Z" fill="#FA524A"/>
<path d="M22 24H21V25H22V24Z" fill="#FA524A"/>
<path d="M21 24H20V25H21V24Z" fill="#FA524A"/>
<path d="M20 24H19V25H20V24Z" fill="#FA524A"/>
<path d="M22 25H21V26H22V25Z" fill="#FA524A"/>
<path d="M21 25H20V26H21V25Z" fill="#FA524A"/>
<path d="M20 25H19V26H20V25Z" fill="#FA524A"/>
<path d="M23 26H22V27H23V26Z" fill="#FA524A"/>
<path d="M22 26H21V27H22V26Z" fill="#FA524A"/>
<path d="M21 26H20V27H21V26Z" fill="#FA524A"/>
<path d="M23 27H22V28H23V27Z" fill="#FA524A"/>
<path d="M22 27H21V28H22V27Z" fill="#FA524A"/>
<path d="M23 28H22V29H23V28Z" fill="#FA524A"/>
<path d="M30 27H29V28H30V27Z" fill="#FA524A"/>
<path d="M30 28H29V29H30V28Z" fill="#FA524A"/>
<path d="M30 29H29V30H30V29Z" fill="#FA524A"/>
<path d="M31 28H30V29H31V28Z" fill="#FA524A"/>
<path d="M31 29H30V30H31V29Z" fill="#FA524A"/>
<path d="M31 30H30V31H31V30Z" fill="#FA524A"/>
<path d="M32 29H31V30H32V29Z" fill="#FA524A"/>
<path d="M32 30H31V31H32V30Z" fill="#FA524A"/>
<path d="M32 31H31V32H32V31Z" fill="#FA524A"/>
<path d="M32 32H31V33H32V32Z" fill="#FA524A"/>
<path d="M33 30H32V31H33V30Z" fill="#FA524A"/>
<path d="M33 31H32V32H33V31Z" fill="#FA524A"/>
<path d="M22 28H21V29H22V28Z" fill="#FA524A"/>
<path d="M22 29H21V30H22V29Z" fill="#FA524A"/>
<path d="M21 27H20V28H21V27Z" fill="#FA524A"/>
<path d="M25 24H24V25H25V24Z" fill="#FA524A"/>
<path d="M26 24H25V25H26V24Z" fill="#FA524A"/>
<path d="M24 24H23V25H24V24Z" fill="#FA524A"/>
<path d="M23 24H22V25H23V24Z" fill="#FA524A"/>
<path d="M24 23H23V24H24V23Z" fill="#FA524A"/>
<path d="M25 23H24V24H25V23Z" fill="#FA524A"/>
<path d="M23 23H22V24H23V23Z" fill="#FA524A"/>
<path d="M22 23H21V24H22V23Z" fill="#FA524A"/>
<path d="M8 41H7V42H8V41Z" fill="#FA524A"/>
<path d="M8 42H7V43H8V42Z" fill="#FA524A"/>
<path d="M11 38H10V39H11V38Z" fill="#FA524A"/>
<path d="M11 39H10V40H11V39Z" fill="#FA524A"/>
<path d="M12 40H11V41H12V40Z" fill="#FA524A"/>
<path d="M12 41H11V42H12V41Z" fill="#FA524A"/>
<path d="M11 40H10V41H11V40Z" fill="#FA524A"/>
<path d="M11 41H10V42H11V41Z" fill="#FA524A"/>
<path d="M9 41H8V42H9V41Z" fill="#FA524A"/>
<path d="M10 42H9V43H10V42Z" fill="#FA524A"/>
<path d="M11 42H10V43H11V42Z" fill="#FA524A"/>
<path d="M9 47H8V48H9V47Z" fill="#FA524A"/>
<path d="M10 47H9V48H10V47Z" fill="#FA524A"/>
<path d="M8 48H7V49H8V48Z" fill="#FA524A"/>
<path d="M9 48H8V49H9V48Z" fill="#FA524A"/>
<path d="M10 48H9V49H10V48Z" fill="#FA524A"/>
<path d="M11 48H10V49H11V48Z" fill="#FA524A"/>
<path d="M24 50H23V51H24V50Z" fill="#FA524A"/>
<path d="M25 50H24V51H25V50Z" fill="#FA524A"/>
<path d="M24 49H23V50H24V49Z" fill="#FA524A"/>
<path d="M25 49H24V50H25V49Z" fill="#FA524A"/>
<path d="M26 49H25V50H26V49Z" fill="#FA524A"/>
<path d="M23 46H22V47H23V46Z" fill="#FA524A"/>
<path d="M24 46H23V47H24V46Z" fill="#FA524A"/>
<path d="M25 46H24V47H25V46Z" fill="#FA524A"/>
<path d="M22 45H21V46H22V45Z" fill="#FA524A"/>
<path d="M23 45H22V46H23V45Z" fill="#FA524A"/>
<path d="M24 45H23V46H24V45Z" fill="#FA524A"/>
<path d="M22 44H21V45H22V44Z" fill="#FA524A"/>
<path d="M23 44H22V45H23V44Z" fill="#FA524A"/>
<path d="M24 44H23V45H24V44Z" fill="#FA524A"/>
<path d="M24 43H23V44H24V43Z" fill="#FA524A"/>
<path d="M25 45H24V46H25V45Z" fill="#FA524A"/>
<path d="M25 44H24V45H25V44Z" fill="#FA524A"/>
<path d="M25 43H24V44H25V43Z" fill="#FA524A"/>
<path d="M26 45H25V46H26V45Z" fill="#FA524A"/>
<path d="M26 44H25V45H26V44Z" fill="#FA524A"/>
<path d="M26 43H25V44H26V43Z" fill="#FA524A"/>
<path d="M25 42H24V43H25V42Z" fill="#FA524A"/>
<path d="M26 42H25V43H26V42Z" fill="#FA524A"/>
<path d="M25 41H24V42H25V41Z" fill="#FA524A"/>
<path d="M26 41H25V42H26V41Z" fill="#FA524A"/>
<path d="M25 40H24V41H25V40Z" fill="#FA524A"/>
<path d="M26 40H25V41H26V40Z" fill="#FA524A"/>
<path d="M25 39H24V40H25V39Z" fill="#FA524A"/>
<path d="M24 41H23V42H24V41Z" fill="#FA524A"/>
<path d="M24 40H23V41H24V40Z" fill="#FA524A"/>
<path d="M23 40H22V41H23V40Z" fill="#FA524A"/>
<path d="M24 39H23V40H24V39Z" fill="#FA524A"/>
<path d="M26 39H25V40H26V39Z" fill="#FA524A"/>
<path d="M27 43H26V44H27V43Z" fill="#FA524A"/>
<path d="M27 42H26V43H27V42Z" fill="#FA524A"/>
<path d="M27 41H26V42H27V41Z" fill="#FA524A"/>
<path d="M27 40H26V41H27V40Z" fill="#FA524A"/>
<path d="M27 39H26V40H27V39Z" fill="#FA524A"/>
<path d="M28 44H27V45H28V44Z" fill="#FA524A"/>
<path d="M28 43H27V44H28V43Z" fill="#FA524A"/>
<path d="M28 42H27V43H28V42Z" fill="#FA524A"/>
<path d="M28 41H27V42H28V41Z" fill="#FA524A"/>
<path d="M33 42H32V43H33V42Z" fill="#FA524A"/>
<path d="M28 40H27V41H28V40Z" fill="#FA524A"/>
<path d="M32 42H31V43H32V42Z" fill="#FA524A"/>
<path d="M35 42H34V43H35V42Z" fill="#FA524A"/>
<path d="M34 42H33V43H34V42Z" fill="#FA524A"/>
<path d="M35 41H34V42H35V41Z" fill="#FA524A"/>
<path d="M34 41H33V42H34V41Z" fill="#FA524A"/>
<path d="M37 41H36V42H37V41Z" fill="#FA524A"/>
<path d="M36 41H35V42H36V41Z" fill="#FA524A"/>
<path d="M32 41H31V42H32V41Z" fill="#FA524A"/>
<path d="M38 41H37V42H38V41Z" fill="#FA524A"/>
<path d="M39 40H38V41H39V40Z" fill="#FA524A"/>
<path d="M40 40H39V41H40V40Z" fill="#FA524A"/>
<path d="M40 39H39V40H40V39Z" fill="#FA524A"/>
<path d="M41 39H40V40H41V39Z" fill="#FA524A"/>
<path d="M42 38H41V39H42V38Z" fill="#FA524A"/>
<path d="M42 39H41V40H42V39Z" fill="#FA524A"/>
<path d="M43 38H42V39H43V38Z" fill="#FA524A"/>
<path d="M43 37H42V38H43V37Z" fill="#FA524A"/>
<path d="M44 37H43V38H44V37Z" fill="#FA524A"/>
<path d="M44 36H43V37H44V36Z" fill="#FA524A"/>
<path d="M38 40H37V41H38V40Z" fill="#FA524A"/>
<path d="M25 38H24V39H25V38Z" fill="#FA524A"/>
<path d="M26 38H25V39H26V38Z" fill="#FA524A"/>
<path d="M10 40H9V41H10V40Z" fill="#FA524A"/>
</svg>
