<svg width="87" height="70" viewBox="0 0 87 70" fill="none" xmlns="http://www.w3.org/2000/svg">
<rect x="15" y="49" width="1" height="1" fill="#D9D9D9"/>
<path fill-rule="evenodd" clip-rule="evenodd" d="M15 50H16V52H15V50ZM14 52H15V53H14V52ZM14 52H13V51H14V52ZM23 60H24V61H23V60ZM26 61H25V62H26V61ZM40 67H41V68H40V67ZM44 68H43V69H44V68ZM45 66H46V67H45V66ZM46 60H45V61H46V60Z" fill="white"/>
<path fill-rule="evenodd" clip-rule="evenodd" d="M22 60H23V61H22V60ZM23 61H24V62H23V61ZM26 62H25V63H26V62ZM41 68H42V69H41V68ZM42 69H44V70H42V69ZM45 68V67H47V68H45ZM46 61H45V62H46V61Z" fill="#626262"/>
<path fill-rule="evenodd" clip-rule="evenodd" d="M9 53H10V54H11H12V56H11V57H10V58H9V59H8V60H7V58H8V56H9V53ZM7 60V61H6V60H7ZM24 57H23V59H24V58H25V60H26V59H27V57H28V56H27V57H26V56H25H24V57ZM26 57V58H25V57H26ZM40 64H39V65H40V64ZM41 62H40V64H41V67H42V68H43V67H42V64H43V62H42V59H41V62ZM41 62H42V64H41V62ZM45 62H44V65H45V62Z" fill="#B48B62"/>
<path fill-rule="evenodd" clip-rule="evenodd" d="M17 48H16V49H17V48ZM10 53H11V54H10V53ZM13 54H12V55H13V54ZM12 56H13V57H12V56ZM11 58V57H12V58H11ZM11 58V59H10V58H11ZM9 59H8V60H7V61H6V62H7V61H8V60H9V59ZM23 56H22V57H23V56ZM22 58H23V59H24V60H23H22V58ZM25 60H26V61H25V60ZM29 55H25V56H26V57H27V56H28V57H29V56V55ZM39 65H40V67H39V65ZM43 64H42V67H43V64ZM44 65H45V66H44V65ZM43 62V63H44V62V58H42H41V59H42V62H43ZM45 59H46V60H45V59Z" fill="#8B624A"/>
<path fill-rule="evenodd" clip-rule="evenodd" d="M16 48H15V49H14V50H13V51H12V53H11V52H9V53H11V54H13V55H14V54H13V53V51H14V50H15V49H16V48ZM9 55H8V56H9V55ZM7 57H8V58H7V57ZM7 58V60H6V58H7ZM6 61H5V63H6V61ZM9 58H10V59H9V58ZM10 60V59H11V60H10ZM10 60V61H9V60H10ZM21 56H22V58H21V56ZM25 55H22V56H25V55ZM25 55H27V54H25V55ZM26 57H25V58H24V59H25V58H26V57ZM28 57H27V58H28V57ZM29 56H30V57H29V56ZM44 57H42V58H44V62H45V64H46V62H45V58H44V57ZM43 63H44V66H43V63ZM44 66H45V67H44V66ZM41 67H42V68H41V67ZM41 64V67H40V64H41ZM41 64H42V62H41V64ZM39 64H38V65H39V64Z" fill="#523929"/>
<path fill-rule="evenodd" clip-rule="evenodd" d="M6 5H5V6H4V7H5V6H6V5ZM6 8H5V11H4V13H5V16H6V13H5V11H6V8ZM0 16H1V19H0V16ZM2 24H1V19H2V24ZM2 24H3V26H2V24ZM87 21H86V22H87V21ZM85 23H86V24H85V23ZM84 27H83V29H82V30H81V31H79V32H81V31H82V30H83V29H84V27ZM77 32H76V33H77V32ZM73 33H74V34H73V33ZM72 36V35H70V36H67V37H66V38H64V39H66V38H67V37H70V36H72ZM63 39H62V40H63V39ZM59 41H60V42H59V41ZM55 42H54V43H55V42ZM50 43H51V44H50V43ZM49 44H48V45H49V44ZM45 45H46V46H45V45ZM43 46H44V47H43V46ZM42 47H41V48H40V49H41V48H42V47ZM38 49H37V50H34V51H37V50H38V49ZM24 50H25V52H24V50ZM25 53V52H26V53H25ZM25 53V54H24V53H25ZM21 51H22V53H21V51ZM28 51H27V52H28V51ZM28 54H29V55H28V54ZM31 55H30V56H31V55ZM33 56H36V57H33V56ZM36 56V55H37V56H36ZM40 57H41V58H40V57ZM45 54H44V55H45V54ZM46 47H45V48H46V47ZM81 24H82V25H81V24ZM80 25H81V26H80V25ZM79 24H80V25H79V24ZM79 24H78V23H79V24ZM77 25H78V26H77V25ZM75 26H77V27H75V26ZM73 27H75V28H73V27ZM71 29V28H73V29H71ZM70 30V29H71V30H70ZM69 30H70V32H69V30ZM68 29H69V30H68V29ZM67 29V28H68V29H67ZM66 31V29H67V31H66ZM65 32V31H66V32H65ZM65 32H64H62V33H61V34H60V35H57V36H56V37H55V38H53V37H50V38H49V39H48V40H47V41H48V40H49V39H50V38H53V39H55V38H56V37H57V36H60V35H61V34H62V33H64V34H65V32ZM46 38H47V39H46V38ZM45 39H46V40H45V39ZM44 40H45V42H44V40ZM43 42H44V43H43V42ZM42 43H43V44H42V43ZM42 43V42H40V43H38V44H37V45H36V46H37V45H38V44H40V43H42ZM38 41H36V40H31V41H29V42H31V41H36V42H38V41ZM23 39H25V40H23V39ZM25 40H26V42H25V40ZM27 42H28V43H27V42ZM26 43H25V44H26V43ZM22 45H25V46H22V45ZM22 44V45H21V44H22ZM21 44H20V43H21V44ZM21 46H22V47H21V46ZM13 37H14V38H13V37ZM12 36H13V37H12V36ZM12 36V35H11V36H12ZM10 34H9V35H10V34ZM15 32H16V33H15V32ZM15 32H14V30H15V32ZM11 29H12V30H11V29ZM7 31H6V32H7V31ZM8 28H9V27H10V28V29H8V28ZM10 26H11V27H10V26ZM10 26V25H8V24H9V23H8V24H7V25H8V26H10ZM7 21H8V22H7V21ZM4 28H3V29H4V28ZM5 17H4V20H5V21H6V20H5V17ZM2 10H3V11H2V10ZM2 13H1V14H2V13Z" fill="#734110"/>
<path fill-rule="evenodd" clip-rule="evenodd" d="M3 7H4V8H3V7ZM3 8V10H2V8H3ZM2 11H1V13H2V11ZM0 14H1V16H0V14ZM3 26H2V28H3V26ZM3 29H4V30H3V29ZM6 30H5V31H6V30ZM6 32H7V33H6V32ZM8 34H7V33H8V34ZM8 34H9V35H8V34ZM11 35H10V36H11V37H12V36H11V35ZM15 50H14V52H13V53H14V52H15V50ZM9 53H8V55H9V53ZM7 56H8V57H7V56ZM6 60H5V61H6V60ZM6 62H7V63H6V62ZM8 61H7V62H8V61ZM9 60V61H8V60H9ZM9 60V59H10V60H9ZM10 57H11V58H10V57ZM12 58H11V59H12V58ZM12 57V58H13V57H14V56H17V55H19V54H20V53H21V52H20V53H19V54H17V55H12V56H11V57H12ZM12 57H13V56H12V57ZM19 45H18V46H19V47H21V46H22V45H21V44H20V43H19V44H20V45H21V46H19V45ZM22 51H24V52V53H23V52H22V51ZM25 54V55H23V54H25ZM24 56H23V57H22V58H21V60H22V58H23V57H24V56ZM24 59H25V62H24V59ZM27 59H26V62H27V59ZM28 58V59H27V58H28ZM28 58V57H29V58H28ZM29 55H30V56H29V55ZM30 56H33V57H30V56ZM28 54H27V53H26V54H27V55H28V54ZM27 50H25V51H27V50ZM24 44H25V45H24V44ZM27 42H26V43H27V42ZM28 41H29V42H28V41ZM36 56H38V57H40V58H37V57H36V56ZM40 62V58H41V62H40ZM40 62V64H39V62H40ZM38 65H39V67H38V65ZM40 68H39V67H40V68ZM40 68H41V69H40V68ZM43 68H42V69H43V68ZM43 68H44V66H43V68ZM46 64H45V66H46V67H47V66H46V64ZM47 59H46V58H45V57H44V56H45V55H44V56H43V57H44V58H45V59H46V61H47V59ZM38 41H39V42H38V41ZM39 42H40V43H39V42ZM38 49H40V50H38V49ZM43 47H42V48H43V47ZM44 46H46V47H44V46ZM47 48H46V52H45V54H46V52H47V48ZM48 45H46V46H48V45ZM49 44H50V45H49V44ZM54 43H51V44H54V43ZM55 42H59V43H55V42ZM61 41H60V42H61V41ZM61 41H62V40H61V41ZM64 39H63V40H64V39ZM72 34H74V35H72V34ZM77 33H74V34H77V33ZM77 33H79V32H77V33ZM85 26H84V27H85V26ZM85 26H86V24H85V26ZM87 22H86V23H87V22Z" fill="black"/>
<path fill-rule="evenodd" clip-rule="evenodd" d="M80 26H78V28H77V29H76V28H74V29H73V32H74V31H76V30H78V29H80V28H81V27H80V26ZM67 31H68V32H69V34H68V35H66V33H67V31ZM63 35H65V36H64V37H62V36H63V35ZM29 42H32H33V43H34V45H32V46H29V45H28V43H29V42Z" fill="#FFEE62"/>
<path fill-rule="evenodd" clip-rule="evenodd" d="M48 12H46V13H45V16V18H46V16H47V15H48V14H49V13H48V12ZM40 14H41V15H40V14ZM41 15H42V17H44V18H42V20H41V22V23H40V22H39V20V19H40V18H41V15ZM72 22H74V24V25H73V24H72V22ZM20 33H21V34H20V33ZM20 34V36V37H21V39H19V41H18V42H17V43H16V42H15V43H14V42H13V40H16V41H17V40H18V38H19V37V36H18V34H20ZM9 42H11V44H10V45H11H12V46H11V49H10V50H9V51H8V48H9V45H8V43H9V42ZM65 29H63V31H62V32H64V31H65V29ZM57 34H55V35H54V36H53V37H54V36H56V35H57V34ZM36 25H38V24H39V25V26H40V27H41V26H42V24H43V23H45V24H44V25H47V26H45V27H44V28H43V29H40H39V30H37V29H36V25ZM45 23V22H47V23H45Z" fill="#FFD562"/>
<path fill-rule="evenodd" clip-rule="evenodd" d="M51 10H52V11V13H50V11H51V10ZM49 14H50V13H49V12H48V13H49V14ZM49 14V15H48V14H49ZM46 12H45V13H44V15H45V13H46V12ZM40 13H38V15H40V16H41V15H40V13ZM41 17H40V18H41V17ZM52 19V20H51V21H49V20H50V19H52ZM47 21H48V22H47V21ZM12 23H14V25H13V28V29H12V28H11V26H10V25H11H12V23ZM20 32H22V33H20V32ZM20 34H19V33H20V34ZM20 34H21V35H20V34ZM21 36H20V37H21V36ZM19 39H20V40H19V39ZM18 42H17V43H16V42H15V43H16V44H17V43H18V42ZM10 41H13V42H14V44H13V46H12V45H10V44H11V42H10V41ZM12 46V47H11V46H12ZM38 35H37V34H36V36H37V37H38V35ZM39 30H38V31H39V30ZM39 30H40V29H39V30ZM36 25H35V28H36V25ZM41 30V29H43V30H41ZM43 29V28H44V29H43ZM45 26H46V27H45V26ZM48 25H47V26H48V25ZM44 24H45V25H44V24ZM45 23V22H44V21H42V20H43V19H46V18H45V16H44V18H43H42V20H41V21V23H40V24H39V26H40V27H41V26H42V24H43V23H44H45ZM45 23V24H46V23H45ZM47 28H46V29H45V31H46V30H47V28ZM47 16H46V17H47V16ZM53 37V36H54V37H56V36H57V35H58V34H57V33H56V34H57V35H56V36H54V35H53V34H52V36H51V37H53ZM61 32H62V33H61V32ZM65 31H64V32H65V31ZM62 29H63V31H62V29ZM65 28H63V29H65V30H66V28H65ZM70 22H69V24H70V26H71V27H73V26H74V25H75V23H74V25H73V24H72V23H70V22ZM74 21H72V22H74V21ZM76 24H77V26H76V24ZM79 22V21H78V22H77V24H78V23H79V24H80V22H79Z" fill="#FFA44A"/>
<path fill-rule="evenodd" clip-rule="evenodd" d="M53 8H54V10H53V13H54V16H52V14H51V15H50V16H49V17H48V19V20H49V21H51V20H52V19H50V18H53V19H54V20H53V21H52V22H50V25H52V26H53V27H52V28H50V27H49V28H48V29H50V32H49V33H47V32V31H46V30H47V29V28H46V29H45V30V31H46V32H45V34H44V35H42H41V34H42V33H43V32H44V30H43V29H44V27H46V26H48V25H46H45V24H46V23H47V22H48V21H47V22H44V21H43H42V20H43V19H46V17H47V15H49V14H50V13H52V9H53V8ZM44 13V11H43V10H44H45V9H47V11H49V10V9H50V10H51V11H50V13H49V12H47H45V13H44ZM44 15V13H43V15H42V14H41V13H40V12H39V11H38V12H37V15H38V16H39V17V19H38V22H39V23H38V24H35V25H34V28H35V29H36V30H37V31V33H36V32H35V31H34V32H33V35H34V36H35V38H36V39H37V40H38V41H40V40H39V39H40V38H41V36H40V37H39V35V33H40V32H42V31H43V30H42H41V29H40V30H39V31H38V30H37V29H36V28H35V25H38V24H40V23V22H39V19H40V17H41V16H40V15H38V13H39H40V14H41V15H42V17H43H44V16H45V15H44ZM44 15V16H43V15H44ZM50 19V20H49V19H50ZM9 13H7V14V15H8V14H9V13ZM8 17H9V18H10V19H9V20H8V21H7H6V19H7V18H8V17ZM8 24V25H10H12V23H14V25H13V28H14V29H12V28H11V27H10V29H11H12V30H14V29H15V32H17V30H18V29H17H15V28H14V25H15V22H14V21V19H13V21H12V23H10V24H8ZM23 30H21V31H20V32H21H22V33H23V32H24V31H23V30ZM19 33H18V34H17V36H18V38H17V39H16V38H14V39H13V40H12V41H13V40H14H16V41H17V40H18V38H19V36H18V34H19V33ZM20 35H21V36H20V35ZM21 39V36H22V37H23V38H22V39H21ZM8 51H9V50H10V49H11V47H12V46H13V44H14V43H16V44H17V43H18V41H19V40H20V39H21V41H20V42H21V43H20H19V45H18V46H17H16H15V47H13V49H12V51H10V52H9H8V51ZM8 48V51H7V48H8ZM8 45H9V48H8V45ZM8 43V45H7V43H8ZM9 42V43H8V42H9ZM9 42V41H10V42H9ZM25 37H24V39H25V40H26H27V39H26V38H25V37ZM29 40H30V41H29V40ZM37 35H38V37H37V36H36V35V34H37V35ZM61 19H60V20V22H62V20H61V19ZM42 39H43H44V38H45V40H44V41H43V40H42V39ZM45 38V37H46V38H45ZM48 36H49V35H50H51V34H52V36H51V37H50V38H49V39H48V36ZM53 34H52V33H53V34ZM55 34V35H53V34H55ZM56 33V34H55V33H56ZM57 33H56V32H57V33ZM58 34H57V33H58V34ZM62 29V32H61V33V34H60V35H58V34H59V33H60V30H61V29H62ZM63 28V29H62V28H63ZM63 28V27H64V25H65V26H66V27H67V29H66V28H65H64H63ZM55 37V38H53V37H55ZM47 46H46V47H47V46ZM66 30H65V31H66V30ZM69 28H68V29H69V30H70V29H71V28H73V27H75V26H76V25H74V26H73V27H71V26H70V24H69V22H70V23H72V22H71V21H70V20H69V22H68V23H67V24H68V25H69V26H70V27H69V28ZM72 20H73V21H72V20ZM75 22H74V23H75V22ZM77 24H76V22V21H78V22H77V24ZM79 21H78V20H79V21ZM80 22H79V21H80V22ZM81 24H82V23H83V22H84V21H83V20V19H82V20H81V22H80V24V25H81V24Z" fill="#EE6239"/>
<path fill-rule="evenodd" clip-rule="evenodd" d="M53 0H50V1H51V2H52V4H53V6H52V7H51V9H50V10H52V9H53V8H54V10H53V13H54V16H52V15V14H51V15H50V16H49V17H48V19V20H49V19H50V18H53V19H54V20H53V21H52V22H54V21H55V20H56V18V17H55V16H58V15H59V14H60V12H59V10H58H57V9H56V7H57V4H56V2H55V1H54H53V0ZM12 2H10V3H9V4H7V5H6V6H5V7H6V9V11H5V13H6V16H5V18V19V20H6V19H7V18H8V16H7V13H8H10V12H11V11H12V9H10V10H9V11H8V9H9V6H11V4H12V2ZM8 21V23H9V24H10V23H11H12V22H11V21H9V20H8V21ZM15 19H16V21H15V22H14V21V19H13V18H14V17H15V18V19ZM15 22H16V25H15V22ZM10 16H11V17H10V16ZM10 17V18H9V17H10ZM13 20H12V21H13V20ZM13 28H14V29H13V28ZM14 29H15V30H14V29ZM16 28H18V29H16V28ZM19 30V29H18V30H17V31V32H16V34H17H18V33H20V31H21V30H23V31H24V32H23V33H21V35V36H22V37H23V38H22V39H21V41H20V42H21V41H22V39H23H24V37H25V38H26V39H27V40H26V42H28V41H29V40H30V41H31V40H33V38V37H32V38H31V39H30V38V37H28V38H27V37H26V36H23V35H24V33H27V32H28V29H27V30H24V29H23V27H22V29H21V30H19ZM19 30H18V31H19V30ZM18 28V27H19V28H18ZM17 36H18V38H17V36ZM17 38V39H16V38H17ZM47 46H48V47H47V46ZM47 47V48H46V47H47ZM35 38H36V39H35V38ZM36 39H37V40H38V41H37H36V39ZM43 43V42H44V41H43V40H42V39H44V38V35H46V34V33H47V31H46V32H45V34H44V35H41V34H42V33H43V32H44V30H43V31H42V32H41H40V33H39V36V37H40V36H41V38H40V39H39V40H40V41H39V42H42V43H43ZM35 31H36V30H37V33H36V32H35V31ZM45 38H46V39H45V38ZM48 40V38V36H49V35H47V36H46V38H47V40H48ZM51 33H50V35H51V34H52V32H51V33ZM51 28H50V27H49V28H48V29H49H50V30H51V28ZM50 22H51V23H50V22ZM44 15H43V14V13H44V11H43V12H41V11H40H39V12H40V13H41V14H42V15H43V16H44V15ZM57 31H58V32H60V33H59V34H58V33H57V31ZM62 28H61V29H62V28ZM62 28V26H63V24H64V27H63V28H62ZM67 27H68V26H67V25V24H68V25H69V26H70V27H69V28H67V27ZM70 20H71V19H72H73V18H74V20H75V22H74V21H73V20H72V22H71V21H70V20ZM75 22H76V25H75V22ZM77 20H78V21H77V20ZM80 19H79V21H80V22H81V20H82V19H83V21H84V22H83V23H82V24H83V23H84V22H85V21H87V18H86V16H87V14H86V13H85V14V15H84V14H83V16H82V18H81V20H80V19Z" fill="#D50808"/>
<path fill-rule="evenodd" clip-rule="evenodd" d="M6 7H4V8H3V11H2V13V14H1V19H2V14H3V13H4V14H5V13H4V11H5V8H6V7ZM3 18H4V19H3V18ZM5 16H4V17H5V16ZM6 21H7V22H6V21ZM7 22H8V23H7V22ZM7 28H8V29H7V28ZM7 30H6V31H7V30ZM10 29H11V30H10V29ZM8 32H7V33H8V34H10V35H12V36H13V37H14V38H15H17V34H15V33H13V32H12H10V33H8V32ZM23 39H22V40V41H21V44H22V45H24V44H25V45V46H26V45H27V44H28V43H29V42H28V43H26V42H25V40H24H23V39ZM26 43V44H25V43H26ZM16 49H17V50H16V49ZM23 46H22V47H23V46ZM23 50H24V51H23V50ZM25 52H24V53H25V54H26V53H27V54H28H29V55H31V56H36V55H37V56H38V57H41V58H42V57H43V56H44V55V54H45V52H46V48H45V47H43V46H45V45H47H48V44H50V43H54V42H56H59V41H61V40H62V39H61H59H58V40H56V41H55V39H56V38H55V39H54V40H52V41H50V40V39H51V38H50V39H49V40H48V41H47V40V39H46V40H45V42H44V43H43V44H42V43H40V44H38V45H37V46H35V48H34V49H33V50H30V51H29H28V52H27V51H25V52ZM41 48V47H43V48H41ZM40 49V48H41V49H40ZM37 50V49H40V50H37ZM37 50H34V51H37V50ZM25 52H26V53H25V52ZM39 42H38V43H39V42ZM61 35H60V37H61V35ZM64 38H63V39H64V38ZM65 37H66V38H65V37ZM65 34H64V35H65V34ZM66 31H67V33H66V31ZM73 29H71V30H73V29ZM76 27H77V28H76V27ZM78 24H77V25H78V24ZM81 25H82V27H81V25ZM82 25V24H83V25H82ZM84 25H85V26H84V25ZM83 28H82V29H83V28Z" fill="#DE9410"/>
<path fill-rule="evenodd" clip-rule="evenodd" d="M4 13H3V14H2V16V18V19V20V24H3V28H4V30H5H7V32H8V33H10V32H13V33H15V34H16V33H15V32H14V30H10V29H7V28H9V27H10V26H9H8V25H7V24H8V23H7V22H6V21H5V20H4V19H3V18H4V16H5V14H4V13ZM12 51H10V52H11V53H12V52V51ZM12 51V49H13V47H15V46H19V47H23V46H26V45H27V44H28V45H29V46H32V45H34V43H33V42H31V41H34H36V42H38V44H37V45H36V46H35V47V48H34V49H33V50H30V51H27V50H23V51H21V52H20V53H19V54H17V55H14V54H13V53H14H15V52H16V50H17V48H15V49H14V50H13V51H12ZM50 39H51V38H53V39H54V40H52V41H50V39ZM61 37H60V36H57V37H56V39H55V41H56V40H58V39H63V38H65V37H67V36H70V35H72V34H73V33H76V32H79V31H81V30H82V29V28H83V27H84V25H85V23H86V22V21H85V22H84V23H83V25H82V27H81V26H80V25H79V24H78V26H77V28H76V27H75V28H76V29H77V28H78V26H79H80V27H81V28H80V29H78V30H76V31H74V32H73V30H70V32H69V30H68V29H67V31H68V32H69V34H68V35H66V32H65V36H64V37H63H62V36H63V35H64V34V33H62V34H61V36V37ZM74 28H73V29H74V28Z" fill="#FFC54A"/>
</svg>
