<svg width="54" height="48" viewBox="0 0 54 48" fill="none" xmlns="http://www.w3.org/2000/svg">
<path fill-rule="evenodd" clip-rule="evenodd" d="M3 0H4V4H3V0ZM5 6H4V4H5V6ZM6 8H5V6H6V8ZM6 8H7V10H6V8ZM15 8H14V10H15V15H14V17H13V18H14V17H15V15H16V10H15V8ZM12 18H10V19H8V20H10V19H12V18ZM4 21H3V23H4V21ZM5 24H6V25H5V24ZM8 28V27H6V28H8ZM14 28V29H8V28H14ZM16 27V28H14V27H16ZM17 26V27H16V26H17ZM18 25V26H17V25H18ZM19 23V25H18V23H19ZM20 18V23H19V18H20ZM22 17V18H20V17H22ZM24 16V17H22V16H24ZM25 15V16H24V15H25ZM26 14V15H25V14H26ZM27 12V14H26V12H27ZM27 10V12H28V10H29V8H30V6H31V4H30V2H29V1H28V2H29V4H30V6H29V5H28V6H27V7H26V8H25H24V9H23H22V10H21V12H19V13H20V14H19V15H18V16H17V18H18V17H19V16H20H21V15H20V14H21V13H22V12H23V11H25V10H27ZM28 8V10H27V8H28ZM28 8H29V6H28V7V8ZM12 22H13V23H14V24H13H11V22V21H12V22ZM15 21H12V20H15V21ZM22 14H23V15H22V14ZM0 31H1V33H0V31ZM1 33H2V35H1V33ZM24 19H25V20H24V19ZM26 21H25V20H26V21ZM28 22H26V21H28V22ZM28 23V22H29V23H28ZM27 24V23H28V24H27ZM27 25H26V24H27V25ZM27 25H28V28H27V25ZM27 32V31H25V32H27ZM6 37H7V38H6V37ZM12 39H7V38H12V39ZM15 39H13H12V44H11V46H7V45H6V46H7V47H11V46H12V44H13V40H15V39ZM16 38V39H15V38H16ZM18 37V38H16V37H18ZM22 41V37H18V36H24V37H23V41H22ZM21 46V41H22V46H21ZM20 47V46H21V47H20ZM20 47V48H16V47H20ZM22 33H25V34H26V35H24V34H22V33ZM27 36H26V35H27V36ZM29 37H27V36H29V37ZM29 37H31V38H29V37ZM29 43H28V45H29V46H33V45H34V43H35V41H36V39H37V36H36V39H35V41H34V43H33V45H29V43ZM39 32H36V33H39V34H44V33H39V32ZM47 32H45V33H47V32ZM47 32H48V30H47V32ZM49 28H48V29H49V28ZM49 26H50V27H49V26ZM51 25H50V26H51V25ZM51 25H53V24H51V25ZM52 18H51V22H52V18ZM53 17V18H52V17H53ZM53 17V15H54V17H53ZM52 13H53V14H52V13ZM53 13V8H54V13H53Z" fill="black"/>
</svg>
