<svg width="82" height="72" viewBox="0 0 82 72" fill="none" xmlns="http://www.w3.org/2000/svg">
<path fill-rule="evenodd" clip-rule="evenodd" d="M50 27H49V28H48V30H50V28V27ZM20 31H19V32H20V33H22V32H23V31H21V32H20V31ZM43 60V59H41V60H43ZM39 61V62H41V61H39ZM45 60H46V61H45V60ZM45 69H44V70H43V71H44V70H45V69ZM44 36H45V37H44V36ZM43 35H42V36H43V35ZM40 37H41V38H40V37ZM41 38V39H43V38H41Z" fill="white"/>
<path fill-rule="evenodd" clip-rule="evenodd" d="M80 3H81V4H80V3ZM80 4V5H79V4H80ZM78 6H79V7H78V6ZM77 8V7H78V8H77ZM77 8V9H76V8H77ZM79 14H78V15H79V14ZM80 13H79V14H80V13ZM81 12H80V13H81V12ZM81 12V11H82V12H81ZM76 15H77V16H76V15ZM65 17H64V18H63V19H64V18H65V17ZM23 19H22V8H21V19H22V20H21V25H22V20H23V19ZM25 20H26V22H25V20ZM26 20H27V16H26V20ZM34 25H33H32V24H33V23H34V21H35V20H34V21H33V23H32V24H31V26H30V27H31V26H32H33V27H32V28H31V29H30V30H29V31H30V32H31V31H30V30H31V29H32V28H33V27H34V25ZM18 36V35H20V36H18ZM14 37H15V38H14V37ZM11 39H10V40H11V39ZM8 40H9V41H8V40ZM7 41H5V42H7V41ZM4 42H3V43H4V42ZM17 37V38H19V39H23V38H25V37H27V39H28V40H29V41H30V42H31V43H33V44H34V43H33V42H31V41H30V40H29V39H28V37H30V36H28V35H27H25V37H23V38H19V37H17ZM28 36V37H27V36H28ZM35 40H34V39H33V38H32V37H31V38H32V39H33V40H34V42H35V43H36V42H35V40ZM37 36H38V38H37V36ZM36 35H37V36H36V35ZM35 34H36V35H35V34ZM35 34V33H34V34H35ZM39 39H38V38H39V39ZM40 40H39V39H40V40ZM42 41H40V40H42V41ZM43 41V42H42V41H43ZM45 40V41H43V40H45ZM45 40V39H47V40H45ZM20 30H21V32H20V30ZM19 31H18V28H17V31H18V33H19V31ZM24 23H25V24H24V23ZM31 20H30V21H29V23H30V21H31V20ZM33 32H32V33H33V32ZM32 52H31V53H32V52ZM32 55H33V56H32V55ZM34 54H33V55H34V54ZM34 54H35V53H34V54ZM38 54H37V55H36V57H37V55H38V54ZM42 53H43V54H42V53ZM43 53V52H44V53H43ZM37 58H38V59H37V58ZM38 59H39V60H38V59ZM26 58H27V59H26V58ZM26 59V60H23V59H26ZM30 61H29V60H27V61H25V62H27V61H29V62H30V61ZM31 62H32V63H31V62ZM33 65H32V66H30V67H32V66H33V65ZM34 63H33V65H34V63ZM34 63H35V62H34V63ZM38 62H37V63H38V62ZM39 62H40V63H39V62ZM40 63H41V64H40V63ZM41 60H42V61H41V60ZM42 61H43V62H42V61ZM45 70H46V71H45V70ZM45 71V72H43V71H45ZM46 70H47V68H46V70ZM49 64H48V62H47V66H48V65H49H50V67H51V68H52V69H55V70H56V71H59V70H60V69H59V68H58V67H57V66H56V65H55V64H56V63H55V62H54V63H53V62H51V63V64H52V66H53V68H52V67H51V65H50V60H49V64ZM53 64V66H54V68H55V69H56V70H59V69H58V68H57V67H56V66H55V65H54V64H55V63H54V64H53ZM53 64V63H52V64H53ZM53 49H52V50H53V51H54V52H55V53H54V57H55V53H57V52H55V51H54V50H53V49ZM57 50H58V51H57V50ZM57 50H56V49H57V50ZM61 47V48H63V49H65V48H63V47H61ZM61 47V46H60V47H61ZM49 39H50V40H49V39ZM48 40H49V41H48V40ZM51 29H50V30H51V29ZM49 35H50H51V37H50V36H49V35ZM48 36H49V37H48V36ZM53 52V53H51V52H53ZM59 52V51H61V52H59ZM63 66V67H61V66H63ZM67 68V67H68V66H69V65H68V66H67V67H65V68H67ZM70 43H66V44H70V43ZM70 43V41H71V43H70ZM70 33H72V34H70V33ZM75 32H73V33H75V32ZM76 31V32H75V31H76ZM76 31V30H77V31H76ZM63 38H71V39H63V38ZM64 70H61V71H64V70ZM64 70V69H65V70H64ZM61 29H60V30H61V29ZM62 28H63V29H62V28ZM65 27H64V28H65V27ZM73 36H74V37H73V36ZM73 37V38H72V37H73ZM61 24H62V25H61V24ZM64 23H63V24H64V23ZM64 22H65V23H64V22ZM62 19H61V20H62V19ZM58 64H57V65H58V64ZM59 65H60V66H59V65ZM32 17H31V19H32V17ZM19 24H18V27H19V24ZM52 32H51V34H52V32ZM53 58H54V60H53V58ZM46 61H45V63H46V61ZM39 52H40V54H39V52Z" fill="black"/>
<path fill-rule="evenodd" clip-rule="evenodd" d="M51 34H50V35H51V34ZM47 35H46V36H45V37H46V36H47V35ZM47 38H48V39H47V38Z" fill="#ACA46A"/>
<path fill-rule="evenodd" clip-rule="evenodd" d="M49 26H50V27H49V26ZM48 28V27H49V28H48ZM48 30H47V28H48V30ZM48 32V30H49V32H48ZM47 34V32H48V34H47ZM46 35V34H47V35H46ZM43 35H46V36H44V37H43V36V35ZM42 35V34H43V35H42ZM40 36H41V35H42V38H41V37H40V36ZM39 36V35H40V36H39ZM39 36V38H38V36H39ZM47 60H48V61H47V60ZM45 60V59H47V60H45ZM44 60H45V61H44V60ZM43 59H44V60H43V59ZM41 59V58H43V59H41ZM39 61V60H40V59H41V61H40H39ZM39 61V63H38V61H39ZM43 69H44V70H43V69ZM43 70V71H42V70H43ZM31 64H32V65H31V64ZM31 65V66H30V65H31ZM23 58H24V59H23V58ZM25 58V57H24V58H25ZM26 59V58H25V59H26ZM27 59H26V60H25V61H26V60H27V59ZM27 59V58H28V59H27Z" fill="#625A39"/>
<path fill-rule="evenodd" clip-rule="evenodd" d="M31 1H29V3H28V6H27V7H28V8H29V7H30V6H31V1ZM36 3H35H34V4H33V6H32V8H33V9H35V6H36V3ZM39 8H37V9H36V10H35V11H36V12H37V13H38V15H39V17H41V15H42V13H43V11H41V12H40V13H39H38V10H39V8ZM39 19V20H38V22H39V23H40V21H41V19H39ZM42 25V26H40V28H41V29H42V28H43V27H44V25H42ZM51 26H50V28H51V26ZM23 30H21V31H23V30ZM25 57H26V58H25V57ZM25 58V59H24V58H25ZM27 60H26V61H27V60ZM27 60H28V59H27V60ZM32 65H31V66H32V65ZM32 65H33V64H32V65ZM45 70H44V71H45V70ZM40 62H41V63H40V62ZM43 60H42V61H43V60ZM46 60H47V62H46V60ZM27 36H28V37H27V36ZM28 39V37H30V38H32V39H33V40H34V42H35V43H33V42H32H31V41H30V40H29V39H28ZM39 36H40V38H41V39H42H43V38H42V36H43V37H45H46V36H47V34H48V32H49V30H50H51V31H52V32H51V34H50V35H49V36H48V38H47V39H45V40H43V41H42V40H41H40V39H39V36ZM46 33H44V34H43V35H45V34H46V33ZM42 30H44V32H43V33H42V32H41V31H42V30ZM26 6H25V4H24H23V9H24V8H25V9H26V6Z" fill="#EED5B4"/>
<path fill-rule="evenodd" clip-rule="evenodd" d="M17 31H18V32V33H19V34V35H16V36H15V37H14V38H11V39H9V40H7V41H4V42H2V41H3V40H6V39H7V38H9V37H10V36H11V35H13V34H15V33H16V32H17V31ZM2 42V43H1V42H2ZM28 57H26V58H28V57ZM28 59H30V60H28V59ZM30 60H32V61H34V62H33V64H32V62H31V61H30V60ZM43 60H44V62H43V60ZM46 65H45V64V63V62H44V63V64H43V63H42V62H41V63H42V64V65H43V66H44V69H45V70H46V69V66V65ZM46 65V63H47V65H46Z" fill="#FF836A"/>
<path fill-rule="evenodd" clip-rule="evenodd" d="M26 16H25V18H24V20H23V22H22V26H21V20H20V23H19V27H18V31H19V30H20H21V29H25V28H26V29H27V28H28V29H29V28H28V27H27V26H28V23H29V21H30V19H31V17H30V18H29V19H28V20H27V22H26V23H25V20H26V16ZM25 23V25H24V23H25ZM27 27V28H26V27H27ZM19 36H16V37H15V38H14V39H15V38H17V37H19V36ZM8 37H9V38H8V37ZM5 39H6V40H5V39ZM32 21H33V22H32V21ZM33 21V20H34V21H33ZM28 58H29V59H28V58ZM31 59H30V60H31V59ZM34 60H35V62H34V60ZM34 62V63H33V62H34ZM41 63H42V64H41V63ZM44 62H43V63H44V62ZM46 62H47V63H46V62ZM46 64H45V65H46V66H47V65H46V64ZM44 66H43V67H44V66Z" fill="#E64141"/>
<path fill-rule="evenodd" clip-rule="evenodd" d="M31 22H33V23H32V24H31V25V26H30V27H31V26H33V27H32V28H31V29H30V30H28V29H29V28H28V27H27V26H28V25H29V24H30V23H31V22ZM27 28H28V29H27V28ZM26 28V27H27V28H26ZM26 28V29H25V28H26ZM25 56H28V57H25V56ZM29 58H28V57H29V58ZM29 58H31V59H29V58ZM30 60H29V61H30V60Z" fill="#B42020"/>
<path fill-rule="evenodd" clip-rule="evenodd" d="M25 15H27V16H25V15ZM24 18V16H25V18H24ZM23 20V18H24V20H23ZM22 20H23V22H22V20ZM20 20V19H22V20H20ZM20 20V23H19V24H18V22H19V20H20ZM29 17H30V18H29V17ZM28 19V18H29V19H28ZM27 20V19H28V20H27ZM26 22V20H27V22H26ZM26 22V23H25V22H26ZM30 17V16H32V17H30ZM24 24H25V25H24V24ZM22 25H21V26H22V25ZM17 27H18V28H17V27ZM20 30H19V31H20V30ZM15 32H16V33H15V32ZM13 34V33H15V34H13ZM11 35V34H13V35H11ZM10 36V35H11V36H10ZM8 37V36H10V37H8ZM7 38V37H8V38H7ZM5 39V38H7V39H5ZM3 40V39H5V40H3ZM2 41V40H3V41H2ZM2 42V41H1V42H0V43H1V42H2ZM2 42H3V43H2V42ZM16 32H17V30H16V32ZM9 39H10V40H9V39ZM8 40H7V41H8V40ZM16 36H15V37H16V36ZM16 36V35H18V36H16ZM19 34H20V35H19V34ZM20 36H19V37H20V36ZM31 19H30V20H31V19ZM32 20H33V21H32V20ZM31 22V21H32V22H31ZM30 23V22H31V23H30ZM30 23V24H29V25H28V23H29H30ZM33 20H35V19H33V20ZM31 59H32V60H31V59ZM34 60V61H32V60H34ZM34 60V59H35V60H34ZM31 61H30V62H31V61ZM31 63H32V64H31V63ZM41 61H42V62H41V61ZM43 63H42V62H43V63ZM43 63H44V64H43V63ZM45 61H44V62H45V61ZM45 63H46V64H45V63ZM48 61H47V62H48V61ZM41 64H42V65H41V64ZM43 67H42V65H43V67ZM43 67H44V69H43V67ZM46 66H47V68H46V66ZM5 41H4V43H5V41ZM17 38V39H15V38H17ZM14 39H15V40H12V39H11V38H14V39ZM28 29H21V30H28V31H29V30H28V29ZM32 31H31V32H32V31Z" fill="#7B2020"/>
<path fill-rule="evenodd" clip-rule="evenodd" d="M32 1H31V4H32V1ZM80 2H81V3H80V2ZM77 2V1H80V2H77ZM75 3V2H77V3H75ZM74 4V3H75V4H74ZM73 5V4H74V5H73ZM72 6V5H73V6H72ZM71 7H72V6H71V4H70V3H68V4H67V5H66V6H64V7H63V8H62V9H63V8H64V7H66V6H67V5H68V4H70V6H69V7H68V8H69V7H70V8H71V7ZM71 7H70V6H71V7ZM39 7H38V8H39V11H40V8H39V7ZM35 8H36V9H35V8ZM35 10H34V11H35V10ZM38 12H39V13H38V12ZM37 14V13H38V14H37ZM37 14V15H36V14H37ZM22 18H23V19H22V18ZM43 12H44V13H43V12ZM43 14H42V15H43V14ZM41 16H42V17H41V16ZM40 18V17H41V18H40ZM40 18V19H39V18H40ZM42 20H41V21H40V24H39V26H40V24H41V21H42V20ZM43 27H44V28H43V27ZM44 27V25H45V27H44ZM43 29H42V30H41V31H42V30H43V29ZM29 35H28V36H29V35ZM46 33H47V34H46V33ZM46 33H43V32H44V30H45V32H46V33ZM47 43H46V44H47V43ZM47 41H48V42H47V41ZM50 38H49V39H50V38ZM50 38H51V37H50V38ZM52 34H51V35H52V34ZM51 30H52V31H51V30ZM53 25V30H52V25H53ZM54 22V25H53V22H54ZM55 20V22H54V20H55ZM56 18V20H55V18H56ZM57 17V18H56V17H57ZM58 15V17H57V15H58ZM59 14V15H58V14H59ZM60 13V14H59V13H60ZM61 12H60V13H61V12ZM62 11V12H61V11H62ZM62 11V10H63V11H62ZM52 23H51V24H50V26H51V24H52V23ZM67 9H68V10H67V9ZM80 5H79V6H80V5ZM81 10H82V11H81V10ZM79 10V9H81V10H79ZM77 11V10H79V11H77ZM77 11V12H76V11H77ZM76 9H75V10H74V11H73V12H72V13H71V14H72V13H73V12H74V11H75V10H76V9ZM69 15H70V16H69V15ZM68 16H67V17H68V16ZM69 19H70V20H69V19ZM72 18H71V19H72V18ZM73 17H74V18H73V17ZM76 16H75V17H76V16ZM77 15H78V16H77V15ZM79 19H78V20H77V21H76V22H77V21H78V20H79V19ZM73 22H74V23H73V22ZM71 23H70V24H71V23ZM68 24H69V25H68V24ZM78 25H77V26H75V27H73V28H75V27H77V26H78V25ZM78 25H79V24H78V25ZM73 32H72V33H73V32ZM73 35H74V36H73V35ZM72 38H71V39H72V38ZM62 38H63V39H62V38ZM61 37H60V38H59V37H58V38H59V40H58V41H56V42H58V41H59V40H60V38H61V37ZM62 34H61H60V35H61V37H62V34ZM63 34H62V33H63V34ZM63 31H64V33H63V31ZM63 31V30H60V29H59V30H60V31H63ZM58 33H59V34H58V33ZM55 43H54V44H55V46H54H53V45H52V46H53V47H54V48H55V49H56V48H55V46H56V44H55V43ZM51 48H52V49H51V48ZM53 51H54V52H53V51ZM54 52H55V53H54V52ZM57 51H58V52H57V51ZM58 51V50H59V51H58ZM61 50H62V51H61V50ZM62 49V48H61V47H60V46H59V45H58V46H59V47H60V48H61V49H62ZM62 49V50H63V49H62ZM62 42H63V43H62V42ZM65 43H64V44H65V45H66V47H65V48H66V47H67V45H66V43H65ZM51 51H50V50H49V51H50V52H51V51ZM48 51H47V52H48V51ZM44 52H45V53H44V52ZM39 54H38V53H37V54H38V55H39V54ZM32 48H31V46H32V45H34V44H32V45H31V46H30V48H31V49H32V48ZM36 43H35V44H36V43ZM34 58H35V59H34V58ZM38 58V57H36V52H35V57V58H38ZM39 59V58H38V59H39ZM39 59V60H40V59H39ZM36 61H35V62H36V63H37V62H36V61ZM44 57H43V58H44V57ZM47 57H48V58H47V57ZM49 59H48V58H49V59ZM49 59H50V60H49V59ZM54 57H53V58H54V57ZM54 59H55V60H54V59ZM52 61V59H53V60H54V61H53H52ZM51 62V61H52V62H51ZM52 64H51V62H50V65H51V67H52V68H53V66H54V68H55V69H56V70H57V69H56V66H55V65H56H57V63H56V64H55V63H54V62H53V63H52V64ZM53 64V63H54V64H53ZM53 64V66H52V64H53ZM54 64H55V65H54V64ZM58 61H55V60H58V61ZM61 62H58V61H61V62ZM64 63H61V62H64V63ZM66 64H64V63H66V64ZM66 64H68V65H66V64ZM59 64H58V65H59V64ZM60 65H61V66H60V65ZM64 66H63V67H62V68H63V69H64V68H65V67H64V66ZM64 67V68H63V67H64ZM61 69H60V70H61V69ZM61 28H62V29H61V28ZM64 28H63V29H64V28ZM64 21H65V22H64V21ZM64 20V21H61V20H62V19H63V20H64ZM61 15H62V16H61V15ZM33 32H34V34H33V32ZM31 36H30V38H31V36ZM64 15H65V17H64V15ZM64 14V15H62V14H64ZM48 62H49V64H48V62ZM33 53H32V55H33V53ZM26 6H27V9H26V6ZM22 4H23V8H22V4ZM23 4V3H25V4H23ZM37 3H36V2H35V3H36V7H37V3ZM42 52V53H40V52H42ZM70 41V40H68V39H66V40H68V41H70ZM70 34V33H68V34H70ZM69 29V30H67V29H69ZM69 29V28H71V29H69ZM64 34H67V35H64V34ZM64 25H60V26H64V27H65V25H64ZM30 52H31V53H30V52Z" fill="#623920"/>
<path fill-rule="evenodd" clip-rule="evenodd" d="M26 4H25V6H26V4ZM33 4H32V6H30V7H32V6H33V4ZM31 11V10H29V11H31ZM26 11H27V12H26V11ZM35 11H33V12H35V11ZM35 9H36V10H35V9ZM40 12H39V13H40V12ZM19 33H20V34H19V33ZM23 33H22V34H23V35H24H26V34H27V33H28V31H27V30H26H24V31H23V33ZM49 36H50V37H49V36ZM49 37V38H48V37H49ZM44 58H45H46V59H45V60H44V58ZM39 44H40V45H39V44ZM39 46V45H38V46H37V44H36V45H35V44H34V45H33H32V46H31V48H32V50H31V52H32H33V54H34V53H35V52H36V55H37V53H38V54H39V52H40V51H41V49H42V48H41V47H42V46H41V45H40V46H39ZM39 47H38V46H39V47ZM40 47V48H39V47H40ZM40 47H41V46H40V47ZM61 63V62H59V63H60V64H61V65H63V66H65V67H67V66H68V65H66V64H64V63H61ZM60 66H61V67H60V66ZM61 67H62V68H63V69H64V70H63H62V69H61V67ZM51 49H52V51H51H50V49H49V48H48V46H49V45H50V43H51V39H52V32H53V26H54V23H55V20H56V18H57V17H58V15H59V14H60V13H61V12H62V11H63V10H62V9H63H64V8H65V9H66V11H65V12H64V13H65V12H66V11H67H68V10H70V9H71V10H72V13H71V14H69V15H68V16H67V17H68V16H70V15H71V14H72V15V16H73V17H72V18H70V19H68V20H67V21H68V20H71V19H73V20H72V21H73V22H72V23H69V24H67V25H71V24H72V25V26H73V27H72V28H68V29H66V30H70H71V31H70V32H72V33H67V34H63V33H64V32V31H63V30H61V29H64V28H65V25H63V24H65V20H63V19H64V18H65V15H64V14H62V15H60V16H59V17H60V16H61H62V15H64V18H62V19H61V20H60V21H64V23H62V24H60V25H59V26H61H64V28H61V29H59H58V30H60V31H63V33H62V34H60V33H58H57V34H59V35H61V37H58V36H56V37H57V38H58H59V40H58V41H57V40H56V39H55H54V40H55V41H56V43H55H54V42H53V43H54V44H55V46H54H53V45H52V44H51V45H52V46H53V47H54V48H55V50H54H53V49H52V48H51V47H50V48H51V49ZM58 45H59H60V46H61V47H62V46H61V45H62V44H63V43H62H61V42H62H64V41H65V40H66V39H65H64H62H61V38H68V37V36H69V35H63V34H62V35V36V37H61V38H60V40H59V41H58V42H57V43H56V46H55V48H56V49H57V50H58V48H59V46H58V45ZM58 45V44H57V45H58ZM59 41V42H60H61V41H60H59ZM61 11H62V10H61V11ZM61 11H60V12H59V13H57V14H56V15H55V16H56V17H55V18H56V17H57V16H56V15H57V14H59V13H60V12H61V11ZM54 20V22H53V25H52V29H51V24H52V21H53V20H54ZM54 20H55V19H54V20ZM66 42H65V43H66V42ZM78 14H77V15H78V14ZM74 18H75V19H74V18ZM74 23H75V24H74V23ZM75 26H74V27H75V26ZM79 5H78V6H79V5Z" fill="#B47320"/>
<path fill-rule="evenodd" clip-rule="evenodd" d="M78 2H77V3H76H75V4H74V5H73V6H72V7H71V8H70V9H69V10H70V9H71V10H72V12H73V11H74V10H75V9H76V8H77V7H78V5H79V4H80V2H79H78ZM69 4H68V5H67V6H66V7H65H64V8H63V9H64V8H65V9H66V10H67V8H68V7H69V6H70V4H69ZM27 5H28V6H27V5ZM27 7H28V8H29V7H30V10H29V13H30V11H31V7H32V8H33V9H34V11H33V13H34V12H35V11H36V12H37V14H36V15H37V14H38V15H39V17H40V18H39V19H38V22H39V23H40V24H39V26H40V28H41V29H42V30H41V32H42V33H44V34H42V35H41V36H40V35H39V36H38H37V35H36V34H35V33H34V32H33H32V31H31H30V30H31V29H32V28H33V27H34V25H33H32V24H33V23H34V21H35V19H34H33V20H32V21H31V19H32V16H31H30V17H29V18H28V19H27V15H26H25V16H24V18H23H22V8H23V9H24V8H25V9H26V12H27V7ZM31 21V22H30V21H31ZM36 6H35V7H36V6ZM38 10H39V11H38V10ZM54 19H53V20H54V19ZM55 17V19H54V17H55ZM56 16H55V17H56V16ZM57 15V16H56V15H57ZM57 15V14H58V15H57ZM80 10H81V12H80V13H79V14H77V15H76V16H75H74V17H73V16H72V14H73V13H75V12H77V11H79V10H80ZM75 18H78V19V20H77V21H75V22H73V21H72V20H73V19H75V18ZM75 23H78V24V25H77V26H74V27H73V26H72V25V24H75V23ZM71 29H76V31H75V32H70V31H71V29ZM73 35V36V37H72V38H68V36H69V35H73ZM68 40H65V41H64V42H66V43H70V42V41H68V40ZM65 45H66V47H65V48H63V47H62V46H61V45H62V44H64V45H65ZM62 49H61V48H60V47H59V48H58V50H59V51H61V50H62V49ZM56 49H55V50H54V51H55V52H57V50H56V49ZM52 50H53V52H52H51V51H52V50Z" fill="#D5A45A"/>
<path fill-rule="evenodd" clip-rule="evenodd" d="M31 0H29V1H28V3H27V5H26V6H27V5H28V3H29V1H31V0ZM26 9H27V11H26V9ZM29 11H30V13H29V11ZM31 4H32V6H31V4ZM30 7H31V10H30V7ZM41 10H43V11H41V10ZM41 11V12H40V11H41ZM43 11H44V12H43V11ZM44 25V24H42V25H40V26H42V25H44ZM22 33H20V32H19V33H20V37H19V38H20H22H23V37H25V35H23V34H22V33ZM22 33H23V32H22V33ZM28 33H27V34H26V35H27H28H29V36H30H31V37H32V38H33V39H34V40H35V42H36V44H35V43H34V44H35V45H36V44H37V45V46H38V47H39V48H40V47H41V48H42V49H41V51H40V52H41H42V53H40V54H39V55H37V57H38V58H39V59H41V58H43V59H44V58H46V59H47V60H48V62H49V59H50V61V62H51V61H52V62H55V63H57V64H59V65H56V66H57V67H56V68V69H57V70H59V69H61V70H62V69H61V68V67H60V66H59V65H61V66H63V65H61V64H60V63H59V62H58V61H55V60H54V61H52V59H53V57H54V55V54V53V52H53V53H51V52H50V51H49V50H50V49H49V48H48V46H49V45H50V44V43H51V42V40V39H52V35H51V38H50V37H49V38H48V39H47V40H46H45V41H43V42H42V41H40V40H39V39H38V38H37V36H36V35H35V34H34H33V33H32V32H30V31H28V30H27V31H28V33ZM49 40V38H50V40H49ZM48 41V40H49V41H48ZM48 41V42H47V41H48ZM58 68H59V69H58V68ZM58 68V67H57V68H58ZM48 58H49V59H48V58ZM48 58H47V57H48V58ZM44 58H43V57H44V58ZM43 53V54H42V53H43ZM43 53V52H45V53H43ZM41 46V47H42V46H41ZM40 46H41V45H40V44H39V45H38V46H39V47H40V46ZM40 46H39V45H40V46ZM47 52H48V51H47V52ZM46 43H47V44H46V43ZM37 59V58H35V61H36V62H37H38V61H39V60H38V59H37ZM30 50H31V52H30V50ZM31 50V49H32V50H31ZM52 30H53V32H52V30ZM51 29H52V30H51V29ZM51 29H50V28H51V29ZM58 37V36H56V37H57V38H58V37ZM54 40V39H56V40H57V41H55V40H54ZM61 41V42H59V41H61ZM61 42V43H62V42H61ZM63 42V43V44H64V45H65V44H64V43H65V42H63ZM59 33H60V35H59V33ZM63 23H62V25H63V23ZM51 21H52V23H51V21ZM53 19H52V21H53V19ZM54 17V19H53V17H54ZM55 15H54V17H55V15ZM56 14H55V15H56V14ZM56 14H57V13H56V14ZM69 23H70V24H71V25H70H69V23ZM74 23V24H73H72H71V23H72V22H73V23H74ZM78 23H76H75H74V22H75V21H76V22H78V23ZM78 23H79V24H78V23ZM73 27H72V28H71V29H69V28H68V29H69V30H71V29H72H73H76V30H77V29H76V28H73V27ZM70 18H71V20H70V18ZM73 17H72V19H73H74V18H75H78V19H79V18H78V17H75V16H74V18H73V17ZM68 33H67V35H68H73V34H68V33ZM71 14H69V15H68V16H69V15H71V14ZM73 12H75V13H73V12ZM75 12V11H76V12H75ZM72 13H73V14H72V13ZM68 10H66V11H65V12H64V13H65V12H66V11H68V10ZM68 9V10H69V9H70V8H69V9H68ZM68 9H67V8H68V9ZM65 66H64V67H65V66ZM32 52H33V53H32V52ZM51 47H50V48H51V47ZM52 44H51V45H52V44ZM53 42H54V43H53V42ZM56 43H55V44H56V43ZM56 43H57V42H56V43ZM58 44H57V45H58V44ZM59 45H60V46H59V45ZM61 38H62V39H61V38ZM60 37H59V38H60V37ZM58 33H57V34H58V33ZM58 29H59V30H58V29ZM43 28H42V29H43V30H44V29H43V28ZM46 34H45V35H46V34ZM63 34H64V35H63V34ZM67 30H66V29H67V30ZM54 26H53V25H54V26ZM54 23H55V22H54V23ZM60 26H59V25H60V26ZM60 25V24H61V25H60ZM61 21H60V20H61V21ZM64 24H65V23H64V24ZM68 25H67V24H68V25ZM69 20H68V19H69V20ZM67 21H68V20H67V21ZM65 21H64V20H65V21ZM62 19H63V18H62V19ZM60 17H59V16H60V17ZM61 16H60V15H61V16ZM59 13H58V12H59V13ZM60 12H59V11H60V12ZM61 11H60V10H61V11ZM62 10H61V9H62V10ZM24 31H23V30H24V31ZM38 20H39V19H38V20ZM42 20H41V19H42V20ZM41 19H40V18H41V19ZM42 16H41V15H42V16ZM42 14H43V13H42V14ZM39 12H38V11H39V12ZM33 13H34V12H33V13ZM35 10H34V9H35V10ZM35 8H36V9H37V8H38V7H37V8H36V7H35V8ZM35 3H34V2H35V3ZM33 4H34V3H33V4Z" fill="#8B5231"/>
</svg>
