<svg width="37" height="41" viewBox="0 0 37 41" fill="none" xmlns="http://www.w3.org/2000/svg">
<path fill-rule="evenodd" clip-rule="evenodd" d="M15 8H12V9H11V12H12V9H15V8ZM17 11H16V13H17V14H18V15H20V14H18L18 13H17V11ZM36 21H37V23H36V21ZM32 24V23H36V24H32ZM30 25V24H32V25H30ZM28 28V26H30V25H28V24H27V23H26V24H27V28H28ZM29 28H28V31H27V32H24V31H22V32H24V33H27V32H28V31H29V28ZM33 27V28H29V27H33ZM33 27V26H36V27H33ZM6 28H5V29H6V30H7V31H8V32H10V33H12V34H13V33H12V32H10V31H8V30H7V29H6V28ZM15 34V35H17V34H15ZM21 30V31H19V30H21ZM19 30H18V29H19L19 30ZM7 9H10V10V11H9V10H7V9ZM7 10V11H6V10H7ZM11 37H12V38H11V37ZM11 38V39H7V38H11ZM13 39H12V38H13V39ZM14 40H13V39H14V40ZM16 40V41H14V40H16ZM19 39V40H16V39H19ZM19 39L19 38H23V39H19Z" fill="#101010"/>
<path fill-rule="evenodd" clip-rule="evenodd" d="M6 10H3V11H1V12H4V13H6V14H7V13H6V12V11V10ZM2 14H3V15H2V14ZM3 15H6V16H3V15ZM16 37H19V38H16V37Z" fill="#EE6241"/>
<path fill-rule="evenodd" clip-rule="evenodd" d="M4 9H2V10H1V11H3V10H4V9Z" fill="#FFAC73"/>
<path fill-rule="evenodd" clip-rule="evenodd" d="M2 8H4V9H2V8ZM1 10V9H2V10H1ZM1 10V13H0V10H1ZM4 9H6V10H4V9ZM6 11H7V13H6V11ZM2 13H4V14H6V15H3V14H2V13ZM19 39V38H20V37H21V36H20V35H18V36H16V37H15V38H16V37H19V38H17V39H19ZM12 35H13V34H14V35V36V37H11V36H12V35Z" fill="#BD2920"/>
<path fill-rule="evenodd" clip-rule="evenodd" d="M9 10H8V11H9V10ZM11 36H10V37H9V38H10V37H11V36ZM13 38H14V39H13V38ZM15 38V37H14V38H15ZM16 39H17V38H15V39V40H16V39ZM10 10H11V12H10V10Z" fill="white"/>
<path fill-rule="evenodd" clip-rule="evenodd" d="M8 36H9V37H8V36ZM8 37V38H7V37H8ZM22 37H21V38H22V37Z" fill="#BDBDBD"/>
<path fill-rule="evenodd" clip-rule="evenodd" d="M9 36H10V37H9V36ZM9 37V38H8V37H9ZM10 37H11V38H10V37ZM20 37H21V38H20V37ZM15 38H14V40H15V38Z" fill="#838383"/>
<path fill-rule="evenodd" clip-rule="evenodd" d="M16 6V5H17V6V7H15V6H16ZM17 8V7H18V8H17ZM17 8V9H15V8H17ZM22 16H20V15H22V16ZM24 17H22V16H24V17ZM25 18H24V17H25V18ZM25 21V18H26V20H27V23H26V21H25ZM24 23H25V21H24V20H23V19H22V20H23V21H24V23ZM22 27H23V24H24V23H22V22H21V23H22V24V27ZM20 27H22V28H20V27ZM19 26H20V27H19V26ZM19 26H18V25H19V26ZM14 21H13V19H14V21ZM13 25V21H12V25H13ZM14 27V25H13V27H14ZM15 28V27H14V28H15ZM16 29H15V28H16V29ZM18 29V30H16V29H18ZM18 29V28H19V29H18ZM21 31H22V32H21V31ZM22 33V32H24V33H22ZM21 34V33H22V34H21ZM21 36H20V34H21V36ZM22 37H21V36H22V37ZM22 37H23V38H22V37ZM13 33H14V34H13V33ZM12 35V34H13V35H12ZM8 36V35H12L12 36H8ZM7 37V36H8V37H7ZM7 37L7 38H6V37H7ZM14 37V36V35V34H15V35V36H16V37H14ZM14 37V38H12V37H14ZM18 34H17V36H18V34ZM12 9H11V8H12V9ZM12 12V9H13V10H14V11H15V14H14V15H13V16H12V17H11V15H12V13H11V12H12ZM11 9V10H10V9H11ZM8 11H7V10H8V11ZM8 11H10V12H8L8 11ZM4 14H6V13H4V12H2H1V15H2V16H3V17H6V16H3V15H2V13H4V14Z" fill="#412918"/>
<path fill-rule="evenodd" clip-rule="evenodd" d="M10 0H12V1V2H14V3V4H16V5H13V4V3H11V2V1H10V0ZM9 2V1H10V2H9ZM7 3V2H9V3H7ZM6 4V3H7V4H6ZM5 6V4H6V6H5ZM5 6V8H4V6H5ZM11 3V4H10V3H11ZM10 6V5H13V6H10ZM10 6V7H8V6H10ZM5 17H4V22H3V27H4V28H5H6V27V26H5V27H4V22H5V17ZM7 28V29H9V28H7ZM10 29V28H12V29H10ZM12 28V27H13V28H12ZM20 34H18V35H20V34ZM20 34V33H21V34H20ZM32 19H34V20H32V19ZM31 21H32V20H31V19H28V20H27V21H28V20H31V21ZM29 22V21H31V22H29ZM28 23H29V22H28V23ZM28 23V24H27V23H28ZM34 20H36V21H34V20ZM15 9H16V11H15V9ZM14 33H15V34H14V33ZM28 27H29V28H28V27ZM35 24H34V25H35V26H36V25H35V24Z" fill="#734A31"/>
<path fill-rule="evenodd" clip-rule="evenodd" d="M5 3H4V4H3V6H2V8H3V6H4V4H5V3ZM15 9H14H13V10H14V11H15V13V14H14V15H13V16H12V17H10V18V19H11V20H12V21H13V20V19H14V18H15V17H16V16H17V15H18V14H17V13H16V11H15V9ZM7 9H6V8H8V7H6V8H4V9H6V10H7V9ZM7 11H8V12H7V11ZM25 18H24V17H23H22V16H21V17H22V19H21V20H20V22H19V21H18V23H17V22H16H15V20H14V21H13V25H14V27H15V28H16V29H17H18V28H19H20V27H21H22V23H23H24V21H25V18ZM23 20H24V21H23V20ZM23 20V19H22V20H23ZM22 23H21V22H22V23ZM19 26H20V27H19V26ZM19 26V25H18V26H19ZM28 21H29V22H28V23H27V21H28ZM30 25H29H28V23H29V22H30H31V21H32V22H33V23H32V24H31H30V25ZM30 25H33V27H30H28V26H30V25Z" fill="#A4625A"/>
<path fill-rule="evenodd" clip-rule="evenodd" d="M11 1H10V2H9V3H8H7V4H6V6H5V8H6V7H7H8V6H9H10V5H11H12H13V3H12H11V1ZM11 3V4H10V3H11ZM14 6H15V7H14V6ZM21 17H22V19H21V20H20L20 22H19V21H18V23H17V22H16H15V20H14V18H15V17H16V16H17V15H18H19H20L20 16H21V17ZM31 20H28V21H31V20ZM33 22V23H36V22V21H34V20H32V21V22H33ZM34 24V25H35V26H33V25H32V24H34ZM25 27H26V28H25V27ZM27 30H26V28H27V30ZM27 30H28V31H27V30ZM24 29H23V30H24V31H25V32H26V31H25V30H24V29ZM8 25H9V27H8V25ZM9 27H10V28H9V27ZM6 24H5V26H6V24ZM6 28H7V29H6V28Z" fill="#CD835A"/>
<path fill-rule="evenodd" clip-rule="evenodd" d="M4 4H5V6H4V4ZM4 6V8H3V6H4ZM11 13H10H9H8V12H7V15H6V17H7H8H9V16H10V15H11V13ZM8 7H10V8H8V7ZM5 22H4V26H5V24H6V27H7H8V25H9V26H10V27H11V26H12V20H11H10V21H9H8V22H7H6V21H5V22ZM24 26H23V28H24V29H25H26V28H27V25H26V23H25V24H24V26ZM26 28H25V27H26V28ZM13 5H15V6H14V7H10V6H13V5Z" fill="#FFEE9C"/>
<path fill-rule="evenodd" clip-rule="evenodd" d="M16 5H15V6H16V5ZM17 7H10V8H6V9H11V8H17V7ZM11 12H8V13H11V15H10V16H9V17H5V21H6V22H8V21H9H10V20H11V19H10V17H11V15H12V13H11V12ZM7 14H6V15H7V14ZM5 26H4V27H5V26ZM6 27H9V28H6V27ZM10 28H9V29H7V30H8V31H10V32H12V33H15V34H20V33H22V32H21V31H24V32H25V31H26V32H27V31V30H28V28H27V30H26V29H24V28H23V27H22V28H19L19 30H16V29H15V28H14V27H13V25H12V26H11V27H10V26H9V27H10V28ZM12 28H13V27H12V28ZM12 28H11H10V29H12V28ZM24 30H23V29H24V30ZM24 30V31H25V30H24ZM19 30V31H21V30H19ZM26 24H27V25H26V24ZM26 21H25V23H24V24H23V26H24V24H25V23H26V21Z" fill="#E6BD62"/>
</svg>
