<svg width="38" height="39" viewBox="0 0 38 39" fill="none" xmlns="http://www.w3.org/2000/svg">
<path d="M38 26H37V27H38V26Z" fill="#101010"/>
<path d="M38 25H37V26H38V25Z" fill="#101010"/>
<path d="M38 24H37V25H38V24Z" fill="#101010"/>
<path d="M37 28H36V29H37V28Z" fill="#101010"/>
<path d="M37 27H36V28H37V27Z" fill="#101010"/>
<path d="M37 26H36V27H37V26Z" fill="#5A9CA4"/>
<path d="M37 25H36V26H37V25Z" fill="#5A9CA4"/>
<path d="M37 24H36V25H37V24Z" fill="#5A9CA4"/>
<path d="M37 23H36V24H37V23Z" fill="#297383"/>
<path d="M37 22H36V23H37V22Z" fill="#297383"/>
<path d="M36 29H35V30H36V29Z" fill="#101010"/>
<path d="M36 28H35V29H36V28Z" fill="#5A9CA4"/>
<path d="M36 27H35V28H36V27Z" fill="#5A9CA4"/>
<path d="M36 26H35V27H36V26Z" fill="#5A9CA4"/>
<path d="M36 25H35V26H36V25Z" fill="#8BC5CD"/>
<path d="M36 24H35V25H36V24Z" fill="#8BC5CD"/>
<path d="M36 23H35V24H36V23Z" fill="#8BC5CD"/>
<path d="M36 22H35V23H36V22Z" fill="#5A9CA4"/>
<path d="M36 21H35V22H36V21Z" fill="#297383"/>
<path d="M35 30H34V31H35V30Z" fill="#101010"/>
<path d="M35 29H34V30H35V29Z" fill="#5A9CA4"/>
<path d="M35 28H34V29H35V28Z" fill="#5A9CA4"/>
<path d="M35 27H34V28H35V27Z" fill="#5A9CA4"/>
<path d="M35 26H34V27H35V26Z" fill="#8BC5CD"/>
<path d="M35 25H34V26H35V25Z" fill="#297383"/>
<path d="M35 24H34V25H35V24Z" fill="#8BC5CD"/>
<path d="M35 23H34V24H35V23Z" fill="#8BC5CD"/>
<path d="M35 22H34V23H35V22Z" fill="#8BC5CD"/>
<path d="M35 21H34V22H35V21Z" fill="#5A9CA4"/>
<path d="M35 20H34V21H35V20Z" fill="#297383"/>
<path d="M34 30H33V31H34V30Z" fill="#101010"/>
<path d="M34 29H33V30H34V29Z" fill="#5A9CA4"/>
<path d="M34 28H33V29H34V28Z" fill="#5A9CA4"/>
<path d="M34 27H33V28H34V27Z" fill="#5A9CA4"/>
<path d="M34 26H33V27H34V26Z" fill="#8BC5CD"/>
<path d="M34 25H33V26H34V25Z" fill="#8BC5CD"/>
<path d="M34 24H33V25H34V24Z" fill="#297383"/>
<path d="M34 23H33V24H34V23Z" fill="#8BC5CD"/>
<path d="M34 22H33V23H34V22Z" fill="#8BC5CD"/>
<path d="M34 21H33V22H34V21Z" fill="#8BC5CD"/>
<path d="M34 20H33V21H34V20Z" fill="#297383"/>
<path d="M33 31H32V32H33V31Z" fill="#101010"/>
<path d="M33 30H32V31H33V30Z" fill="#101010"/>
<path d="M33 29H32V30H33V29Z" fill="#5A9CA4"/>
<path d="M33 28H32V29H33V28Z" fill="#5A9CA4"/>
<path d="M33 27H32V28H33V27Z" fill="#5A9CA4"/>
<path d="M33 26H32V27H33V26Z" fill="#8BC5CD"/>
<path d="M33 25H32V26H33V25Z" fill="#8BC5CD"/>
<path d="M33 24H32V25H33V24Z" fill="#297383"/>
<path d="M33 23H32V24H33V23Z" fill="#8BC5CD"/>
<path d="M33 22H32V23H33V22Z" fill="#8BC5CD"/>
<path d="M33 21H32V22H33V21Z" fill="#8BC5CD"/>
<path d="M33 20H32V21H33V20Z" fill="#297383"/>
<path d="M32 31H31V32H32V31Z" fill="#101010"/>
<path d="M32 30H31V31H32V30Z" fill="#5A9CA4"/>
<path d="M32 29H31V30H32V29Z" fill="#101010"/>
<path d="M32 28H31V29H32V28Z" fill="#5A9CA4"/>
<path d="M32 27H31V28H32V27Z" fill="#5A9CA4"/>
<path d="M32 26H31V27H32V26Z" fill="#5A9CA4"/>
<path d="M32 25H31V26H32V25Z" fill="#297383"/>
<path d="M32 24H31V25H32V24Z" fill="#8BC5CD"/>
<path d="M32 23H31V24H32V23Z" fill="#8BC5CD"/>
<path d="M32 22H31V23H32V22Z" fill="#8BC5CD"/>
<path d="M32 21H31V22H32V21Z" fill="#8BC5CD"/>
<path d="M32 20H31V21H32V20Z" fill="#297383"/>
<path d="M31 31H30V32H31V31Z" fill="#101010"/>
<path d="M31 30H30V31H31V30Z" fill="#5A9CA4"/>
<path d="M31 29H30V30H31V29Z" fill="#5A9CA4"/>
<path d="M31 28H30V29H31V28Z" fill="#101010"/>
<path d="M31 27H30V28H31V27Z" fill="#101010"/>
<path d="M31 26H30V27H31V26Z" fill="#297383"/>
<path d="M31 25H30V26H31V25Z" fill="#5A9CA4"/>
<path d="M31 24H30V25H31V24Z" fill="#8BC5CD"/>
<path d="M31 23H30V24H31V23Z" fill="#8BC5CD"/>
<path d="M31 22H30V23H31V22Z" fill="#8BC5CD"/>
<path d="M31 21H30V22H31V21Z" fill="#297383"/>
<path d="M30 32H29V33H30V32Z" fill="#101010"/>
<path d="M30 31H29V32H30V31Z" fill="#5A9CA4"/>
<path d="M30 30H29V31H30V30Z" fill="#5A9CA4"/>
<path d="M30 29H29V30H30V29Z" fill="#5A9CA4"/>
<path d="M30 28H29V29H30V28Z" fill="#5A9CA4"/>
<path d="M30 27H29V28H30V27Z" fill="#5A9CA4"/>
<path d="M30 26H29V27H30V26Z" fill="#5A9CA4"/>
<path d="M30 25H29V26H30V25Z" fill="#5A9CA4"/>
<path d="M30 24H29V25H30V24Z" fill="#5A9CA4"/>
<path d="M30 23H29V24H30V23Z" fill="#8BC5CD"/>
<path d="M30 22H29V23H30V22Z" fill="#5A9CA4"/>
<path d="M30 21H29V22H30V21Z" fill="#297383"/>
<path d="M29 32H28V33H29V32Z" fill="#101010"/>
<path d="M29 31H28V32H29V31Z" fill="#5A9CA4"/>
<path d="M29 30H28V31H29V30Z" fill="#5A9CA4"/>
<path d="M29 29H28V30H29V29Z" fill="#5A9CA4"/>
<path d="M29 28H28V29H29V28Z" fill="#5A9CA4"/>
<path d="M29 27H28V28H29V27Z" fill="#5A9CA4"/>
<path d="M29 26H28V27H29V26Z" fill="#5A9CA4"/>
<path d="M29 25H28V26H29V25Z" fill="#5A9CA4"/>
<path d="M29 24H28V25H29V24Z" fill="#5A9CA4"/>
<path d="M29 23H28V24H29V23Z" fill="#5A9CA4"/>
<path d="M29 22H28V23H29V22Z" fill="#297383"/>
<path d="M29 14H28V15H29V14Z" fill="#101010"/>
<path d="M28 37H27V38H28V37Z" fill="#101010"/>
<path d="M28 36H27V37H28V36Z" fill="#101010"/>
<path d="M28 32H27V33H28V32Z" fill="#101010"/>
<path d="M28 31H27V32H28V31Z" fill="#5A9CA4"/>
<path d="M28 30H27V31H28V30Z" fill="#5A9CA4"/>
<path d="M28 29H27V30H28V29Z" fill="#5A9CA4"/>
<path d="M28 28H27V29H28V28Z" fill="#5A9CA4"/>
<path d="M28 27H27V28H28V27Z" fill="#5A9CA4"/>
<path d="M28 26H27V27H28V26Z" fill="#5A9CA4"/>
<path d="M28 25H27V26H28V25Z" fill="#5A9CA4"/>
<path d="M28 24H27V25H28V24Z" fill="#5A9CA4"/>
<path d="M28 23H27V24H28V23Z" fill="#297383"/>
<path d="M28 16H27V17H28V16Z" fill="#101010"/>
<path d="M28 15H27V16H28V15Z" fill="#101010"/>
<path d="M28 14H27V15H28V14Z" fill="#5A9CA4"/>
<path d="M28 13H27V14H28V13Z" fill="#297383"/>
<path d="M27 37H26V38H27V37Z" fill="#101010"/>
<path d="M27 36H26V37H27V36Z" fill="#5A9CA4"/>
<path d="M27 35H26V36H27V35Z" fill="#101010"/>
<path d="M27 34H26V35H27V34Z" fill="#101010"/>
<path d="M27 33H26V34H27V33Z" fill="#101010"/>
<path d="M27 32H26V33H27V32Z" fill="#101010"/>
<path d="M27 31H26V32H27V31Z" fill="#5A9CA4"/>
<path d="M27 30H26V31H27V30Z" fill="#5A9CA4"/>
<path d="M27 29H26V30H27V29Z" fill="#101010"/>
<path d="M27 28H26V29H27V28Z" fill="#101010"/>
<path d="M27 27H26V28H27V27Z" fill="#101010"/>
<path d="M27 26H26V27H27V26Z" fill="#622900"/>
<path d="M27 25H26V26H27V25Z" fill="#622900"/>
<path d="M27 24H26V25H27V24Z" fill="#101010"/>
<path d="M27 23H26V24H27V23Z" fill="#622900"/>
<path d="M27 22H26V23H27V22Z" fill="#622900"/>
<path d="M27 21H26V22H27V21Z" fill="#622900"/>
<path d="M27 18H26V19H27V18Z" fill="#101010"/>
<path d="M27 17H26V18H27V17Z" fill="#101010"/>
<path d="M27 16H26V17H27V16Z" fill="#5A9CA4"/>
<path d="M27 15H26V16H27V15Z" fill="#5A9CA4"/>
<path d="M27 14H26V15H27V14Z" fill="#5A9CA4"/>
<path d="M27 13H26V14H27V13Z" fill="#297383"/>
<path d="M26 38H25V39H26V38Z" fill="#101010"/>
<path d="M26 37H25V38H26V37Z" fill="#297383"/>
<path d="M26 36H25V37H26V36Z" fill="#5A9CA4"/>
<path d="M26 35H25V36H26V35Z" fill="#5A9CA4"/>
<path d="M26 34H25V35H26V34Z" fill="#5A9CA4"/>
<path d="M26 33H25V34H26V33Z" fill="#5A9CA4"/>
<path d="M26 32H25V33H26V32Z" fill="#297383"/>
<path d="M26 31H25V32H26V31Z" fill="#101010"/>
<path d="M26 30H25V31H26V30Z" fill="#297383"/>
<path d="M26 29H25V30H26V29Z" fill="#D5CDCD"/>
<path d="M26 28H25V29H26V28Z" fill="#BD6A00"/>
<path d="M26 27H25V28H26V27Z" fill="#BD6A00"/>
<path d="M26 26H25V27H26V26Z" fill="#BD6A00"/>
<path d="M26 25H25V26H26V25Z" fill="#101010"/>
<path d="M26 24H25V25H26V24Z" fill="#BD6A00"/>
<path d="M26 23H25V24H26V23Z" fill="#BD6A00"/>
<path d="M26 22H25V23H26V22Z" fill="#BD6A00"/>
<path d="M26 21H25V22H26V21Z" fill="#BD6A00"/>
<path d="M26 20H25V21H26V20Z" fill="#622900"/>
<path d="M26 19H25V20H26V19Z" fill="#101010"/>
<path d="M26 18H25V19H26V18Z" fill="#5A9CA4"/>
<path d="M26 17H25V18H26V17Z" fill="#5A9CA4"/>
<path d="M26 16H25V17H26V16Z" fill="#297383"/>
<path d="M26 15H25V16H26V15Z" fill="#297383"/>
<path d="M26 14H25V15H26V14Z" fill="#8BC5CD"/>
<path d="M26 13H25V14H26V13Z" fill="#297383"/>
<path d="M25 38H24V39H25V38Z" fill="#101010"/>
<path d="M25 37H24V38H25V37Z" fill="#8BC5CD"/>
<path d="M25 36H24V37H25V36Z" fill="#5A9CA4"/>
<path d="M25 35H24V36H25V35Z" fill="#5A9CA4"/>
<path d="M25 34H24V35H25V34Z" fill="#5A9CA4"/>
<path d="M25 33H24V34H25V33Z" fill="#5A9CA4"/>
<path d="M25 32H24V33H25V32Z" fill="#5A9CA4"/>
<path d="M25 31H24V32H25V31Z" fill="#5A9CA4"/>
<path d="M25 30H24V31H25V30Z" fill="#5A9CA4"/>
<path d="M25 29H24V30H25V29Z" fill="#297383"/>
<path d="M25 28H24V29H25V28Z" fill="#D5CDCD"/>
<path d="M25 27H24V28H25V27Z" fill="#D5CDCD"/>
<path d="M25 26H24V27H25V26Z" fill="#CD7A29"/>
<path d="M25 25H24V26H25V25Z" fill="#BD6A00"/>
<path d="M25 24H24V25H25V24Z" fill="#BD6A00"/>
<path d="M25 23H24V24H25V23Z" fill="#BD6A00"/>
<path d="M25 22H24V23H25V22Z" fill="#BD6A00"/>
<path d="M25 21H24V22H25V21Z" fill="#BD6A00"/>
<path d="M25 20H24V21H25V20Z" fill="#101010"/>
<path d="M25 19H24V20H25V19Z" fill="#5A9CA4"/>
<path d="M25 18H24V19H25V18Z" fill="#5A9CA4"/>
<path d="M25 17H24V18H25V17Z" fill="#5A9CA4"/>
<path d="M25 16H24V17H25V16Z" fill="#297383"/>
<path d="M25 15H24V16H25V15Z" fill="#8BC5CD"/>
<path d="M25 14H24V15H25V14Z" fill="#8BC5CD"/>
<path d="M25 13H24V14H25V13Z" fill="#5A9CA4"/>
<path d="M24 37H23V38H24V37Z" fill="#101010"/>
<path d="M24 36H23V37H24V36Z" fill="#5A9CA4"/>
<path d="M24 35H23V36H24V35Z" fill="#5A9CA4"/>
<path d="M24 34H23V35H24V34Z" fill="#5A9CA4"/>
<path d="M24 33H23V34H24V33Z" fill="#5A9CA4"/>
<path d="M24 32H23V33H24V32Z" fill="#8BC5CD"/>
<path d="M24 31H23V32H24V31Z" fill="#8BC5CD"/>
<path d="M24 30H23V31H24V30Z" fill="#8BC5CD"/>
<path d="M24 29H23V30H24V29Z" fill="#5A9CA4"/>
<path d="M24 28H23V29H24V28Z" fill="#297383"/>
<path d="M24 27H23V28H24V27Z" fill="#D5CDCD"/>
<path d="M24 26H23V27H24V26Z" fill="#D5CDCD"/>
<path d="M24 25H23V26H24V25Z" fill="#D5CDCD"/>
<path d="M24 24H23V25H24V24Z" fill="#D5CDCD"/>
<path d="M24 23H23V24H24V23Z" fill="#D5CDCD"/>
<path d="M24 22H23V23H24V22Z" fill="#D5CDCD"/>
<path d="M24 21H23V22H24V21Z" fill="#101010"/>
<path d="M24 20H23V21H24V20Z" fill="#5A9CA4"/>
<path d="M24 19H23V20H24V19Z" fill="#5A9CA4"/>
<path d="M24 18H23V19H24V18Z" fill="#5A9CA4"/>
<path d="M24 17H23V18H24V17Z" fill="#8BC5CD"/>
<path d="M24 16H23V17H24V16Z" fill="#8BC5CD"/>
<path d="M24 15H23V16H24V15Z" fill="#8BC5CD"/>
<path d="M24 14H23V15H24V14Z" fill="#5A9CA4"/>
<path d="M23 38H22V39H23V38Z" fill="#101010"/>
<path d="M23 37H22V38H23V37Z" fill="#5A9CA4"/>
<path d="M23 36H22V37H23V36Z" fill="#5A9CA4"/>
<path d="M23 35H22V36H23V35Z" fill="#5A9CA4"/>
<path d="M23 34H22V35H23V34Z" fill="#5A9CA4"/>
<path d="M23 33H22V34H23V33Z" fill="#8BC5CD"/>
<path d="M23 32H22V33H23V32Z" fill="#8BC5CD"/>
<path d="M23 31H22V32H23V31Z" fill="#8BC5CD"/>
<path d="M23 30H22V31H23V30Z" fill="#8BC5CD"/>
<path d="M23 29H22V30H23V29Z" fill="#8BC5CD"/>
<path d="M23 28H22V29H23V28Z" fill="#297383"/>
<path d="M23 27H22V28H23V27Z" fill="#622900"/>
<path d="M23 26H22V27H23V26Z" fill="#BD6A00"/>
<path d="M23 25H22V26H23V25Z" fill="#D5CDCD"/>
<path d="M23 24H22V25H23V24Z" fill="#D5CDCD"/>
<path d="M23 23H22V24H23V23Z" fill="#D5CDCD"/>
<path d="M23 22H22V23H23V22Z" fill="#101010"/>
<path d="M23 21H22V22H23V21Z" fill="#5A9CA4"/>
<path d="M23 20H22V21H23V20Z" fill="#5A9CA4"/>
<path d="M23 19H22V20H23V19Z" fill="#5A9CA4"/>
<path d="M23 18H22V19H23V18Z" fill="#8BC5CD"/>
<path d="M23 17H22V18H23V17Z" fill="#8BC5CD"/>
<path d="M23 16H22V17H23V16Z" fill="#8BC5CD"/>
<path d="M23 15H22V16H23V15Z" fill="#8BC5CD"/>
<path d="M23 12H22V13H23V12Z" fill="#101010"/>
<path d="M23 11H22V12H23V11Z" fill="#101010"/>
<path d="M23 10H22V11H23V10Z" fill="#101010"/>
<path d="M23 9H22V10H23V9Z" fill="#101010"/>
<path d="M23 8H22V9H23V8Z" fill="#101010"/>
<path d="M23 7H22V8H23V7Z" fill="#101010"/>
<path d="M23 6H22V7H23V6Z" fill="#297383"/>
<path d="M22 38H21V39H22V38Z" fill="#101010"/>
<path d="M22 37H21V38H22V37Z" fill="#8BC5CD"/>
<path d="M22 36H21V37H22V36Z" fill="#5A9CA4"/>
<path d="M22 35H21V36H22V35Z" fill="#5A9CA4"/>
<path d="M22 34H21V35H22V34Z" fill="#5A9CA4"/>
<path d="M22 33H21V34H22V33Z" fill="#8BC5CD"/>
<path d="M22 32H21V33H22V32Z" fill="#8BC5CD"/>
<path d="M22 31H21V32H22V31Z" fill="#8BC5CD"/>
<path d="M22 30H21V31H22V30Z" fill="#8BC5CD"/>
<path d="M22 29H21V30H22V29Z" fill="#8BC5CD"/>
<path d="M22 28H21V29H22V28Z" fill="#5A9CA4"/>
<path d="M22 27H21V28H22V27Z" fill="#CD7A29"/>
<path d="M22 26H21V27H22V26Z" fill="#CD7A29"/>
<path d="M22 25H21V26H22V25Z" fill="#BD6A00"/>
<path d="M22 24H21V25H22V24Z" fill="#622900"/>
<path d="M22 23H21V24H22V23Z" fill="#622900"/>
<path d="M22 22H21V23H22V22Z" fill="#101010"/>
<path d="M22 21H21V22H22V21Z" fill="#5A9CA4"/>
<path d="M22 20H21V21H22V20Z" fill="#5A9CA4"/>
<path d="M22 19H21V20H22V19Z" fill="#8BC5CD"/>
<path d="M22 18H21V19H22V18Z" fill="#8BC5CD"/>
<path d="M22 17H21V18H22V17Z" fill="#8BC5CD"/>
<path d="M22 16H21V17H22V16Z" fill="#8BC5CD"/>
<path d="M22 15H21V16H22V15Z" fill="#5A9CA4"/>
<path d="M22 14H21V15H22V14Z" fill="#5A9CA4"/>
<path d="M22 13H21V14H22V13Z" fill="#101010"/>
<path d="M22 12H21V13H22V12Z" fill="#5A9CA4"/>
<path d="M22 11H21V12H22V11Z" fill="#5A9CA4"/>
<path d="M22 10H21V11H22V10Z" fill="#5A9CA4"/>
<path d="M22 9H21V10H22V9Z" fill="#5A9CA4"/>
<path d="M22 8H21V9H22V8Z" fill="#5A9CA4"/>
<path d="M22 7H21V8H22V7Z" fill="#5A9CA4"/>
<path d="M22 6H21V7H22V6Z" fill="#5A9CA4"/>
<path d="M22 5H21V6H22V5Z" fill="#297383"/>
<path d="M22 4H21V5H22V4Z" fill="#297383"/>
<path d="M21 37H20V38H21V37Z" fill="#101010"/>
<path d="M21 36H20V37H21V36Z" fill="#101010"/>
<path d="M21 35H20V36H21V35Z" fill="#5A9CA4"/>
<path d="M21 34H20V35H21V34Z" fill="#5A9CA4"/>
<path d="M21 33H20V34H21V33Z" fill="#8BC5CD"/>
<path d="M21 32H20V33H21V32Z" fill="#8BC5CD"/>
<path d="M21 31H20V32H21V31Z" fill="#8BC5CD"/>
<path d="M21 30H20V31H21V30Z" fill="#8BC5CD"/>
<path d="M21 29H20V30H21V29Z" fill="#8BC5CD"/>
<path d="M21 28H20V29H21V28Z" fill="#5A9CA4"/>
<path d="M21 27H20V28H21V27Z" fill="#E6AC5A"/>
<path d="M21 26H20V27H21V26Z" fill="#E6AC5A"/>
<path d="M21 25H20V26H21V25Z" fill="#E6AC5A"/>
<path d="M21 24H20V25H21V24Z" fill="#E6AC5A"/>
<path d="M21 23H20V24H21V23Z" fill="#E6AC5A"/>
<path d="M21 22H20V23H21V22Z" fill="#101010"/>
<path d="M21 21H20V22H21V21Z" fill="#5A9CA4"/>
<path d="M21 20H20V21H21V20Z" fill="#5A9CA4"/>
<path d="M21 19H20V20H21V19Z" fill="#8BC5CD"/>
<path d="M21 18H20V19H21V18Z" fill="#8BC5CD"/>
<path d="M21 17H20V18H21V17Z" fill="#5A9CA4"/>
<path d="M21 16H20V17H21V16Z" fill="#5A9CA4"/>
<path d="M21 15H20V16H21V15Z" fill="#101010"/>
<path d="M21 14H20V15H21V14Z" fill="#5A9CA4"/>
<path d="M21 13H20V14H21V13Z" fill="#5A9CA4"/>
<path d="M21 12H20V13H21V12Z" fill="#5A9CA4"/>
<path d="M21 11H20V12H21V11Z" fill="#5A9CA4"/>
<path d="M21 10H20V11H21V10Z" fill="#5A9CA4"/>
<path d="M21 9H20V10H21V9Z" fill="#5A9CA4"/>
<path d="M21 8H20V9H21V8Z" fill="#5A9CA4"/>
<path d="M21 7H20V8H21V7Z" fill="#5A9CA4"/>
<path d="M21 6H20V7H21V6Z" fill="#8BC5CD"/>
<path d="M21 5H20V6H21V5Z" fill="#8BC5CD"/>
<path d="M21 4H20V5H21V4Z" fill="#8BC5CD"/>
<path d="M21 3H20V4H21V3Z" fill="#297383"/>
<path d="M20 35H19V36H20V35Z" fill="#101010"/>
<path d="M20 34H19V35H20V34Z" fill="#297383"/>
<path d="M20 33H19V34H20V33Z" fill="#5A9CA4"/>
<path d="M20 32H19V33H20V32Z" fill="#8BC5CD"/>
<path d="M20 31H19V32H20V31Z" fill="#8BC5CD"/>
<path d="M20 30H19V31H20V30Z" fill="#8BC5CD"/>
<path d="M20 29H19V30H20V29Z" fill="#5A9CA4"/>
<path d="M20 28H19V29H20V28Z" fill="#E6AC5A"/>
<path d="M20 27H19V28H20V27Z" fill="#FBD56A"/>
<path d="M20 26H19V27H20V26Z" fill="#FBD56A"/>
<path d="M20 25H19V26H20V25Z" fill="#E6AC5A"/>
<path d="M20 24H19V25H20V24Z" fill="#E6AC5A"/>
<path d="M20 23H19V24H20V23Z" fill="#E6AC5A"/>
<path d="M20 22H19V23H20V22Z" fill="#E6AC5A"/>
<path d="M20 21H19V22H20V21Z" fill="#297383"/>
<path d="M20 20H19V21H20V20Z" fill="#5A9CA4"/>
<path d="M20 19H19V20H20V19Z" fill="#5A9CA4"/>
<path d="M20 18H19V19H20V18Z" fill="#297383"/>
<path d="M20 17H19V18H20V17Z" fill="#D5CDCD"/>
<path d="M20 16H19V17H20V16Z" fill="#101010"/>
<path d="M20 15H19V16H20V15Z" fill="#5A9CA4"/>
<path d="M20 14H19V15H20V14Z" fill="#5A9CA4"/>
<path d="M20 13H19V14H20V13Z" fill="#5A9CA4"/>
<path d="M20 12H19V13H20V12Z" fill="#5A9CA4"/>
<path d="M20 11H19V12H20V11Z" fill="#5A9CA4"/>
<path d="M20 10H19V11H20V10Z" fill="#5A9CA4"/>
<path d="M20 9H19V10H20V9Z" fill="#5A9CA4"/>
<path d="M20 8H19V9H20V8Z" fill="#5A9CA4"/>
<path d="M20 7H19V8H20V7Z" fill="#8BC5CD"/>
<path d="M20 6H19V7H20V6Z" fill="#8BC5CD"/>
<path d="M20 5H19V6H20V5Z" fill="#8BC5CD"/>
<path d="M20 4H19V5H20V4Z" fill="#8BC5CD"/>
<path d="M20 3H19V4H20V3Z" fill="#8BC5CD"/>
<path d="M20 2H19V3H20V2Z" fill="#297383"/>
<path d="M19 34H18V35H19V34Z" fill="#101010"/>
<path d="M19 33H18V34H19V33Z" fill="#101010"/>
<path d="M19 32H18V33H19V32Z" fill="#297383"/>
<path d="M19 31H18V32H19V31Z" fill="#297383"/>
<path d="M19 30H18V31H19V30Z" fill="#5A9CA4"/>
<path d="M19 29H18V30H19V29Z" fill="#E6AC5A"/>
<path d="M19 28H18V29H19V28Z" fill="#BD6A00"/>
<path d="M19 27H18V28H19V27Z" fill="#FBD56A"/>
<path d="M19 26H18V27H19V26Z" fill="#FBD56A"/>
<path d="M19 25H18V26H19V25Z" fill="#FBD56A"/>
<path d="M19 24H18V25H19V24Z" fill="#FBD56A"/>
<path d="M19 23H18V24H19V23Z" fill="#E6AC5A"/>
<path d="M19 22H18V23H19V22Z" fill="#BD6A00"/>
<path d="M19 21H18V22H19V21Z" fill="#BD6A00"/>
<path d="M19 20H18V21H19V20Z" fill="#297383"/>
<path d="M19 19H18V20H19V19Z" fill="#297383"/>
<path d="M19 18H18V19H19V18Z" fill="#E6AC5A"/>
<path d="M19 17H18V18H19V17Z" fill="#CD7A29"/>
<path d="M19 16H18V17H19V16Z" fill="#297383"/>
<path d="M19 15H18V16H19V15Z" fill="#5A9CA4"/>
<path d="M19 14H18V15H19V14Z" fill="#5A9CA4"/>
<path d="M19 13H18V14H19V13Z" fill="#5A9CA4"/>
<path d="M19 12H18V13H19V12Z" fill="#5A9CA4"/>
<path d="M19 11H18V12H19V11Z" fill="#5A9CA4"/>
<path d="M19 10H18V11H19V10Z" fill="#297383"/>
<path d="M19 9H18V10H19V9Z" fill="#297383"/>
<path d="M19 8H18V9H19V8Z" fill="#297383"/>
<path d="M19 7H18V8H19V7Z" fill="#5A9CA4"/>
<path d="M19 6H18V7H19V6Z" fill="#8BC5CD"/>
<path d="M19 5H18V6H19V5Z" fill="#8BC5CD"/>
<path d="M19 4H18V5H19V4Z" fill="#8BC5CD"/>
<path d="M19 3H18V4H19V3Z" fill="#8BC5CD"/>
<path d="M19 2H18V3H19V2Z" fill="#8BC5CD"/>
<path d="M19 1H18V2H19V1Z" fill="#297383"/>
<path d="M18 34H17V35H18V34Z" fill="#101010"/>
<path d="M18 33H17V34H18V33Z" fill="#BD6A00"/>
<path d="M18 32H17V33H18V32Z" fill="#BD6A00"/>
<path d="M18 31H17V32H18V31Z" fill="#E6AC5A"/>
<path d="M18 30H17V31H18V30Z" fill="#E6AC5A"/>
<path d="M18 29H17V30H18V29Z" fill="#E6AC5A"/>
<path d="M18 28H17V29H18V28Z" fill="#E6AC5A"/>
<path d="M18 27H17V28H18V27Z" fill="#BD6A00"/>
<path d="M18 26H17V27H18V26Z" fill="#FBD56A"/>
<path d="M18 25H17V26H18V25Z" fill="#FBD56A"/>
<path d="M18 24H17V25H18V24Z" fill="#CD7A29"/>
<path d="M18 23H17V24H18V23Z" fill="#E6AC5A"/>
<path d="M18 22H17V23H18V22Z" fill="#FBD56A"/>
<path d="M18 21H17V22H18V21Z" fill="#FBD56A"/>
<path d="M18 20H17V21H18V20Z" fill="#BD6A00"/>
<path d="M18 19H17V20H18V19Z" fill="#E6AC5A"/>
<path d="M18 18H17V19H18V18Z" fill="#E6AC5A"/>
<path d="M18 17H17V18H18V17Z" fill="#101010"/>
<path d="M18 16H17V17H18V16Z" fill="#5A9CA4"/>
<path d="M18 15H17V16H18V15Z" fill="#5A9CA4"/>
<path d="M18 14H17V15H18V14Z" fill="#832900"/>
<path d="M18 13H17V14H18V13Z" fill="#297383"/>
<path d="M18 12H17V13H18V12Z" fill="#5A9CA4"/>
<path d="M18 11H17V12H18V11Z" fill="white"/>
<path d="M18 10H17V11H18V10Z" fill="white"/>
<path d="M18 9H17V10H18V9Z" fill="white"/>
<path d="M18 8H17V9H18V8Z" fill="#D5CDCD"/>
<path d="M18 7H17V8H18V7Z" fill="#D5CDCD"/>
<path d="M18 6H17V7H18V6Z" fill="#5A9CA4"/>
<path d="M18 5H17V6H18V5Z" fill="#8BC5CD"/>
<path d="M18 4H17V5H18V4Z" fill="#8BC5CD"/>
<path d="M18 3H17V4H18V3Z" fill="#8BC5CD"/>
<path d="M18 2H17V3H18V2Z" fill="#8BC5CD"/>
<path d="M18 1H17V2H18V1Z" fill="#297383"/>
<path d="M17 34H16V35H17V34Z" fill="#101010"/>
<path d="M17 33H16V34H17V33Z" fill="#E6AC5A"/>
<path d="M17 32H16V33H17V32Z" fill="#BD6A00"/>
<path d="M17 31H16V32H17V31Z" fill="#E6AC5A"/>
<path d="M17 30H16V31H17V30Z" fill="#E6AC5A"/>
<path d="M17 29H16V30H17V29Z" fill="#FBD56A"/>
<path d="M17 28H16V29H17V28Z" fill="#FBD56A"/>
<path d="M17 27H16V28H17V27Z" fill="#E6AC5A"/>
<path d="M17 26H16V27H17V26Z" fill="#BD6A00"/>
<path d="M17 25H16V26H17V25Z" fill="#BD6A00"/>
<path d="M17 24H16V25H17V24Z" fill="#FBD56A"/>
<path d="M17 23H16V24H17V23Z" fill="#FBD56A"/>
<path d="M17 22H16V23H17V22Z" fill="#FBD56A"/>
<path d="M17 21H16V22H17V21Z" fill="#FBD56A"/>
<path d="M17 20H16V21H17V20Z" fill="#BD6A00"/>
<path d="M17 19H16V20H17V19Z" fill="#E6AC5A"/>
<path d="M17 18H16V19H17V18Z" fill="#E6AC5A"/>
<path d="M17 17H16V18H17V17Z" fill="#101010"/>
<path d="M17 16H16V17H17V16Z" fill="#5A9CA4"/>
<path d="M17 15H16V16H17V15Z" fill="#832900"/>
<path d="M17 14H16V15H17V14Z" fill="#832900"/>
<path d="M17 13H16V14H17V13Z" fill="#5A9CA4"/>
<path d="M17 12H16V13H17V12Z" fill="#5A9CA4"/>
<path d="M17 11H16V12H17V11Z" fill="#832900"/>
<path d="M17 10H16V11H17V10Z" fill="#832900"/>
<path d="M17 9H16V10H17V9Z" fill="#832900"/>
<path d="M17 8H16V9H17V8Z" fill="#101010"/>
<path d="M17 7H16V8H17V7Z" fill="#D5CDCD"/>
<path d="M17 6H16V7H17V6Z" fill="#5A9CA4"/>
<path d="M17 5H16V6H17V5Z" fill="#8BC5CD"/>
<path d="M17 4H16V5H17V4Z" fill="#8BC5CD"/>
<path d="M17 3H16V4H17V3Z" fill="#8BC5CD"/>
<path d="M17 2H16V3H17V2Z" fill="#8BC5CD"/>
<path d="M17 1H16V2H17V1Z" fill="#8BC5CD"/>
<path d="M17 0H16V1H17V0Z" fill="#297383"/>
<path d="M16 34H15V35H16V34Z" fill="#101010"/>
<path d="M16 33H15V34H16V33Z" fill="#E6AC5A"/>
<path d="M16 32H15V33H16V32Z" fill="#BD6A00"/>
<path d="M16 31H15V32H16V31Z" fill="#E6AC5A"/>
<path d="M16 30H15V31H16V30Z" fill="#E6AC5A"/>
<path d="M16 29H15V30H16V29Z" fill="#FCE69C"/>
<path d="M16 28H15V29H16V28Z" fill="#FCE69C"/>
<path d="M16 27H15V28H16V27Z" fill="#FBD56A"/>
<path d="M16 26H15V27H16V26Z" fill="#BD6A00"/>
<path d="M16 25H15V26H16V25Z" fill="#FBD56A"/>
<path d="M16 24H15V25H16V24Z" fill="#FCE69C"/>
<path d="M16 23H15V24H16V23Z" fill="#FCE69C"/>
<path d="M16 22H15V23H16V22Z" fill="#FCE69C"/>
<path d="M16 21H15V22H16V21Z" fill="#FBD56A"/>
<path d="M16 20H15V21H16V20Z" fill="#BD6A00"/>
<path d="M16 19H15V20H16V19Z" fill="#E6AC5A"/>
<path d="M16 18H15V19H16V18Z" fill="#101010"/>
<path d="M16 17H15V18H16V17Z" fill="#5A9CA4"/>
<path d="M16 16H15V17H16V16Z" fill="#5A9CA4"/>
<path d="M16 15H15V16H16V15Z" fill="#832900"/>
<path d="M16 14H15V15H16V14Z" fill="#297383"/>
<path d="M16 13H15V14H16V13Z" fill="#5A9CA4"/>
<path d="M16 12H15V13H16V12Z" fill="#8BC5CD"/>
<path d="M16 11H15V12H16V11Z" fill="#101010"/>
<path d="M16 10H15V11H16V10Z" fill="#101010"/>
<path d="M16 9H15V10H16V9Z" fill="#101010"/>
<path d="M16 8H15V9H16V8Z" fill="#101010"/>
<path d="M16 7H15V8H16V7Z" fill="#101010"/>
<path d="M16 6H15V7H16V6Z" fill="#5A9CA4"/>
<path d="M16 5H15V6H16V5Z" fill="#8BC5CD"/>
<path d="M16 4H15V5H16V4Z" fill="#8BC5CD"/>
<path d="M16 3H15V4H16V3Z" fill="#8BC5CD"/>
<path d="M16 2H15V3H16V2Z" fill="#8BC5CD"/>
<path d="M16 1H15V2H16V1Z" fill="#8BC5CD"/>
<path d="M16 0H15V1H16V0Z" fill="#297383"/>
<path d="M15 34H14V35H15V34Z" fill="#832900"/>
<path d="M15 33H14V34H15V33Z" fill="#E6AC5A"/>
<path d="M15 32H14V33H15V32Z" fill="#E6AC5A"/>
<path d="M15 31H14V32H15V31Z" fill="#BD6A00"/>
<path d="M15 30H14V31H15V30Z" fill="#E6AC5A"/>
<path d="M15 29H14V30H15V29Z" fill="#FCE69C"/>
<path d="M15 28H14V29H15V28Z" fill="#FCE69C"/>
<path d="M15 27H14V28H15V27Z" fill="#FCE69C"/>
<path d="M15 26H14V27H15V26Z" fill="#E6AC5A"/>
<path d="M15 25H14V26H15V25Z" fill="#FCE69C"/>
<path d="M15 24H14V25H15V24Z" fill="#FCE69C"/>
<path d="M15 23H14V24H15V23Z" fill="#FCE69C"/>
<path d="M15 22H14V23H15V22Z" fill="#FCE69C"/>
<path d="M15 21H14V22H15V21Z" fill="#E6AC5A"/>
<path d="M15 20H14V21H15V20Z" fill="#BD6A00"/>
<path d="M15 19H14V20H15V19Z" fill="#FBD56A"/>
<path d="M15 18H14V19H15V18Z" fill="#101010"/>
<path d="M15 17H14V18H15V17Z" fill="#5A9CA4"/>
<path d="M15 16H14V17H15V16Z" fill="#832900"/>
<path d="M15 15H14V16H15V15Z" fill="#CD7A29"/>
<path d="M15 14H14V15H15V14Z" fill="#297383"/>
<path d="M15 13H14V14H15V13Z" fill="#8BC5CD"/>
<path d="M15 12H14V13H15V12Z" fill="#8BC5CD"/>
<path d="M15 11H14V12H15V11Z" fill="#832900"/>
<path d="M15 10H14V11H15V10Z" fill="white"/>
<path d="M15 9H14V10H15V9Z" fill="#101010"/>
<path d="M15 8H14V9H15V8Z" fill="#101010"/>
<path d="M15 7H14V8H15V7Z" fill="#5A9CA4"/>
<path d="M15 6H14V7H15V6Z" fill="#8BC5CD"/>
<path d="M15 5H14V6H15V5Z" fill="#5A9CA4"/>
<path d="M15 4H14V5H15V4Z" fill="#8BC5CD"/>
<path d="M15 3H14V4H15V3Z" fill="#8BC5CD"/>
<path d="M15 2H14V3H15V2Z" fill="#8BC5CD"/>
<path d="M15 1H14V2H15V1Z" fill="#B4E6EE"/>
<path d="M15 0H14V1H15V0Z" fill="#5A9CA4"/>
<path d="M14 34H13V35H14V34Z" fill="#832900"/>
<path d="M14 33H13V34H14V33Z" fill="#E6AC5A"/>
<path d="M14 32H13V33H14V32Z" fill="#E6AC5A"/>
<path d="M14 31H13V32H14V31Z" fill="#BD6A00"/>
<path d="M14 30H13V31H14V30Z" fill="#E6AC5A"/>
<path d="M14 29H13V30H14V29Z" fill="#FCE69C"/>
<path d="M14 28H13V29H14V28Z" fill="#FCE69C"/>
<path d="M14 27H13V28H14V27Z" fill="#FCE69C"/>
<path d="M14 26H13V27H14V26Z" fill="#E6AC5A"/>
<path d="M14 25H13V26H14V25Z" fill="#FCE69C"/>
<path d="M14 24H13V25H14V24Z" fill="#FCE69C"/>
<path d="M14 23H13V24H14V23Z" fill="#FCE69C"/>
<path d="M14 22H13V23H14V22Z" fill="#FCE69C"/>
<path d="M14 21H13V22H14V21Z" fill="#BD6A00"/>
<path d="M14 20H13V21H14V20Z" fill="#FBD56A"/>
<path d="M14 19H13V20H14V19Z" fill="#FBD56A"/>
<path d="M14 18H13V19H14V18Z" fill="#101010"/>
<path d="M14 17H13V18H14V17Z" fill="#5A9CA4"/>
<path d="M14 16H13V17H14V16Z" fill="#832900"/>
<path d="M14 15H13V16H14V15Z" fill="#CD7A29"/>
<path d="M14 14H13V15H14V14Z" fill="#297383"/>
<path d="M14 13H13V14H14V13Z" fill="#8BC5CD"/>
<path d="M14 12H13V13H14V12Z" fill="#8BC5CD"/>
<path d="M14 11H13V12H14V11Z" fill="#8BC5CD"/>
<path d="M14 10H13V11H14V10Z" fill="#8BC5CD"/>
<path d="M14 9H13V10H14V9Z" fill="#8BC5CD"/>
<path d="M14 8H13V9H14V8Z" fill="#8BC5CD"/>
<path d="M14 7H13V8H14V7Z" fill="#8BC5CD"/>
<path d="M14 6H13V7H14V6Z" fill="#5A9CA4"/>
<path d="M14 5H13V6H14V5Z" fill="#8BC5CD"/>
<path d="M14 4H13V5H14V4Z" fill="#8BC5CD"/>
<path d="M14 3H13V4H14V3Z" fill="#8BC5CD"/>
<path d="M14 2H13V3H14V2Z" fill="#8BC5CD"/>
<path d="M14 1H13V2H14V1Z" fill="#B4E6EE"/>
<path d="M14 0H13V1H14V0Z" fill="#5A9CA4"/>
<path d="M13 35H12V36H13V35Z" fill="#101010"/>
<path d="M13 34H12V35H13V34Z" fill="#101010"/>
<path d="M13 33H12V34H13V33Z" fill="#832900"/>
<path d="M13 32H12V33H13V32Z" fill="#E6AC5A"/>
<path d="M13 31H12V32H13V31Z" fill="#E6AC5A"/>
<path d="M13 30H12V31H13V30Z" fill="#BD6A00"/>
<path d="M13 29H12V30H13V29Z" fill="#FBD56A"/>
<path d="M13 28H12V29H13V28Z" fill="#FCE69C"/>
<path d="M13 27H12V28H13V27Z" fill="#FCE69C"/>
<path d="M13 26H12V27H13V26Z" fill="#BD6A00"/>
<path d="M13 25H12V26H13V25Z" fill="#FCE69C"/>
<path d="M13 24H12V25H13V24Z" fill="#FCE69C"/>
<path d="M13 23H12V24H13V23Z" fill="#FCE69C"/>
<path d="M13 22H12V23H13V22Z" fill="#FCE69C"/>
<path d="M13 21H12V22H13V21Z" fill="#BD6A00"/>
<path d="M13 20H12V21H13V20Z" fill="#FBD56A"/>
<path d="M13 19H12V20H13V19Z" fill="#FBD56A"/>
<path d="M13 18H12V19H13V18Z" fill="#101010"/>
<path d="M13 17H12V18H13V17Z" fill="#5A9CA4"/>
<path d="M13 16H12V17H13V16Z" fill="#832900"/>
<path d="M13 15H12V16H13V15Z" fill="#CD7A29"/>
<path d="M13 14H12V15H13V14Z" fill="#297383"/>
<path d="M13 13H12V14H13V13Z" fill="#8BC5CD"/>
<path d="M13 12H12V13H13V12Z" fill="#8BC5CD"/>
<path d="M13 11H12V12H13V11Z" fill="#8BC5CD"/>
<path d="M13 10H12V11H13V10Z" fill="#8BC5CD"/>
<path d="M13 9H12V10H13V9Z" fill="#8BC5CD"/>
<path d="M13 8H12V9H13V8Z" fill="#8BC5CD"/>
<path d="M13 7H12V8H13V7Z" fill="#8BC5CD"/>
<path d="M13 6H12V7H13V6Z" fill="#8BC5CD"/>
<path d="M13 5H12V6H13V5Z" fill="#8BC5CD"/>
<path d="M13 4H12V5H13V4Z" fill="#8BC5CD"/>
<path d="M13 3H12V4H13V3Z" fill="#8BC5CD"/>
<path d="M13 2H12V3H13V2Z" fill="#B4E6EE"/>
<path d="M13 1H12V2H13V1Z" fill="#B4E6EE"/>
<path d="M13 0H12V1H13V0Z" fill="#5A9CA4"/>
<path d="M12 36H11V37H12V36Z" fill="#101010"/>
<path d="M12 35H11V36H12V35Z" fill="#101010"/>
<path d="M12 34H11V35H12V34Z" fill="#5A9CA4"/>
<path d="M12 33H11V34H12V33Z" fill="#832900"/>
<path d="M12 32H11V33H12V32Z" fill="#E6AC5A"/>
<path d="M12 31H11V32H12V31Z" fill="#E6AC5A"/>
<path d="M12 30H11V31H12V30Z" fill="#BD6A00"/>
<path d="M12 29H11V30H12V29Z" fill="#E6AC5A"/>
<path d="M12 28H11V29H12V28Z" fill="#E6AC5A"/>
<path d="M12 27H11V28H12V27Z" fill="#BD6A00"/>
<path d="M12 26H11V27H12V26Z" fill="#BD6A00"/>
<path d="M12 25H11V26H12V25Z" fill="#BD6A00"/>
<path d="M12 24H11V25H12V24Z" fill="#E6AC5A"/>
<path d="M12 23H11V24H12V23Z" fill="#E6AC5A"/>
<path d="M12 22H11V23H12V22Z" fill="#E6AC5A"/>
<path d="M12 21H11V22H12V21Z" fill="#BD6A00"/>
<path d="M12 20H11V21H12V20Z" fill="#FBD56A"/>
<path d="M12 19H11V20H12V19Z" fill="#FBD56A"/>
<path d="M12 18H11V19H12V18Z" fill="#101010"/>
<path d="M12 17H11V18H12V17Z" fill="#5A9CA4"/>
<path d="M12 16H11V17H12V16Z" fill="#832900"/>
<path d="M12 15H11V16H12V15Z" fill="#CD7A29"/>
<path d="M12 14H11V15H12V14Z" fill="#297383"/>
<path d="M12 13H11V14H12V13Z" fill="#8BC5CD"/>
<path d="M12 12H11V13H12V12Z" fill="#8BC5CD"/>
<path d="M12 11H11V12H12V11Z" fill="#8BC5CD"/>
<path d="M12 10H11V11H12V10Z" fill="#8BC5CD"/>
<path d="M12 9H11V10H12V9Z" fill="#8BC5CD"/>
<path d="M12 8H11V9H12V8Z" fill="#8BC5CD"/>
<path d="M12 7H11V8H12V7Z" fill="#8BC5CD"/>
<path d="M12 6H11V7H12V6Z" fill="#8BC5CD"/>
<path d="M12 5H11V6H12V5Z" fill="#8BC5CD"/>
<path d="M12 4H11V5H12V4Z" fill="#8BC5CD"/>
<path d="M12 3H11V4H12V3Z" fill="#B4E6EE"/>
<path d="M12 2H11V3H12V2Z" fill="#B4E6EE"/>
<path d="M12 1H11V2H12V1Z" fill="#B4E6EE"/>
<path d="M12 0H11V1H12V0Z" fill="#5A9CA4"/>
<path d="M11 36H10V37H11V36Z" fill="#101010"/>
<path d="M11 35H10V36H11V35Z" fill="#5A9CA4"/>
<path d="M11 34H10V35H11V34Z" fill="#5A9CA4"/>
<path d="M11 33H10V34H11V33Z" fill="#5A9CA4"/>
<path d="M11 32H10V33H11V32Z" fill="#832900"/>
<path d="M11 31H10V32H11V31Z" fill="#BD6A00"/>
<path d="M11 30H10V31H11V30Z" fill="#E6AC5A"/>
<path d="M11 29H10V30H11V29Z" fill="#FBD56A"/>
<path d="M11 28H10V29H11V28Z" fill="#FCE69C"/>
<path d="M11 27H10V28H11V27Z" fill="#FCE69C"/>
<path d="M11 26H10V27H11V26Z" fill="#BD6A00"/>
<path d="M11 25H10V26H11V25Z" fill="#FCE69C"/>
<path d="M11 24H10V25H11V24Z" fill="#FCE69C"/>
<path d="M11 23H10V24H11V23Z" fill="#FCE69C"/>
<path d="M11 22H10V23H11V22Z" fill="#FBD56A"/>
<path d="M11 21H10V22H11V21Z" fill="#BD6A00"/>
<path d="M11 20H10V21H11V20Z" fill="#FBD56A"/>
<path d="M11 19H10V20H11V19Z" fill="#E6AC5A"/>
<path d="M11 18H10V19H11V18Z" fill="#297383"/>
<path d="M11 17H10V18H11V17Z" fill="#5A9CA4"/>
<path d="M11 16H10V17H11V16Z" fill="#832900"/>
<path d="M11 15H10V16H11V15Z" fill="#832900"/>
<path d="M11 14H10V15H11V14Z" fill="#5A9CA4"/>
<path d="M11 13H10V14H11V13Z" fill="#8BC5CD"/>
<path d="M11 12H10V13H11V12Z" fill="#8BC5CD"/>
<path d="M11 11H10V12H11V11Z" fill="#8BC5CD"/>
<path d="M11 10H10V11H11V10Z" fill="#8BC5CD"/>
<path d="M11 9H10V10H11V9Z" fill="#8BC5CD"/>
<path d="M11 8H10V9H11V8Z" fill="#8BC5CD"/>
<path d="M11 7H10V8H11V7Z" fill="#8BC5CD"/>
<path d="M11 6H10V7H11V6Z" fill="#8BC5CD"/>
<path d="M11 5H10V6H11V5Z" fill="#8BC5CD"/>
<path d="M11 4H10V5H11V4Z" fill="#B4E6EE"/>
<path d="M11 3H10V4H11V3Z" fill="#B4E6EE"/>
<path d="M11 2H10V3H11V2Z" fill="#B4E6EE"/>
<path d="M11 1H10V2H11V1Z" fill="#5A9CA4"/>
<path d="M10 37H9V38H10V37Z" fill="#101010"/>
<path d="M10 36H9V37H10V36Z" fill="#5A9CA4"/>
<path d="M10 35H9V36H10V35Z" fill="#5A9CA4"/>
<path d="M10 34H9V35H10V34Z" fill="#5A9CA4"/>
<path d="M10 33H9V34H10V33Z" fill="#5A9CA4"/>
<path d="M10 32H9V33H10V32Z" fill="#5A9CA4"/>
<path d="M10 31H9V32H10V31Z" fill="#BD6A00"/>
<path d="M10 30H9V31H10V30Z" fill="#E6AC5A"/>
<path d="M10 29H9V30H10V29Z" fill="#FBD56A"/>
<path d="M10 28H9V29H10V28Z" fill="#FCE69C"/>
<path d="M10 27H9V28H10V27Z" fill="#FCE69C"/>
<path d="M10 26H9V27H10V26Z" fill="#E6AC5A"/>
<path d="M10 25H9V26H10V25Z" fill="#FBD56A"/>
<path d="M10 24H9V25H10V24Z" fill="#FCE69C"/>
<path d="M10 23H9V24H10V23Z" fill="#FCE69C"/>
<path d="M10 22H9V23H10V22Z" fill="#FCE69C"/>
<path d="M10 21H9V22H10V21Z" fill="#FCE69C"/>
<path d="M10 20H9V21H10V20Z" fill="#BD6A00"/>
<path d="M10 19H9V20H10V19Z" fill="#BD6A00"/>
<path d="M10 18H9V19H10V18Z" fill="#5A9CA4"/>
<path d="M10 17H9V18H10V17Z" fill="#297383"/>
<path d="M10 16H9V17H10V16Z" fill="#5A9CA4"/>
<path d="M10 15H9V16H10V15Z" fill="#101010"/>
<path d="M10 14H9V15H10V14Z" fill="#8BC5CD"/>
<path d="M10 13H9V14H10V13Z" fill="#8BC5CD"/>
<path d="M10 12H9V13H10V12Z" fill="#5A9CA4"/>
<path d="M10 11H9V12H10V11Z" fill="#8BC5CD"/>
<path d="M10 10H9V11H10V10Z" fill="#8BC5CD"/>
<path d="M10 9H9V10H10V9Z" fill="#8BC5CD"/>
<path d="M10 8H9V9H10V8Z" fill="#8BC5CD"/>
<path d="M10 7H9V8H10V7Z" fill="#8BC5CD"/>
<path d="M10 6H9V7H10V6Z" fill="#8BC5CD"/>
<path d="M10 5H9V6H10V5Z" fill="#8BC5CD"/>
<path d="M10 4H9V5H10V4Z" fill="#B4E6EE"/>
<path d="M10 3H9V4H10V3Z" fill="#B4E6EE"/>
<path d="M10 2H9V3H10V2Z" fill="#B4E6EE"/>
<path d="M10 1H9V2H10V1Z" fill="#5A9CA4"/>
<path d="M9 37H8V38H9V37Z" fill="#101010"/>
<path d="M9 36H8V37H9V36Z" fill="#8BC5CD"/>
<path d="M9 35H8V36H9V35Z" fill="#5A9CA4"/>
<path d="M9 34H8V35H9V34Z" fill="#5A9CA4"/>
<path d="M9 33H8V34H9V33Z" fill="#5A9CA4"/>
<path d="M9 32H8V33H9V32Z" fill="#8BC5CD"/>
<path d="M9 31H8V32H9V31Z" fill="#8BC5CD"/>
<path d="M9 30H8V31H9V30Z" fill="#BD6A00"/>
<path d="M9 29H8V30H9V29Z" fill="#BD6A00"/>
<path d="M9 28H8V29H9V28Z" fill="#FBD56A"/>
<path d="M9 27H8V28H9V27Z" fill="#FCE69C"/>
<path d="M9 26H8V27H9V26Z" fill="#FCE69C"/>
<path d="M9 25H8V26H9V25Z" fill="#BD6A00"/>
<path d="M9 24H8V25H9V24Z" fill="#FCE69C"/>
<path d="M9 23H8V24H9V23Z" fill="#FCE69C"/>
<path d="M9 22H8V23H9V22Z" fill="#FCE69C"/>
<path d="M9 21H8V22H9V21Z" fill="#BD6A00"/>
<path d="M9 20H8V21H9V20Z" fill="#BD6A00"/>
<path d="M9 19H8V20H9V19Z" fill="#5A9CA4"/>
<path d="M9 18H8V19H9V18Z" fill="#5A9CA4"/>
<path d="M9 17H8V18H9V17Z" fill="#101010"/>
<path d="M9 16H8V17H9V16Z" fill="#5A9CA4"/>
<path d="M9 15H8V16H9V15Z" fill="#101010"/>
<path d="M9 14H8V15H9V14Z" fill="#8BC5CD"/>
<path d="M9 13H8V14H9V13Z" fill="#8BC5CD"/>
<path d="M9 12H8V13H9V12Z" fill="#8BC5CD"/>
<path d="M9 11H8V12H9V11Z" fill="#8BC5CD"/>
<path d="M9 10H8V11H9V10Z" fill="#8BC5CD"/>
<path d="M9 9H8V10H9V9Z" fill="#8BC5CD"/>
<path d="M9 8H8V9H9V8Z" fill="#8BC5CD"/>
<path d="M9 7H8V8H9V7Z" fill="#8BC5CD"/>
<path d="M9 6H8V7H9V6Z" fill="#8BC5CD"/>
<path d="M9 5H8V6H9V5Z" fill="#8BC5CD"/>
<path d="M9 4H8V5H9V4Z" fill="#B4E6EE"/>
<path d="M9 3H8V4H9V3Z" fill="#B4E6EE"/>
<path d="M9 2H8V3H9V2Z" fill="#5A9CA4"/>
<path d="M8 36H7V37H8V36Z" fill="#297383"/>
<path d="M8 35H7V36H8V35Z" fill="#5A9CA4"/>
<path d="M8 34H7V35H8V34Z" fill="#5A9CA4"/>
<path d="M8 33H7V34H8V33Z" fill="#8BC5CD"/>
<path d="M8 32H7V33H8V32Z" fill="#8BC5CD"/>
<path d="M8 31H7V32H8V31Z" fill="#8BC5CD"/>
<path d="M8 30H7V31H8V30Z" fill="#8BC5CD"/>
<path d="M8 29H7V30H8V29Z" fill="#8BC5CD"/>
<path d="M8 28H7V29H8V28Z" fill="#BD6A00"/>
<path d="M8 27H7V28H8V27Z" fill="#BD6A00"/>
<path d="M8 26H7V27H8V26Z" fill="#BD6A00"/>
<path d="M8 25H7V26H8V25Z" fill="#BD6A00"/>
<path d="M8 24H7V25H8V24Z" fill="#BD6A00"/>
<path d="M8 23H7V24H8V23Z" fill="#BD6A00"/>
<path d="M8 22H7V23H8V22Z" fill="#BD6A00"/>
<path d="M8 21H7V22H8V21Z" fill="#5A9CA4"/>
<path d="M8 20H7V21H8V20Z" fill="#5A9CA4"/>
<path d="M8 19H7V20H8V19Z" fill="#5A9CA4"/>
<path d="M8 18H7V19H8V18Z" fill="#8BC5CD"/>
<path d="M8 17H7V18H8V17Z" fill="#8BC5CD"/>
<path d="M8 16H7V17H8V16Z" fill="#101010"/>
<path d="M8 15H7V16H8V15Z" fill="#5A9CA4"/>
<path d="M8 14H7V15H8V14Z" fill="#101010"/>
<path d="M8 13H7V14H8V13Z" fill="#8BC5CD"/>
<path d="M8 12H7V13H8V12Z" fill="#5A9CA4"/>
<path d="M8 11H7V12H8V11Z" fill="#8BC5CD"/>
<path d="M8 10H7V11H8V10Z" fill="#8BC5CD"/>
<path d="M8 9H7V10H8V9Z" fill="#5A9CA4"/>
<path d="M8 8H7V9H8V8Z" fill="#5A9CA4"/>
<path d="M8 7H7V8H8V7Z" fill="#8BC5CD"/>
<path d="M8 6H7V7H8V6Z" fill="#8BC5CD"/>
<path d="M8 5H7V6H8V5Z" fill="#8BC5CD"/>
<path d="M8 4H7V5H8V4Z" fill="#8BC5CD"/>
<path d="M8 3H7V4H8V3Z" fill="#297383"/>
<path d="M7 37H6V38H7V37Z" fill="#101010"/>
<path d="M7 36H6V37H7V36Z" fill="#5A9CA4"/>
<path d="M7 35H6V36H7V35Z" fill="#5A9CA4"/>
<path d="M7 34H6V35H7V34Z" fill="#5A9CA4"/>
<path d="M7 33H6V34H7V33Z" fill="#8BC5CD"/>
<path d="M7 32H6V33H7V32Z" fill="#8BC5CD"/>
<path d="M7 31H6V32H7V31Z" fill="#8BC5CD"/>
<path d="M7 30H6V31H7V30Z" fill="#8BC5CD"/>
<path d="M7 29H6V30H7V29Z" fill="#8BC5CD"/>
<path d="M7 28H6V29H7V28Z" fill="#5A9CA4"/>
<path d="M7 21H6V22H7V21Z" fill="#101010"/>
<path d="M7 20H6V21H7V20Z" fill="#5A9CA4"/>
<path d="M7 19H6V20H7V19Z" fill="#5A9CA4"/>
<path d="M7 18H6V19H7V18Z" fill="#8BC5CD"/>
<path d="M7 17H6V18H7V17Z" fill="#8BC5CD"/>
<path d="M7 16H6V17H7V16Z" fill="#5A9CA4"/>
<path d="M7 15H6V16H7V15Z" fill="#101010"/>
<path d="M7 14H6V15H7V14Z" fill="#101010"/>
<path d="M7 13H6V14H7V13Z" fill="#297383"/>
<path d="M7 12H6V13H7V12Z" fill="#8BC5CD"/>
<path d="M7 11H6V12H7V11Z" fill="#B4E6EE"/>
<path d="M7 10H6V11H7V10Z" fill="#101010"/>
<path d="M7 9H6V10H7V9Z" fill="#832900"/>
<path d="M7 8H6V9H7V8Z" fill="white"/>
<path d="M7 7H6V8H7V7Z" fill="#832900"/>
<path d="M7 6H6V7H7V6Z" fill="#5A9CA4"/>
<path d="M7 5H6V6H7V5Z" fill="#297383"/>
<path d="M7 4H6V5H7V4Z" fill="#297383"/>
<path d="M6 37H5V38H6V37Z" fill="#101010"/>
<path d="M6 36H5V37H6V36Z" fill="#8BC5CD"/>
<path d="M6 35H5V36H6V35Z" fill="#297383"/>
<path d="M6 34H5V35H6V34Z" fill="#101010"/>
<path d="M6 33H5V34H6V33Z" fill="#5A9CA4"/>
<path d="M6 32H5V33H6V32Z" fill="#8BC5CD"/>
<path d="M6 31H5V32H6V31Z" fill="#8BC5CD"/>
<path d="M6 30H5V31H6V30Z" fill="#8BC5CD"/>
<path d="M6 29H5V30H6V29Z" fill="#5A9CA4"/>
<path d="M6 21H5V22H6V21Z" fill="#101010"/>
<path d="M6 20H5V21H6V20Z" fill="#5A9CA4"/>
<path d="M6 19H5V20H6V19Z" fill="#5A9CA4"/>
<path d="M6 18H5V19H6V18Z" fill="#8BC5CD"/>
<path d="M6 17H5V18H6V17Z" fill="#8BC5CD"/>
<path d="M6 16H5V17H6V16Z" fill="#5A9CA4"/>
<path d="M6 15H5V16H6V15Z" fill="#101010"/>
<path d="M6 13H5V14H6V13Z" fill="#101010"/>
<path d="M6 12H5V13H6V12Z" fill="#B4E6EE"/>
<path d="M6 11H5V12H6V11Z" fill="#B4E6EE"/>
<path d="M6 10H5V11H6V10Z" fill="#297383"/>
<path d="M6 9H5V10H6V9Z" fill="#297383"/>
<path d="M6 8H5V9H6V8Z" fill="#297383"/>
<path d="M6 7H5V8H6V7Z" fill="#297383"/>
<path d="M6 6H5V7H6V6Z" fill="#297383"/>
<path d="M5 36H4V37H5V36Z" fill="#297383"/>
<path d="M5 33H4V34H5V33Z" fill="#101010"/>
<path d="M5 32H4V33H5V32Z" fill="#297383"/>
<path d="M5 31H4V32H5V31Z" fill="#5A9CA4"/>
<path d="M5 30H4V31H5V30Z" fill="#5A9CA4"/>
<path d="M5 20H4V21H5V20Z" fill="#297383"/>
<path d="M5 19H4V20H5V19Z" fill="#5A9CA4"/>
<path d="M5 18H4V19H5V18Z" fill="#8BC5CD"/>
<path d="M5 17H4V18H5V17Z" fill="#8BC5CD"/>
<path d="M5 16H4V17H5V16Z" fill="#8BC5CD"/>
<path d="M5 15H4V16H5V15Z" fill="#297383"/>
<path d="M5 12H4V13H5V12Z" fill="#101010"/>
<path d="M5 11H4V12H5V11Z" fill="#297383"/>
<path d="M4 20H3V21H4V20Z" fill="#297383"/>
<path d="M4 19H3V20H4V19Z" fill="#5A9CA4"/>
<path d="M4 18H3V19H4V18Z" fill="#8BC5CD"/>
<path d="M4 17H3V18H4V17Z" fill="#8BC5CD"/>
<path d="M4 16H3V17H4V16Z" fill="#8BC5CD"/>
<path d="M4 15H3V16H4V15Z" fill="#5A9CA4"/>
<path d="M4 14H3V15H4V14Z" fill="#5A9CA4"/>
<path d="M3 19H2V20H3V19Z" fill="#297383"/>
<path d="M3 18H2V19H3V18Z" fill="#5A9CA4"/>
<path d="M3 17H2V18H3V17Z" fill="#8BC5CD"/>
<path d="M3 16H2V17H3V16Z" fill="#8BC5CD"/>
<path d="M3 15H2V16H3V15Z" fill="#8BC5CD"/>
<path d="M2 18H1V19H2V18Z" fill="#297383"/>
<path d="M2 17H1V18H2V17Z" fill="#8BC5CD"/>
<path d="M2 16H1V17H2V16Z" fill="#8BC5CD"/>
<path d="M2 15H1V16H2V15Z" fill="#297383"/>
<path d="M2 14H1V15H2V14Z" fill="#5A9CA4"/>
<path d="M1 17H0V18H1V17Z" fill="#297383"/>
<path d="M1 16H0V17H1V16Z" fill="#5A9CA4"/>
</svg>
